<?xml version="1.0" encoding="UTF-8"?>
<!--Generator: Apple Native CoreSVG 175-->
<!DOCTYPE svg
PUBLIC "-//W3C//DTD SVG 1.1//EN"
       "http://www.w3.org/Graphics/SVG/1.1/DTD/svg11.dtd">
<svg version="1.1" xmlns="http://www.w3.org/2000/svg" xmlns:xlink="http://www.w3.org/1999/xlink" width="3300" height="2200">
 <!--glyph: "uni100645.medium", point size: 100.0, font version: "17.3d3e1", template writer version: "65.1"-->
 <g id="Notes">
  <rect height="2200" id="artboard" style="fill:white;opacity:1" width="3300" x="0" y="0"/>
  <line style="fill:none;stroke:black;opacity:1;stroke-width:0.5;" x1="263" x2="3036" y1="292" y2="292"/>
  <text style="stroke:none;fill:black;font-family:sans-serif;font-size:13;font-weight:bold;" transform="matrix(1 0 0 1 263 322)">Weight/Scale Variations</text>
  <text style="stroke:none;fill:black;font-family:sans-serif;font-size:13;text-anchor:middle;" transform="matrix(1 0 0 1 559.711 322)">Ultralight</text>
  <text style="stroke:none;fill:black;font-family:sans-serif;font-size:13;text-anchor:middle;" transform="matrix(1 0 0 1 856.422 322)">Thin</text>
  <text style="stroke:none;fill:black;font-family:sans-serif;font-size:13;text-anchor:middle;" transform="matrix(1 0 0 1 1153.13 322)">Light</text>
  <text style="stroke:none;fill:black;font-family:sans-serif;font-size:13;text-anchor:middle;" transform="matrix(1 0 0 1 1449.84 322)">Regular</text>
  <text style="stroke:none;fill:black;font-family:sans-serif;font-size:13;text-anchor:middle;" transform="matrix(1 0 0 1 1746.56 322)">Medium</text>
  <text style="stroke:none;fill:black;font-family:sans-serif;font-size:13;text-anchor:middle;" transform="matrix(1 0 0 1 2043.27 322)">Semibold</text>
  <text style="stroke:none;fill:black;font-family:sans-serif;font-size:13;text-anchor:middle;" transform="matrix(1 0 0 1 2339.98 322)">Bold</text>
  <text style="stroke:none;fill:black;font-family:sans-serif;font-size:13;text-anchor:middle;" transform="matrix(1 0 0 1 2636.69 322)">Heavy</text>
  <text style="stroke:none;fill:black;font-family:sans-serif;font-size:13;text-anchor:middle;" transform="matrix(1 0 0 1 2933.4 322)">Black</text>
  <line style="fill:none;stroke:black;opacity:1;stroke-width:0.5;" x1="263" x2="3036" y1="1903" y2="1903"/>
  <g transform="matrix(1 0 0 1 263 1933)">
   <path d="M9.24805 0.830078Q10.8691 0.830078 12.2949 0.214844Q13.7207-0.400391 14.8096-1.49414Q15.8984-2.58789 16.5186-4.01367Q17.1387-5.43945 17.1387-7.05078Q17.1387-8.66211 16.5186-10.0879Q15.8984-11.5137 14.8047-12.6074Q13.7109-13.7012 12.2852-14.3164Q10.8594-14.9316 9.23828-14.9316Q7.62695-14.9316 6.20117-14.3164Q4.77539-13.7012 3.69141-12.6074Q2.60742-11.5137 1.9873-10.0879Q1.36719-8.66211 1.36719-7.05078Q1.36719-5.43945 1.9873-4.01367Q2.60742-2.58789 3.69629-1.49414Q4.78516-0.400391 6.21094 0.214844Q7.63672 0.830078 9.24805 0.830078ZM9.24805-0.654297Q7.91992-0.654297 6.7627-1.14746Q5.60547-1.64062 4.73145-2.51953Q3.85742-3.39844 3.36426-4.56055Q2.87109-5.72266 2.87109-7.05078Q2.87109-8.37891 3.35938-9.54102Q3.84766-10.7031 4.72168-11.582Q5.5957-12.4609 6.75293-12.9541Q7.91016-13.4473 9.23828-13.4473Q10.5762-13.4473 11.7334-12.9541Q12.8906-12.4609 13.7695-11.582Q14.6484-10.7031 15.1465-9.54102Q15.6445-8.37891 15.6445-7.05078Q15.6445-5.72266 15.1514-4.56055Q14.6582-3.39844 13.7842-2.51953Q12.9102-1.64062 11.748-1.14746Q10.5859-0.654297 9.24805-0.654297ZM5.6543-7.05078Q5.6543-6.72852 5.85938-6.52832Q6.06445-6.32812 6.40625-6.32812L8.51562-6.32812L8.51562-4.20898Q8.51562-3.88672 8.71094-3.67676Q8.90625-3.4668 9.23828-3.4668Q9.56055-3.4668 9.77051-3.67676Q9.98047-3.88672 9.98047-4.20898L9.98047-6.32812L12.0898-6.32812Q12.4219-6.32812 12.627-6.52832Q12.832-6.72852 12.832-7.05078Q12.832-7.38281 12.627-7.58789Q12.4219-7.79297 12.0898-7.79297L9.98047-7.79297L9.98047-9.90234Q9.98047-10.2344 9.77051-10.4443Q9.56055-10.6543 9.23828-10.6543Q8.90625-10.6543 8.71094-10.4443Q8.51562-10.2344 8.51562-9.90234L8.51562-7.79297L6.40625-7.79297Q6.06445-7.79297 5.85938-7.58789Q5.6543-7.38281 5.6543-7.05078Z"/>
  </g>
  <g transform="matrix(1 0 0 1 281.867 1933)">
   <path d="M11.709 2.91016Q13.75 2.91016 15.5518 2.12891Q17.3535 1.34766 18.7305-0.0292969Q20.1074-1.40625 20.8887-3.20801Q21.6699-5.00977 21.6699-7.05078Q21.6699-9.0918 20.8887-10.8936Q20.1074-12.6953 18.7305-14.0723Q17.3535-15.4492 15.5469-16.2305Q13.7402-17.0117 11.6992-17.0117Q9.6582-17.0117 7.85645-16.2305Q6.05469-15.4492 4.68262-14.0723Q3.31055-12.6953 2.5293-10.8936Q1.74805-9.0918 1.74805-7.05078Q1.74805-5.00977 2.5293-3.20801Q3.31055-1.40625 4.6875-0.0292969Q6.06445 1.34766 7.86621 2.12891Q9.66797 2.91016 11.709 2.91016ZM11.709 1.25Q9.98047 1.25 8.47656 0.605469Q6.97266-0.0390625 5.83496-1.17676Q4.69727-2.31445 4.05762-3.81836Q3.41797-5.32227 3.41797-7.05078Q3.41797-8.7793 4.05762-10.2832Q4.69727-11.7871 5.83008-12.9297Q6.96289-14.0723 8.4668-14.7119Q9.9707-15.3516 11.6992-15.3516Q13.4277-15.3516 14.9316-14.7119Q16.4355-14.0723 17.5781-12.9297Q18.7207-11.7871 19.3652-10.2832Q20.0098-8.7793 20.0098-7.05078Q20.0098-5.32227 19.3701-3.81836Q18.7305-2.31445 17.5928-1.17676Q16.4551-0.0390625 14.9463 0.605469Q13.4375 1.25 11.709 1.25ZM7.17773-7.05078Q7.17773-6.69922 7.41211-6.47461Q7.64648-6.25 8.01758-6.25L10.8887-6.25L10.8887-3.36914Q10.8887-2.99805 11.1133-2.76855Q11.3379-2.53906 11.6895-2.53906Q12.0605-2.53906 12.29-2.76855Q12.5195-2.99805 12.5195-3.36914L12.5195-6.25L15.4004-6.25Q15.7715-6.25 16.001-6.47461Q16.2305-6.69922 16.2305-7.05078Q16.2305-7.42188 16.001-7.65137Q15.7715-7.88086 15.4004-7.88086L12.5195-7.88086L12.5195-10.752Q12.5195-11.1328 12.29-11.3623Q12.0605-11.5918 11.6895-11.5918Q11.3379-11.5918 11.1133-11.3574Q10.8887-11.123 10.8887-10.752L10.8887-7.88086L8.01758-7.88086Q7.63672-7.88086 7.40723-7.65137Q7.17773-7.42188 7.17773-7.05078Z"/>
  </g>
  <g transform="matrix(1 0 0 1 305.646 1933)">
   <path d="M14.9707 5.66406Q17.0605 5.66406 18.96 5.01465Q20.8594 4.36523 22.4512 3.19336Q24.043 2.02148 25.2197 0.429688Q26.3965-1.16211 27.0459-3.06641Q27.6953-4.9707 27.6953-7.05078Q27.6953-9.14062 27.0459-11.04Q26.3965-12.9395 25.2197-14.5312Q24.043-16.123 22.4512-17.2998Q20.8594-18.4766 18.9551-19.126Q17.0508-19.7754 14.9609-19.7754Q12.8711-19.7754 10.9717-19.126Q9.07227-18.4766 7.48535-17.2998Q5.89844-16.123 4.72168-14.5312Q3.54492-12.9395 2.90039-11.04Q2.25586-9.14062 2.25586-7.05078Q2.25586-4.9707 2.90527-3.06641Q3.55469-1.16211 4.72656 0.429688Q5.89844 2.02148 7.49023 3.19336Q9.08203 4.36523 10.9814 5.01465Q12.8809 5.66406 14.9707 5.66406ZM14.9707 3.84766Q13.1641 3.84766 11.5283 3.2959Q9.89258 2.74414 8.53516 1.74805Q7.17773 0.751953 6.17676-0.610352Q5.17578-1.97266 4.62891-3.6084Q4.08203-5.24414 4.08203-7.05078Q4.08203-8.86719 4.62891-10.5029Q5.17578-12.1387 6.17188-13.501Q7.16797-14.8633 8.52539-15.8594Q9.88281-16.8555 11.5186-17.4023Q13.1543-17.9492 14.9609-17.9492Q16.7773-17.9492 18.4131-17.4023Q20.0488-16.8555 21.4111-15.8594Q22.7734-14.8633 23.7695-13.501Q24.7656-12.1387 25.3174-10.5029Q25.8691-8.86719 25.8691-7.05078Q25.8789-5.24414 25.332-3.6084Q24.7852-1.97266 23.7842-0.610352Q22.7832 0.751953 21.4209 1.74805Q20.0586 2.74414 18.4229 3.2959Q16.7871 3.84766 14.9707 3.84766ZM9.19922-7.05078Q9.19922-6.66992 9.45801-6.4209Q9.7168-6.17188 10.1172-6.17188L14.0625-6.17188L14.0625-2.2168Q14.0625-1.81641 14.3115-1.55762Q14.5605-1.29883 14.9512-1.29883Q15.3516-1.29883 15.6104-1.55273Q15.8691-1.80664 15.8691-2.2168L15.8691-6.17188L19.8242-6.17188Q20.2246-6.17188 20.4785-6.4209Q20.7324-6.66992 20.7324-7.05078Q20.7324-7.46094 20.4785-7.71484Q20.2246-7.96875 19.8242-7.96875L15.8691-7.96875L15.8691-11.9141Q15.8691-12.3242 15.6104-12.583Q15.3516-12.8418 14.9512-12.8418Q14.5605-12.8418 14.3115-12.583Q14.0625-12.3242 14.0625-11.9141L14.0625-7.96875L10.1172-7.96875Q9.70703-7.96875 9.45312-7.71484Q9.19922-7.46094 9.19922-7.05078Z"/>
  </g>
  <text style="stroke:none;fill:black;font-family:sans-serif;font-size:13;font-weight:bold;" transform="matrix(1 0 0 1 263 1953)">Design Variations</text>
  <text style="stroke:none;fill:black;font-family:sans-serif;font-size:13;" transform="matrix(1 0 0 1 263 1971)">Symbols are supported in up to nine weights and three scales.</text>
  <text style="stroke:none;fill:black;font-family:sans-serif;font-size:13;" transform="matrix(1 0 0 1 263 1989)">For optimal layout with text and other symbols, vertically align</text>
  <text style="stroke:none;fill:black;font-family:sans-serif;font-size:13;" transform="matrix(1 0 0 1 263 2007)">symbols with the adjacent text.</text>
  <line style="fill:none;stroke:#00AEEF;stroke-width:0.5;opacity:1.0;" x1="776" x2="776" y1="1919" y2="1933"/>
  <g transform="matrix(1 0 0 1 776 1933)">
   <path d="M3.31055 0.15625Q3.70117 0.15625 3.91602-0.00976562Q4.13086-0.175781 4.26758-0.585938L5.52734-4.0332L11.2891-4.0332L12.5488-0.585938Q12.6855-0.175781 12.9004-0.00976562Q13.1152 0.15625 13.4961 0.15625Q13.8867 0.15625 14.1162-0.0585938Q14.3457-0.273438 14.3457-0.644531Q14.3457-0.869141 14.2383-1.17188L9.6582-13.3691Q9.48242-13.8184 9.17969-14.043Q8.87695-14.2676 8.4082-14.2676Q7.5-14.2676 7.17773-13.3789L2.59766-1.16211Q2.49023-0.859375 2.49023-0.634766Q2.49023-0.263672 2.70996-0.0537109Q2.92969 0.15625 3.31055 0.15625ZM6.00586-5.51758L8.37891-12.0898L8.42773-12.0898L10.8008-5.51758Z"/>
  </g>
  <line style="fill:none;stroke:#00AEEF;stroke-width:0.5;opacity:1.0;" x1="793.197" x2="793.197" y1="1919" y2="1933"/>
  <text style="stroke:none;fill:black;font-family:sans-serif;font-size:13;font-weight:bold;" transform="matrix(1 0 0 1 776 1953)">Margins</text>
  <text style="stroke:none;fill:black;font-family:sans-serif;font-size:13;" transform="matrix(1 0 0 1 776 1971)">Leading and trailing margins on the left and right side of each symbol</text>
  <text style="stroke:none;fill:black;font-family:sans-serif;font-size:13;" transform="matrix(1 0 0 1 776 1989)">can be adjusted by modifying the x-location of the margin guidelines.</text>
  <text style="stroke:none;fill:black;font-family:sans-serif;font-size:13;" transform="matrix(1 0 0 1 776 2007)">Modifications are automatically applied proportionally to all</text>
  <text style="stroke:none;fill:black;font-family:sans-serif;font-size:13;" transform="matrix(1 0 0 1 776 2025)">scales and weights.</text>
  <g transform="matrix(1 0 0 1 1289 1933)">
   <path d="M2.8418 1.86523L4.54102 3.57422Q5.18555 4.22852 5.90332 4.17969Q6.62109 4.13086 7.31445 3.35938L18.0078-8.42773L17.041-9.4043L6.42578 2.27539Q6.16211 2.57812 5.89355 2.61719Q5.625 2.65625 5.27344 2.30469L4.10156 1.14258Q3.75 0.791016 3.79395 0.522461Q3.83789 0.253906 4.14062-0.0195312L15.6152-10.8203L14.6387-11.7871L3.04688-0.898438Q2.30469-0.214844 2.25098 0.498047Q2.19727 1.21094 2.8418 1.86523ZM9.25781-16.3281Q8.94531-16.0254 8.90625-15.6348Q8.86719-15.2441 9.04297-14.9512Q9.21875-14.6777 9.55566-14.541Q9.89258-14.4043 10.3809-14.5215Q11.4746-14.7754 12.5977-14.7314Q13.7207-14.6875 14.7949-13.9844L14.209-12.5293Q13.9551-11.9043 14.0674-11.4404Q14.1797-10.9766 14.5801-10.5664L16.875-8.25195Q17.2363-7.88086 17.5781-7.82227Q17.9199-7.76367 18.3398-7.8418L19.4043-8.03711L20.0684-7.36328L20.0293-6.80664Q20-6.43555 20.1221-6.12305Q20.2441-5.81055 20.6055-5.44922L21.3672-4.70703Q21.7285-4.3457 22.1533-4.33105Q22.5781-4.31641 22.9297-4.66797L25.8398-7.58789Q26.1914-7.93945 26.1816-8.35449Q26.1719-8.76953 25.8105-9.13086L25.0391-9.89258Q24.6875-10.2539 24.3799-10.3857Q24.0723-10.5176 23.7109-10.4883L23.1348-10.4395L22.4902-11.0742L22.7344-12.1973Q22.832-12.6172 22.6953-12.9834Q22.5586-13.3496 22.1191-13.7891L19.9219-15.9766Q18.6719-17.2168 17.2607-17.8369Q15.8496-18.457 14.4189-18.4814Q12.9883-18.5059 11.665-17.959Q10.3418-17.4121 9.25781-16.3281ZM10.752-15.957Q11.6602-16.6211 12.7002-16.9043Q13.7402-17.1875 14.8047-17.085Q15.8691-16.9824 16.8701-16.5137Q17.8711-16.0449 18.7012-15.2051L21.1328-12.793Q21.3086-12.6172 21.3525-12.4512Q21.3965-12.2852 21.3379-12.0312L21.0156-10.5469L22.5195-9.0625L23.5059-9.12109Q23.6914-9.13086 23.7891-9.09668Q23.8867-9.0625 24.0332-8.91602L24.6094-8.33984L22.168-5.89844L21.5918-6.47461Q21.4453-6.62109 21.4062-6.71875Q21.3672-6.81641 21.377-7.01172L21.4453-7.98828L19.9512-9.47266L18.4277-9.21875Q18.1836-9.16992 18.042-9.2041Q17.9004-9.23828 17.7148-9.41406L15.7129-11.416Q15.5176-11.5918 15.4932-11.7529Q15.4688-11.9141 15.5859-12.1875L16.4648-14.2773Q15.293-15.3711 13.8281-15.791Q12.3633-16.2109 10.8398-15.7617Q10.7227-15.7324 10.6885-15.8057Q10.6543-15.8789 10.752-15.957Z"/>
  </g>
  <text style="stroke:none;fill:black;font-family:sans-serif;font-size:13;font-weight:bold;" transform="matrix(1 0 0 1 1289 1953)">Exporting</text>
  <text style="stroke:none;fill:black;font-family:sans-serif;font-size:13;" transform="matrix(1 0 0 1 1289 1971)">Symbols should be outlined when exporting to ensure the</text>
  <text style="stroke:none;fill:black;font-family:sans-serif;font-size:13;" transform="matrix(1 0 0 1 1289 1989)">design is preserved when submitting to Xcode.</text>
  <text id="template-version" style="stroke:none;fill:black;font-family:sans-serif;font-size:13;text-anchor:end;" transform="matrix(1 0 0 1 3036 1933)">Template v.3.0</text>
  <text style="stroke:none;fill:black;font-family:sans-serif;font-size:13;text-anchor:end;" transform="matrix(1 0 0 1 3036 1951)">Requires Xcode 13 or greater</text>
  <text id="descriptive-name" style="stroke:none;fill:black;font-family:sans-serif;font-size:13;text-anchor:end;" transform="matrix(1 0 0 1 3036 1969)">Generated from hammer.fill</text>
  <text style="stroke:none;fill:black;font-family:sans-serif;font-size:13;text-anchor:end;" transform="matrix(1 0 0 1 3036 1987)">Typeset at 100 points</text>
  <text style="stroke:none;fill:black;font-family:sans-serif;font-size:13;" transform="matrix(1 0 0 1 263 726)">Small</text>
  <text style="stroke:none;fill:black;font-family:sans-serif;font-size:13;" transform="matrix(1 0 0 1 263 1156)">Medium</text>
  <text style="stroke:none;fill:black;font-family:sans-serif;font-size:13;" transform="matrix(1 0 0 1 263 1586)">Large</text>
 </g>
 <g id="Guides">
  <g id="H-reference" style="fill:#27AAE1;stroke:none;" transform="matrix(1 0 0 1 339 696)">
   <path d="M0.993347 0L3.6377 0L29.3282-67.1326L30.0301-67.1326L30.0301-70.459L28.1227-70.459ZM11.6882-24.4797L46.9818-24.4797L46.2311-26.7288L12.4382-26.7288ZM55.1193 0L57.7637 0L30.6381-70.459L29.4327-70.459L29.4327-67.1326Z"/>
  </g>
  <line id="Baseline-S" style="fill:none;stroke:#27AAE1;opacity:1;stroke-width:0.5;" x1="263" x2="3036" y1="696" y2="696"/>
  <line id="Capline-S" style="fill:none;stroke:#27AAE1;opacity:1;stroke-width:0.5;" x1="263" x2="3036" y1="625.541" y2="625.541"/>
  <g id="H-reference" style="fill:#27AAE1;stroke:none;" transform="matrix(1 0 0 1 339 1126)">
   <path d="M0.993347 0L3.6377 0L29.3282-67.1326L30.0301-67.1326L30.0301-70.459L28.1227-70.459ZM11.6882-24.4797L46.9818-24.4797L46.2311-26.7288L12.4382-26.7288ZM55.1193 0L57.7637 0L30.6381-70.459L29.4327-70.459L29.4327-67.1326Z"/>
  </g>
  <line id="Baseline-M" style="fill:none;stroke:#27AAE1;opacity:1;stroke-width:0.5;" x1="263" x2="3036" y1="1126" y2="1126"/>
  <line id="Capline-M" style="fill:none;stroke:#27AAE1;opacity:1;stroke-width:0.5;" x1="263" x2="3036" y1="1055.54" y2="1055.54"/>
  <g id="H-reference" style="fill:#27AAE1;stroke:none;" transform="matrix(1 0 0 1 339 1556)">
   <path d="M0.993347 0L3.6377 0L29.3282-67.1326L30.0301-67.1326L30.0301-70.459L28.1227-70.459ZM11.6882-24.4797L46.9818-24.4797L46.2311-26.7288L12.4382-26.7288ZM55.1193 0L57.7637 0L30.6381-70.459L29.4327-70.459L29.4327-67.1326Z"/>
  </g>
  <line id="Baseline-L" style="fill:none;stroke:#27AAE1;opacity:1;stroke-width:0.5;" x1="263" x2="3036" y1="1556" y2="1556"/>
  <line id="Capline-L" style="fill:none;stroke:#27AAE1;opacity:1;stroke-width:0.5;" x1="263" x2="3036" y1="1485.54" y2="1485.54"/>
  <line id="left-margin-Regular-M" style="fill:none;stroke:#00AEEF;stroke-width:0.5;opacity:1.0;" x1="1378.38" x2="1378.38" y1="1030.79" y2="1150.12"/>
  <line id="right-margin-Regular-M" style="fill:none;stroke:#00AEEF;stroke-width:0.5;opacity:1.0;" x1="1521.3" x2="1521.3" y1="1030.79" y2="1150.12"/>
 </g>
 <g id="Symbols">
  <g id="Black-L" transform="matrix(1 0 0 1 2833.12 1556)">
   <path d="M31.5436 38.4278Q36.8696 43.7539 43.3324 43.4522Q49.7953 43.1505 55.0665 37.0267L115.892-34.2972L92.2962-57.9142L20.9615 2.92172Q14.7377 8.19172 14.4756 14.6448Q14.2135 21.0978 19.5979 26.4822ZM150.323-22.2226Q153.764-18.9195 157.734-18.7616Q161.705-18.6038 164.893-21.8497L183.138-40.1322Q186.227-43.2793 186.108-47.2705Q185.989-51.2618 182.745-54.6441L178.64-58.8431Q176.124-61.4384 173.955-62.056Q171.785-62.6735 169.141-62.3982L163.814-61.8344L160.001-65.5681L161.522-72.1546Q163.436-80.6309 155.149-88.915L143.086-100.977Q135.832-108.21 125.924-112.078Q116.016-115.946 105.28-116.269Q94.5429-116.592 84.6155-113.179Q74.6881-109.766 67.4955-102.457Q64.4512-99.375 64.151-95.8415Q63.8508-92.3079 65.6041-89.653Q67.2328-87.2457 70.2882-86.0909Q73.3436-84.9362 77.4271-86.0408Q85.1348-88.1771 92.2679-88.5014Q99.401-88.8257 104.837-85.8773L101.702-77.6662Q99.7483-72.7234 100.509-68.7029Q101.269-64.6824 104.811-61.1012L116.789-49.0432Q120.545-45.2889 124.324-43.9092Q128.104-42.5296 132.477-43.4834L139.417-44.9246L143.246-41.1921L142.512-35.7674Q142.118-33.1209 142.812-30.9793Q143.505-28.8377 146.219-26.2048Z"/>
  </g>
  <g id="Heavy-L" transform="matrix(1 0 0 1 2538.38 1556)">
   <path d="M30.8852 37.1062Q35.9414 42.1625 41.9593 41.8537Q47.9771 41.5449 53.0057 35.7414L113.68-34.8768L91.3242-57.263L20.6554 3.39116Q14.747 8.41413 14.4756 14.4197Q14.2042 20.4252 19.3051 25.5262ZM148.043-21.9632Q151.123-19.0025 154.651-18.8557Q158.179-18.709 161.061-21.6306L179.484-40.0676Q182.262-42.8898 182.149-46.4476Q182.037-50.0054 179.121-53.0408L174.885-57.3303Q172.527-59.7636 170.525-60.3398Q168.524-60.916 166.025-60.6771L160.301-60.056L156.217-64.065L157.888-71.1481Q159.716-79.1904 151.822-87.0728L139.594-99.2954Q132.495-106.358 122.866-110.149Q113.237-113.939 102.801-114.267Q92.3653-114.594 82.6971-111.26Q73.0289-107.927 65.9627-100.771Q63.1097-97.9037 62.909-94.658Q62.7083-91.4123 64.3756-89.0232Q65.8907-86.9324 68.6001-85.934Q71.3095-84.9355 74.8278-85.9077Q82.8801-88.1576 90.2136-88.4107Q97.5472-88.6638 103.323-85.4109L99.7751-76.171Q97.9214-71.4688 98.6686-67.7063Q99.4157-63.9439 102.73-60.6098L115.201-48.0577Q118.517-44.7478 121.906-43.5512Q125.295-42.3547 129.348-43.2401L137.009-44.8065L141.072-40.8031L140.368-35.0142Q140.034-32.4757 140.657-30.491Q141.279-28.5062 143.807-26.0584Z"/>
  </g>
  <g id="Bold-L" transform="matrix(1 0 0 1 2244.01 1556)">
   <path d="M30.1005 35.6036Q34.8336 40.3369 40.3094 40.0241Q45.7852 39.7113 50.5291 34.2849L111.168-35.584L90.2744-56.5157L20.2863 4.04208Q14.7547 8.77265 14.4756 14.2361Q14.1964 19.6995 18.9588 24.4621ZM145.365-21.566Q148.007-19.0205 150.996-18.8928Q153.986-18.765 156.499-21.2944L175.144-39.9311Q177.553-42.3684 177.452-45.3959Q177.351-48.4234 174.835-51.0359L170.43-55.448Q168.226-57.7188 166.406-58.2487Q164.586-58.7786 162.205-58.5858L156.198-57.9327L151.739-62.3247L153.541-69.8883Q155.255-77.4077 147.905-84.731L135.409-97.213Q128.496-104.076 119.205-107.774Q109.914-111.472 99.8506-111.807Q89.7874-112.142 80.4493-108.916Q71.1113-105.689 64.2213-98.7408Q61.6063-96.1348 61.5063-93.2351Q61.4062-90.3355 62.9585-88.2545Q64.3278-86.5258 66.6367-85.7008Q68.9457-84.8759 71.8318-85.6867Q80.2696-88.0153 87.8193-88.1539Q95.369-88.2925 101.53-84.6482L97.5121-74.3192Q95.7814-69.9314 96.5057-66.4805Q97.23-63.0296 100.267-59.9878L113.324-46.8509Q116.131-44.0568 119.054-43.0758Q121.978-42.0948 125.646-42.8956L134.043-44.586L138.442-40.2073L137.799-34.1664Q137.535-31.7138 138.076-29.8952Q138.618-28.0766 140.96-25.8145Z"/>
  </g>
  <g id="Semibold-L" transform="matrix(1 0 0 1 1948.92 1556)">
   <path d="M29.5595 34.5677Q34.0698 39.0783 39.172 38.7628Q44.2742 38.4473 48.8218 33.2808L109.436-36.0716L89.5506-56.0006L20.0319 4.49082Q14.7601 9.01982 14.4756 14.1095Q14.1911 19.1993 18.72 23.7285ZM143.518-21.2921Q145.858-19.0329 148.476-18.9183Q151.095-18.8037 153.354-21.0627L172.153-39.837Q174.306-42.009 174.214-44.6709Q174.121-47.3327 171.88-49.6538L167.359-54.1504Q165.262-56.3091 163.567-56.8071Q161.872-57.3052 159.572-57.1441L153.369-56.469L148.651-61.125L150.545-69.0198Q152.179-76.1788 145.204-83.1166L132.525-95.7775Q125.738-102.502 116.68-106.137Q107.623-109.771 97.8165-110.112Q88.0102-110.452 78.8998-107.299Q69.7894-104.147 63.0207-97.3411Q60.5699-94.9152 60.5392-92.2542Q60.5085-89.5931 61.9816-87.7246Q63.2503-86.2454 65.2832-85.5401Q67.3161-84.8348 69.7664-85.5343Q78.47-87.9172 86.1686-87.9769Q93.8673-88.0366 100.294-84.1225L95.9521-73.0425Q94.3061-68.8716 95.0147-65.6354Q95.7232-62.3992 98.5697-59.559L112.029-46.019Q114.486-43.5805 117.089-42.7481Q119.691-41.9157 123.095-42.6582L131.998-44.4339L136.629-39.7966L136.028-33.5819Q135.811-31.1886 136.297-29.4845Q136.783-27.7804 138.997-25.6463Z"/>
  </g>
  <g id="Medium-L" transform="matrix(1 0 0 1 1653.43 1556)">
   <path d="M29.1494 33.7822Q33.4907 38.124 38.3096 37.8064Q43.1285 37.4888 47.5272 32.5194L108.123-36.4412L89.0018-55.61L19.8389 4.83108Q14.7641 9.20723 14.4756 14.0136Q14.1871 18.8199 18.539 23.1722ZM142.118-21.0845Q144.229-19.0422 146.566-18.9376Q148.903-18.833 150.969-20.887L169.884-39.7657Q171.845-41.7365 171.758-44.1211Q171.671-46.5057 169.639-48.6057L165.03-53.1664Q163.014-55.2402 161.414-55.7141Q159.814-56.1879 157.575-56.051L151.224-55.3591L146.31-60.2153L148.273-68.3613Q149.847-75.2469 143.156-81.8925L130.337-94.6889Q123.647-101.309 114.767-104.896Q105.886-108.482 96.2742-108.826Q86.6626-109.17 77.7248-106.074Q68.787-102.977 62.1104-96.2797Q59.7841-93.9905 59.806-91.5104Q59.8278-89.0302 61.2409-87.3228Q62.4333-86.0328 64.2569-85.4182Q66.0805-84.8037 68.2003-85.4187Q77.1054-87.8428 84.917-87.8427Q92.7287-87.8426 99.357-83.7238L94.7691-72.0745Q93.1875-68.068 93.8841-64.9946Q94.5807-61.9212 97.2825-59.2339L111.048-45.3882Q113.239-43.2193 115.598-42.4996Q117.957-41.7799 121.16-42.4781L130.447-44.3187L135.254-39.4852L134.685-33.1386Q134.504-30.7903 134.948-29.173Q135.392-27.5558 137.509-25.5187Z"/>
  </g>
  <g id="Regular-L" transform="matrix(1 0 0 1 1358.32 1556)">
   <path d="M28.6144 32.7578Q32.7354 36.8792 37.1847 36.5589Q41.634 36.2386 45.8387 31.5263L106.411-36.9234L88.286-55.1005L19.5872 5.27489Q14.7694 9.45168 14.4756 13.8884Q14.1818 18.3252 18.3028 22.4467ZM140.292-20.8136Q142.104-19.0545 144.074-18.9629Q146.044-18.8713 147.858-20.6578L166.925-39.6726Q168.634-41.381 168.555-43.4041Q168.476-45.4271 166.717-47.2388L161.992-51.883Q160.082-53.846 158.606-54.2883Q157.129-54.7307 154.97-54.6251L148.427-53.9114L143.257-59.0287L145.31-67.5024Q146.805-74.0314 140.485-80.2958L127.484-93.2691Q120.92-99.753 112.27-103.276Q103.62-106.8 94.2624-107.149Q84.905-107.498 76.1923-104.475Q67.4795-101.452 60.9231-94.8954Q58.7591-92.7844 58.8495-90.5402Q58.94-88.296 60.2747-86.7987Q61.3676-85.7555 62.9182-85.2593Q64.4688-84.7631 66.1576-85.268Q75.3255-87.7458 83.2845-87.6677Q91.2436-87.5895 98.1346-83.2038L93.2262-70.8119Q91.7284-67.0199 92.4094-64.1588Q93.0905-61.2978 95.6036-58.8098L109.768-44.5654Q111.612-42.7482 113.654-42.1754Q115.696-41.6027 118.636-42.2433L128.424-44.1683L133.461-39.0789L132.933-32.5605Q132.8-30.2708 133.188-28.7668Q133.577-27.2628 135.567-25.3524Z"/>
  </g>
  <g id="Light-L" transform="matrix(1 0 0 1 1062.57 1556)">
   <path d="M28.2709 32.5859Q32.239 36.5547 36.3734 36.2631Q40.5079 35.9715 44.6173 31.3926L106.143-37.3431L88.5531-54.9668L19.3965 6.17176Q14.7501 10.2341 14.4756 14.375Q14.201 18.516 18.1691 22.4848ZM139.376-20.0501Q140.939-18.5199 142.604-18.4761Q144.269-18.4323 145.892-20.0088L165.131-39.2147Q166.688-40.7702 166.637-42.4689Q166.587-44.1675 165.057-45.731L160.179-50.5279Q158.116-52.6247 156.592-53.067Q155.068-53.5093 152.584-53.4419L147.186-52.9571L141.501-58.609L143.306-66.5481Q144.668-72.8101 139.092-78.2917L125.5-91.8377Q119.012-98.2452 110.552-101.73Q102.093-105.216 92.9931-105.584Q83.8933-105.953 75.4669-103.063Q67.0406-100.173 60.7323-93.8648Q58.7398-91.9065 58.754-89.834Q58.7681-87.7615 59.9694-86.3408Q60.9287-85.3547 62.3838-84.849Q63.839-84.3433 65.5278-84.7527Q74.6957-86.8871 82.5975-86.5608Q90.4993-86.2344 97.4285-81.486L92.4627-69.5331Q91.0412-66.0656 91.665-63.3668Q92.2888-60.668 94.6493-58.2945L109.042-43.8211Q110.772-42.1373 112.614-41.6411Q114.455-41.1448 117.205-41.728L126.478-43.5386L132.049-37.9339L131.712-32.5224Q131.598-29.9845 131.977-28.4138Q132.355-26.8431 134.498-24.7797Z"/>
  </g>
  <g id="Thin-L" transform="matrix(1 0 0 1 767.132 1556)">
   <path d="M27.8167 32.3586Q31.5825 36.1256 35.3005 35.8719Q39.0185 35.6183 43.0019 31.2158L105.79-37.8983L88.9064-54.7899L19.1441 7.35795Q14.7247 11.2689 14.4756 15.0186Q14.2265 18.7683 17.9923 22.5353ZM138.164-19.0404Q139.399-17.813 140.661-17.8323Q141.922-17.8517 143.292-19.1505L162.759-38.6091Q164.113-39.9623 164.101-41.232Q164.088-42.5017 162.861-43.7369L157.782-48.7357Q155.516-51.0093 153.929-51.4516Q152.342-51.8939 149.429-51.877L145.545-51.695L139.179-58.0538L140.655-65.286Q141.841-71.1947 137.249-75.6411L122.874-89.9446Q116.487-96.2512 108.28-99.6859Q100.073-103.121 91.3143-103.514Q82.5553-103.908 74.5076-101.195Q66.46-98.4818 60.48-92.5018Q58.7144-90.7453 58.6276-88.8999Q58.5408-87.0545 59.5657-85.7352Q60.3481-84.8246 61.6771-84.3064Q63.0061-83.7882 64.6949-84.0711Q73.8628-85.7514 81.6889-85.0968Q89.515-84.4422 96.4946-79.2142L91.453-67.8418Q90.1324-64.8035 90.6805-62.3193Q91.2286-59.8351 93.3872-57.613L108.083-42.8368Q109.662-41.3294 111.238-40.9343Q112.814-40.5392 115.311-41.0465L123.903-42.7056L130.181-36.4194L130.097-32.4719Q130.007-29.6058 130.374-27.9469Q130.74-26.2879 133.085-24.0222Z"/>
  </g>
  <g id="Ultralight-L" transform="matrix(1 0 0 1 471.074 1556)">
   <path d="M27.5841 32.2421Q31.2463 35.9057 34.7509 35.6715Q38.2556 35.4373 42.1746 31.1252L105.609-38.1826L89.0874-54.6994L19.0149 7.96551Q14.7117 11.7989 14.4756 15.3482Q14.2395 18.8976 17.9017 22.5612ZM137.544-18.5232Q138.611-17.4509 139.665-17.5026Q140.72-17.5543 141.96-18.7108L161.543-38.2989Q162.794-39.5485 162.801-40.5985Q162.808-41.6485 161.736-42.7156L156.553-47.8178Q154.184-50.1819 152.565-50.6242Q150.946-51.0665 147.813-51.0754L144.705-51.0486L137.989-57.7695L139.297-64.6396Q140.393-70.3673 136.305-74.2835L121.53-88.9749Q115.195-95.2298 107.117-98.6387Q99.039-102.048 90.4545-102.454Q81.87-102.861 74.0163-100.238Q66.1626-97.6155 60.3507-91.8036Q58.7014-90.1505 58.5629-88.4215Q58.4244-86.6924 59.3589-85.425Q60.0507-84.5531 61.3151-84.0285Q62.5795-83.5039 64.2683-83.7221Q73.4362-85.1697 81.2235-84.3469Q89.0109-83.5242 96.0163-78.0505L90.9358-66.9756Q89.6669-64.1571 90.1762-61.7828Q90.6856-59.4085 92.7408-57.2639L107.592-42.3327Q109.093-40.9156 110.533-40.5723Q111.974-40.229 114.342-40.6974L122.584-42.279L129.225-35.6438L129.269-32.4461Q129.193-29.4118 129.553-27.7077Q129.913-26.0036 132.361-23.6343Z"/>
  </g>
  <g id="Black-M" transform="matrix(1 0 0 1 2854.14 1126)">
   <path d="M24.9574 22.9485Q29.2948 27.2859 34.6417 27.0622Q39.9885 26.8385 44.2679 21.8369L91.6516-34.066L72.3773-53.3458L16.4769-5.95409Q11.4073-1.6744 11.2148 3.66957Q11.0224 9.01354 15.4169 13.408ZM118.297-25.272Q121.239-22.4496 124.654-22.3243Q128.069-22.199 130.777-24.964L144.783-39.0213Q147.422-41.7179 147.328-45.1387Q147.234-48.5595 144.469-51.4444L141.382-54.6405Q139.276-56.8086 137.445-57.3225Q135.613-57.8365 133.396-57.5971L129.764-57.2406L126.973-59.969L127.989-64.5726Q129.528-71.4764 122.872-78.1336L113.587-87.4189Q107.843-93.1571 99.9539-96.2157Q92.0646-99.2743 83.5227-99.5232Q74.9808-99.7722 67.1056-97.0782Q59.2305-94.3842 53.5831-88.6226Q51.0834-86.0713 50.7549-83.1095Q50.4265-80.1478 51.8407-77.8728Q53.1821-75.7436 55.8337-74.7133Q58.4853-73.683 62.1346-74.6396Q67.8099-76.1507 73.1563-76.4295Q78.5026-76.7083 82.4276-74.6366L80.346-69.2187Q78.7562-65.2266 79.3489-61.9119Q79.9416-58.5972 82.8616-55.6259L91.7475-46.6777Q95.0197-43.4052 98.257-42.1893Q101.494-40.9734 105.131-41.7634L109.818-42.757L112.655-40.0282L112.086-36.2884Q111.733-34.1116 112.33-32.3085Q112.927-30.5055 115.209-28.2858Z"/>
  </g>
  <g id="Heavy-M" transform="matrix(1 0 0 1 2559.27 1126)">
   <path d="M24.3455 21.6724Q28.4333 25.7602 33.3741 25.5269Q38.315 25.2935 42.3661 20.5928L89.5138-34.5939L71.4025-52.7216L16.1953-5.57792Q11.4181-1.52915 11.2148 3.40463Q11.0115 8.33842 15.143 12.4699ZM116.153-25.0888Q118.765-22.5801 121.776-22.4612Q124.786-22.3423 127.212-24.8096L141.376-39.0004Q143.725-41.3936 143.635-44.4205Q143.545-47.4475 141.08-50.0162L137.878-53.2867Q135.941-55.284 134.278-55.7575Q132.615-56.2311 130.57-56.0238L126.445-55.5901L123.436-58.5384L124.622-63.6767Q126.089-70.1809 119.747-76.5176L110.356-85.9066Q104.758-91.4864 97.1231-94.4725Q89.4885-97.4586 81.2169-97.7101Q72.9454-97.9616 65.2972-95.3326Q57.649-92.7037 52.1023-87.0697Q49.7737-84.714 49.5496-82.0178Q49.3255-79.3216 50.6679-77.2995Q51.9106-75.4743 54.2327-74.5977Q56.5548-73.7211 59.6517-74.5571Q65.6639-76.2108 71.2114-76.4429Q76.759-76.675 81.0125-74.3391L78.5324-67.8751Q77.0337-64.0881 77.6187-61.0108Q78.2038-57.9334 80.9147-55.1931L90.2625-45.783Q93.1151-42.9326 95.9886-41.8886Q98.8621-40.8447 102.204-41.5731L107.644-42.6995L110.66-39.7535L110.104-35.5556Q109.807-33.5073 110.335-31.8637Q110.864-30.2202 112.951-28.1956Z"/>
  </g>
  <g id="Bold-M" transform="matrix(1 0 0 1 2264.62 1126)">
   <path d="M23.6609 20.2448Q27.4696 24.0535 31.9562 23.8094Q36.4429 23.5653 40.2385 19.2011L87.1223-35.1843L70.312-52.0232L15.8804-5.15711Q11.4303-1.36668 11.2148 3.10826Q10.9993 7.58319 14.8365 11.4205ZM113.754-24.884Q115.998-22.7261 118.556-22.6144Q121.114-22.5026 123.224-24.637L137.564-38.977Q139.59-41.0307 139.504-43.6171Q139.418-46.2036 137.289-48.4186L133.959-51.7722Q132.209-53.5785 130.735-54.0069Q129.261-54.4352 127.408-54.2637L122.732-53.7438L119.48-56.938L120.855-62.6745Q122.241-68.7317 116.253-74.7099L106.743-84.2149Q101.306-89.6174 93.9565-92.5224Q86.6067-95.4275 78.6375-95.6818Q70.6684-95.9362 63.2742-93.38Q55.8799-90.8238 50.4457-85.3325Q48.3087-83.1956 48.2013-80.7965Q48.0939-78.3974 49.356-76.658Q50.4882-75.1731 52.4418-74.4684Q54.3954-73.7637 56.8743-74.4648Q63.2633-76.2781 69.0359-76.4579Q74.8085-76.6378 79.4295-74.0063L76.5036-66.372Q75.1068-62.8146 75.6833-60.0027Q76.2598-57.1909 78.7368-54.7088L88.6012-44.7821Q90.9845-42.4039 93.4511-41.5523Q95.9177-40.7007 98.9296-41.3602L105.211-42.6353L108.429-39.4463L107.886-34.7359Q107.652-32.8313 108.104-31.3661Q108.556-29.901 110.424-28.0947Z"/>
  </g>
  <g id="Semibold-M" transform="matrix(1 0 0 1 1969.33 1126)">
   <path d="M23.189 19.2606Q26.8052 22.8769 30.9788 22.6254Q35.1523 22.3738 38.7718 18.2416L85.4736-35.5914L69.5602-51.5418L15.6632-4.86701Q11.4387-1.25467 11.2148 2.90394Q10.9909 7.06254 14.6253 10.697ZM112.101-24.7427Q114.09-22.8268 116.336-22.72Q118.582-22.6131 120.475-24.518L134.937-38.9609Q136.739-40.7805 136.656-43.0633Q136.573-45.3461 134.675-47.3172L131.257-50.7281Q129.637-52.4028 128.293-52.8Q126.949-53.1971 125.229-53.0504L120.172-52.4709L116.753-55.8347L118.257-61.9836Q119.589-67.7326 113.843-73.4637L104.251-83.0487Q98.9269-88.329 91.7735-91.1781Q84.62-94.0272 76.8593-94.2835Q69.0987-94.5399 61.8795-92.0339Q54.6603-89.5278 49.3037-84.1349Q47.2988-82.1489 47.2718-79.9546Q47.2448-77.7602 48.4515-76.2159Q49.5076-74.9654 51.2071-74.3792Q52.9067-73.7931 54.9595-74.4012Q61.6083-76.3244 67.5361-76.4682Q73.4638-76.6121 78.3381-73.7769L75.105-65.3358Q73.7784-61.9366 74.349-59.3078Q74.9196-56.679 77.2353-54.375L87.4559-44.0921Q89.5156-42.0394 91.7018-41.3204Q93.8879-40.6015 96.6722-41.2135L103.535-42.591L106.891-39.2344L106.357-34.1708Q106.167-32.3652 106.565-31.0231Q106.964-29.681 108.682-28.0251Z"/>
  </g>
  <g id="Medium-M" transform="matrix(1 0 0 1 1673.69 1126)">
   <path d="M22.8312 18.5144Q26.3014 21.9848 30.2376 21.7276Q34.1738 21.4704 37.6597 17.5141L84.2235-35.9001L68.9902-51.1767L15.4985-4.64704Q11.4451-1.16974 11.2148 2.74901Q10.9846 6.66777 14.4651 10.1484ZM110.847-24.6357Q112.644-22.9031 114.653-22.8Q116.662-22.6969 118.391-24.4278L132.945-38.9487Q134.577-40.5909 134.496-42.6434Q134.416-44.6958 132.694-46.482L129.208-49.9365Q127.687-51.5113 126.441-51.8848Q125.196-52.2583 123.577-52.1304L118.231-51.5058L114.685-54.9981L116.288-61.4598Q117.578-66.9751 112.016-72.5188L102.362-82.1644Q97.1228-87.352 90.1182-90.1587Q83.1136-92.9655 75.511-93.2233Q67.9084-93.4811 60.822-91.0132Q53.7356-88.5452 48.4378-83.2269Q46.533-81.3552 46.567-79.3162Q46.601-77.2771 47.7658-75.8806Q48.764-74.8079 50.271-74.3116Q51.7779-73.8154 53.5077-74.353Q60.3535-76.3596 66.3988-76.4761Q72.4442-76.5926 77.5107-73.603L74.0446-64.5502Q72.7712-61.2709 73.3373-58.7809Q73.9034-56.2908 76.0968-54.1219L86.5876-43.5689Q88.4019-41.7631 90.3754-41.1446Q92.3488-40.5262 94.9606-41.1022L102.263-42.5575L105.724-39.0738L105.197-33.7424Q105.04-32.0119 105.399-30.763Q105.757-29.5142 107.361-27.9724Z"/>
  </g>
  <g id="Regular-M" transform="matrix(1 0 0 1 1378.38 1126)">
   <path d="M22.3644 17.541Q25.6443 20.8211 29.2708 20.5566Q32.8973 20.2921 36.2092 16.5652L82.593-36.3027L68.2467-50.7006L15.2838-4.36013Q11.4534-1.05896 11.2148 2.54694Q10.9763 6.15284 14.2562 9.43291ZM109.212-24.496Q110.757-23.0026 112.457-22.9044Q114.158-22.8062 115.672-24.3101L130.346-38.9327Q131.757-40.3435 131.68-42.0956Q131.602-43.8477 130.109-45.3927L126.535-48.9039Q125.142-50.3485 124.026-50.6912Q122.909-51.0339 121.421-50.9303L115.699-50.247L111.988-53.9069L113.72-60.7764Q114.954-65.987 109.634-71.2863L99.8986-81.0109Q94.7695-86.0777 87.9592-88.8292Q81.1488-91.5806 73.7524-91.8404Q66.3559-92.1002 59.4427-89.6818Q52.5294-87.2635 47.3084-82.0425Q45.5341-80.32 45.6477-78.4835Q45.7612-76.647 46.8713-75.4432Q47.7942-74.6025 49.0499-74.2235Q50.3056-73.8444 51.614-74.29Q58.7167-76.4054 64.9155-76.4863Q71.1143-76.5672 76.4313-73.376L72.6613-63.5254Q71.4574-60.4026 72.0177-58.0936Q72.5779-55.7846 74.6119-53.7918L85.4549-42.8865Q86.9492-41.4026 88.6452-40.9153Q90.3413-40.428 92.728-40.957L100.605-42.5137L104.203-38.8643L103.685-33.1835Q103.571-31.551 103.877-30.4238Q104.184-29.2966 105.639-27.9036Z"/>
  </g>
  <g id="Light-M" transform="matrix(1 0 0 1 1082.54 1126)">
   <path d="M22.0565 17.3869Q25.1993 20.5302 28.5435 20.2914Q31.8877 20.0526 35.1141 16.4454L82.3535-36.679L68.4862-50.5807L15.1127-3.55604Q11.4362-0.357503 11.2148 2.98319Q10.9935 6.32389 14.1363 9.46712ZM108.391-23.8115Q109.713-22.5234 111.14-22.468Q112.567-22.4127 113.91-23.7282L128.738-38.5222Q130.012-39.7958 129.96-41.2571Q129.908-42.7185 128.62-44.041L124.91-47.689Q123.38-49.2535 122.221-49.5962Q121.061-49.9388 119.282-49.8695L114.587-49.3914L110.413-53.5306L111.923-59.9209Q113.038-64.892 108.385-69.4895L98.1191-79.7276Q93.0584-84.726 86.4191-87.4432Q79.7798-90.1605 72.6144-90.4373Q65.4489-90.7142 58.7924-88.4156Q52.1358-86.117 47.1373-81.1185Q45.5168-79.5329 45.562-77.8503Q45.6071-76.1677 46.5976-75.0327Q47.4007-74.2432 48.5708-73.8556Q49.7409-73.4681 51.0493-73.828Q58.1521-75.6356 64.2996-75.4939Q70.4471-75.3523 75.7983-71.836L71.9768-62.3789Q70.8413-59.5471 71.3503-57.3835Q71.8592-55.2199 73.7563-53.3298L84.8046-42.2193Q86.1963-40.855 87.7126-40.4362Q89.229-40.0175 91.4447-40.495L98.8597-41.949L102.937-37.8377L102.59-33.1493Q102.493-31.2943 102.791-30.1073Q103.089-28.9202 104.68-27.3902Z"/>
  </g>
  <g id="Thin-M" transform="matrix(1 0 0 1 786.969 1126)">
   <path d="M21.6493 17.1831Q24.6107 20.1454 27.5815 19.9406Q30.5524 19.7359 33.6659 16.2868L82.0368-37.1767L68.8029-50.4222L14.8865-2.49256Q11.4134 0.570237 11.2148 3.56018Q11.0163 6.55012 13.9777 9.51237ZM107.304-22.9062Q108.333-21.8896 109.397-21.8909Q110.462-21.8922 111.578-22.9586L126.611-37.9792Q127.704-39.0715 127.686-40.1482Q127.668-41.225 126.651-42.2532L122.76-46.0822Q121.049-47.8052 119.833-48.1479Q118.617-48.4906 116.454-48.4665L113.116-48.2599L108.331-53.0329L109.546-58.7894Q110.503-63.4437 106.732-67.1131L95.7655-78.0303Q90.7953-82.9382 84.3823-85.6102Q77.9692-88.2822 71.1093-88.5817Q64.2493-88.8812 57.9323-86.7409Q51.6153-84.6006 46.9111-79.8965Q45.494-78.4918 45.4487-77.0129Q45.4033-75.5339 46.2356-74.4898Q46.8801-73.7679 47.9372-73.3691Q48.9942-72.9704 50.3026-73.217Q57.4053-74.6173 63.485-74.1814Q69.5646-73.7454 74.961-69.7991L71.0715-60.8626Q70.0265-58.4155 70.4676-56.4444Q70.9087-54.4732 72.6248-52.7188L83.9445-41.3368Q85.2005-40.1307 86.4792-39.8026Q87.7579-39.4745 89.7474-39.884L96.5514-41.2023L101.262-36.48L101.142-33.104Q101.067-30.9547 101.354-29.6886Q101.64-28.4225 103.413-26.7111Z"/>
  </g>
  <g id="Ultralight-M" transform="matrix(1 0 0 1 490.843 1126)">
   <path d="M21.4408 17.0787Q24.3093 19.9483 27.0888 19.761Q29.8684 19.5737 32.9241 16.2056L81.8745-37.4316L68.9651-50.3409L14.7706-1.94785Q11.4017 1.04542 11.2148 3.85571Q11.028 6.666 13.8965 9.53554ZM106.748-22.4425Q107.626-21.5649 108.505-21.5952Q109.384-21.6255 110.384-22.5644L125.521-37.7011Q126.521-38.7005 126.521-39.5802Q126.521-40.46 125.643-41.3375L121.659-45.2592Q119.855-47.0634 118.61-47.4061Q117.365-47.7488 115.005-47.7479L112.362-47.6803L107.265-52.778L108.329-58.2098Q109.205-62.7019 105.886-65.896L94.56-77.1609Q89.6362-82.0225 83.339-84.6713Q77.0418-87.3201 70.3384-87.6312Q63.6349-87.9423 57.4918-85.8831Q51.3487-83.824 46.7952-79.2705Q45.4823-77.9586 45.3907-76.5839Q45.299-75.2093 46.0502-74.2117Q46.6135-73.5245 47.6126-73.12Q48.6117-72.7155 49.9201-72.9041Q57.0228-74.0958 63.0677-73.5091Q69.1126-72.9224 74.5322-68.7559L70.6078-60.0859Q69.6092-57.836 70.0155-55.9633Q70.4218-54.0907 72.0452-52.4058L83.504-40.8848Q84.6904-39.7597 85.8474-39.478Q87.0045-39.1964 88.878-39.5711L95.3691-40.8198L100.404-35.7845L100.4-33.0809Q100.337-30.7808 100.618-29.4742Q100.898-28.1676 102.764-26.3633Z"/>
  </g>
  <g id="Black-S" transform="matrix(1 0 0 1 2870.78 696)">
   <path d="M19.7266 10.7422Q23.1934 14.209 27.4902 14.0381Q31.7871 13.8672 35.2051 9.86328L72.4609-34.1797L57.0312-49.6094L12.9883-12.3535Q8.93555-8.93555 8.78906-4.63867Q8.64258-0.341797 12.1582 3.17383ZM93.3105-27.4414Q95.7031-25.1465 98.4863-25.0488Q101.27-24.9512 103.467-27.1973L114.404-38.1836Q116.553-40.3809 116.479-43.1641Q116.406-45.9473 114.16-48.291L111.768-50.7812Q110.059-52.5391 108.569-52.9541Q107.08-53.3691 105.273-53.1738L102.637-52.9297L100.488-55.0293L101.221-58.4473Q102.441-63.9648 97.168-69.2383L89.8926-76.5137Q85.3516-81.0547 79.1016-83.4717Q72.8516-85.8887 66.0889-86.084Q59.3262-86.2793 53.1006-84.1553Q46.875-82.0312 42.4316-77.4902Q40.4297-75.4395 40.1367-73.0469Q39.8438-70.6543 40.9668-68.7988Q42.041-67.041 44.2139-66.1865Q46.3867-65.332 49.4141-66.1133Q53.7598-67.2363 57.8857-67.4561Q62.0117-67.6758 64.9902-66.1133L63.4766-62.207Q62.207-59.0332 62.6709-56.3721Q63.1348-53.7109 65.4785-51.3184L72.3145-44.4336Q75-41.748 77.6367-40.7471Q80.2734-39.7461 83.2031-40.3809L86.6211-41.1133L88.8184-39.0137L88.3789-36.2793Q88.0859-34.5215 88.5742-33.0566Q89.0625-31.5918 90.918-29.7852Z"/>
  </g>
  <g id="Heavy-S" transform="matrix(1 0 0 1 2575.53 696)">
   <path d="M19.2425 9.67041Q22.5134 12.9413 26.4991 12.7589Q30.4848 12.5764 33.7184 8.81455L70.6631-34.583L56.1669-49.0908L12.7693-12.1346Q8.94707-8.90097 8.78906-4.92102Q8.63105-0.941069 11.9392 2.36712ZM91.5819-27.3723Q93.7209-25.3194 96.193-25.2217Q98.665-25.124 100.643-27.1396L111.696-38.2182Q113.614-40.1734 113.541-42.657Q113.468-45.1406 111.452-47.2423L108.979-49.7786Q107.431-51.3751 106.092-51.7556Q104.752-52.136 103.13-51.9638L99.94-51.6274L97.6648-53.8538L98.5701-57.7904Q99.7447-62.9968 94.6556-68.0858L87.3572-75.3843Q82.9314-79.7985 76.8773-82.1579Q70.8233-84.5173 64.2622-84.7126Q57.7012-84.9079 51.637-82.8242Q45.5727-80.7405 41.187-76.2802Q39.3118-74.3792 39.1168-72.1941Q38.9218-70.0089 39.9987-68.3609Q41.0038-66.8566 42.9058-66.1347Q44.8079-65.4127 47.3627-66.1018Q51.9965-67.3861 56.3011-67.5943Q60.6057-67.8026 63.8608-66.0557L62.013-61.2044Q60.8126-58.1689 61.2764-55.6921Q61.7403-53.2154 63.9227-51.0072L71.1274-43.7537Q73.4672-41.4138 75.8159-40.5512Q78.1645-39.6885 80.8637-40.2771L84.9846-41.1363L87.2741-38.91L86.8231-35.657Q86.5762-34.0375 87.0069-32.7167Q87.4376-31.3959 89.1086-29.7736Z"/>
  </g>
  <g id="Bold-S" transform="matrix(1 0 0 1 2280.46 696)">
   <path d="M18.7012 8.47168Q21.7529 11.5234 25.3906 11.3281Q29.0283 11.1328 32.0557 7.6416L68.6523-35.0342L55.2002-48.5107L12.5244-11.8896Q8.95996-8.8623 8.78906-5.23682Q8.61816-1.61133 11.6943 1.46484ZM89.6484-27.2949Q91.5039-25.5127 93.6279-25.415Q95.752-25.3174 97.4854-27.0752L108.667-38.2568Q110.327-39.9414 110.254-42.0898Q110.181-44.2383 108.423-46.0693L105.859-48.6572Q104.492-50.0732 103.32-50.415Q102.148-50.7568 100.732-50.6104L96.9238-50.1709L94.5068-52.5391L95.6055-57.0557Q96.7285-61.9141 91.8457-66.7969L84.5215-74.1211Q80.2246-78.3936 74.3896-80.6885Q68.5547-82.9834 62.2192-83.1787Q55.8838-83.374 50-81.3354Q44.1162-79.2969 39.7949-74.9268Q38.0615-73.1934 37.9761-71.2402Q37.8906-69.2871 38.916-67.8711Q39.8438-66.6504 41.4429-66.0767Q43.042-65.5029 45.0684-66.0889Q50.0244-67.5537 54.5288-67.749Q59.0332-67.9443 62.5977-65.9912L60.376-60.083Q59.2529-57.2021 59.7168-54.9316Q60.1807-52.6611 62.1826-50.6592L69.7998-42.9932Q71.7529-41.04 73.7793-40.332Q75.8057-39.624 78.2471-40.1611L83.1543-41.1621L85.5469-38.7939L85.083-34.9609Q84.8877-33.4961 85.2539-32.3364Q85.6201-31.1768 87.085-29.7607Z"/>
  </g>
  <g id="Semibold-S" transform="matrix(1 0 0 1 1984.87 696)">
   <path d="M18.3279 7.64521Q21.2286 10.5459 24.6264 10.3417Q28.0241 10.1375 30.9093 6.83291L67.266-35.3452L54.5337-48.1108L12.3556-11.7208Q8.96885-8.83564 8.78906-5.45454Q8.60928-2.07344 11.5255 0.842773ZM88.3154-27.2416Q89.9754-25.646 91.8595-25.5483Q93.7436-25.4507 95.3081-27.0308L106.579-38.2835Q108.061-39.7814 107.988-41.6988Q107.915-43.6162 106.334-45.2606L103.709-47.8841Q102.466-49.1757 101.41-49.4908Q100.353-49.806 99.0795-49.6772L94.8443-49.1667L92.3296-51.6326L93.5615-56.5491Q94.649-61.1676 89.9084-65.9082L82.5664-73.2502Q78.3584-77.4249 72.6745-79.6754Q66.9906-81.9259 60.8107-82.1212Q54.6308-82.3165 48.8714-80.309Q43.112-78.3016 38.8352-73.9937Q37.1995-72.3758 37.1896-70.5826Q37.1797-68.7895 38.1695-67.5334Q39.0439-66.5082 40.4342-66.0367Q41.8245-65.5651 43.4865-66.08Q48.6647-67.6692 53.3069-67.8557Q57.949-68.0421 61.7268-65.9468L59.2474-59.3099Q58.1776-56.5356 58.6415-54.4073Q59.1054-52.279 60.9829-50.4192L68.8845-42.4688Q70.571-40.7823 72.3752-40.181Q74.1794-39.5796 76.4431-40.0812L81.8924-41.1799L84.3561-38.714L83.8833-34.4811Q83.7235-33.1229 84.0453-32.0743Q84.3671-31.0257 85.6897-29.7519Z"/>
  </g>
  <g id="Medium-S" transform="matrix(1 0 0 1 1689.02 696)">
   <path d="M18.0449 7.01855Q20.8311 9.80469 24.0469 9.59375Q27.2627 9.38281 30.04 6.21973L66.2148-35.5811L54.0283-47.8076L12.2275-11.5928Q8.97559-8.81543 8.78906-5.61963Q8.60254-2.42383 11.3975 0.371094ZM87.3047-27.2012Q88.8164-25.7471 90.5186-25.6494Q92.2207-25.5518 93.6572-26.9971L104.995-38.3037Q106.343-39.6602 106.27-41.4023Q106.196-43.1445 104.751-44.6475L102.078-47.2979Q100.93-48.4951 99.9609-48.79Q98.9922-49.085 97.8262-48.9697L93.2676-48.4053L90.6787-50.9453L92.0117-56.165Q93.0723-60.6016 88.4395-65.2344L81.084-72.5898Q76.9434-76.6904 71.374-78.9072Q65.8047-81.124 59.7427-81.3193Q53.6807-81.5146 48.0156-79.5308Q42.3506-77.5469 38.1074-73.2861Q36.5459-71.7559 36.5933-70.084Q36.6406-68.4121 37.6035-67.2773Q38.4375-66.4004 39.6694-66.0063Q40.9014-65.6123 42.2871-66.0732Q47.6338-67.7568 52.3804-67.9365Q57.127-68.1162 61.0664-65.9131L58.3916-58.7236Q57.3623-56.0303 57.8262-54.0098Q58.29-51.9893 60.0732-50.2373L68.1904-42.0713Q69.6748-40.5869 71.3105-40.0664Q72.9463-39.5459 75.0752-40.0205L80.9355-41.1934L83.4531-38.6533L82.9736-34.1172Q82.8408-32.8398 83.1289-31.8755Q83.417-30.9111 84.6318-29.7451Z"/>
  </g>
  <g id="Regular-S" transform="matrix(1 0 0 1 1393.42 696)">
   <path d="M17.6758 6.20117Q20.3125 8.83789 23.291 8.61816Q26.2695 8.39844 28.9062 5.41992L64.8438-35.8887L53.3691-47.4121L12.0605-11.4258Q8.98438-8.78906 8.78906-5.83496Q8.59375-2.88086 11.2305-0.244141ZM85.9863-27.1484Q87.3047-25.8789 88.7695-25.7812Q90.2344-25.6836 91.5039-26.9531L102.93-38.3301Q104.102-39.502 104.028-41.0156Q103.955-42.5293 102.686-43.8477L99.9512-46.5332Q98.9258-47.6074 98.0713-47.876Q97.2168-48.1445 96.1914-48.0469L91.2109-47.4121L88.5254-50.0488L89.9902-55.6641Q91.0156-59.8633 86.5234-64.3555L79.1504-71.7285Q75.0977-75.7324 69.6777-77.9053Q64.2578-80.0781 58.3496-80.2734Q52.4414-80.4688 46.8994-78.5156Q41.3574-76.5625 37.1582-72.3633Q35.6934-70.9473 35.8154-69.4336Q35.9375-67.9199 36.8652-66.9434Q37.6465-66.2598 38.6719-65.9668Q39.6973-65.6738 40.7227-66.0645Q46.2891-67.8711 51.1719-68.042Q56.0547-68.2129 60.2051-65.8691L57.2754-57.959Q56.2988-55.3711 56.7627-53.4912Q57.2266-51.6113 58.8867-50L67.2852-41.5527Q68.5059-40.332 69.9219-39.917Q71.3379-39.502 73.291-39.9414L79.6875-41.2109L82.2754-38.5742L81.7871-33.6426Q81.6895-32.4707 81.9336-31.6162Q82.1777-30.7617 83.252-29.7363Z"/>
  </g>
  <g id="Light-S" transform="matrix(1 0 0 1 1097.48 696)">
   <path d="M17.4034 6.06486Q19.9188 8.58053 22.6476 8.38356Q25.3764 8.18659 27.9376 5.31387L64.6319-36.2216L53.581-47.3061L11.9092-10.7145Q8.96912-8.16854 8.78906-5.44904Q8.60901-2.72954 11.1244-0.213877ZM85.2598-26.5429Q86.3813-25.455 87.604-25.3952Q88.8268-25.3354 89.9447-26.4384L101.507-37.9669Q102.558-39.0175 102.507-40.2739Q102.457-41.5304 101.369-42.6519L98.5133-45.4585Q97.3666-46.6387 96.4743-46.9073Q95.5821-47.1759 94.2993-47.1085L90.227-46.6553L87.1328-49.7159L88.4008-54.9072Q89.3204-58.8946 85.4184-62.766L77.5762-70.5933Q73.584-74.5366 68.3154-76.6792Q63.0468-78.8218 57.3429-79.0323Q51.639-79.2427 46.3242-77.3955Q41.0093-75.5483 37.0069-71.5459Q35.6781-70.251 35.7396-68.8735Q35.8012-67.496 36.6231-66.5802Q37.2983-65.9419 38.2481-65.6414Q39.1978-65.3409 40.2232-65.6558Q45.7896-67.19 50.627-67.1641Q55.4644-67.1382 59.6451-64.5068L56.6699-56.9448Q55.7538-54.6143 56.1723-52.8631Q56.5908-51.1119 58.1299-49.5913L66.7099-40.9625Q67.8398-39.8476 69.0969-39.4932Q70.354-39.1388 72.1558-39.5327L78.1436-40.7115L81.1554-37.6661L80.8184-33.6123Q80.7358-32.2436 80.9724-31.3362Q81.2091-30.4288 82.4043-29.2821Z"/>
  </g>
  <g id="Thin-S" transform="matrix(1 0 0 1 801.777 696)">
   <path d="M17.0432 5.88458Q19.3982 8.24014 21.7966 8.07328Q24.1951 7.90642 26.6564 5.17362L64.3517-36.6618L53.8612-47.1658L11.7091-9.7737Q8.94894-7.34785 8.78906-4.93863Q8.62919-2.52942 10.9842-0.173852ZM84.2988-25.7421Q85.16-24.8943 86.0625-24.8846Q86.9651-24.875 87.8826-25.7576L99.6249-37.4866Q100.516-38.3767 100.495-39.293Q100.475-40.2092 99.6271-41.0704L96.6116-44.0371Q95.3044-45.3576 94.3622-45.6261Q93.42-45.8947 91.7969-45.8673L88.9257-45.6543L85.2909-49.2757L86.2986-53.9062Q87.0783-57.6134 83.957-60.6638L75.4942-69.0918Q71.582-72.9551 66.5136-75.0577Q61.4451-77.1603 56.0115-77.3907Q50.5779-77.6212 45.5633-75.9141Q40.5488-74.2069 36.8068-70.4649Q35.6579-69.33 35.6394-68.1327Q35.6209-66.9353 36.3029-66.0999Q36.8379-65.5214 37.6875-65.211Q38.5372-64.9007 39.5626-65.1153Q45.129-66.2893 49.9064-66.003Q54.6838-65.7167 58.9044-62.705L55.869-55.6034Q55.033-53.6133 55.3915-52.0323Q55.7499-50.4513 57.1289-49.0508L65.9491-40.1818Q66.9589-39.2068 68.0058-38.9327Q69.0526-38.6585 70.6543-38.9922L76.1016-40.0509L79.6741-36.465L79.5373-33.5723Q79.4745-31.9432 79.7012-30.9659Q79.9279-29.9885 81.2833-28.6814Z"/>
  </g>
  <g id="Ultralight-S" transform="matrix(1 0 0 1 505.583 696)">
   <path d="M16.8587 5.79224Q19.1315 8.0658 21.3608 7.91435Q23.5901 7.76291 26.0002 5.10178L64.2082-36.8874L54.0047-47.094L11.6066-9.29184Q8.9386-6.92749 8.78906-4.6772Q8.63953-2.42691 10.9123-0.153351ZM83.8066-25.3319Q84.5345-24.6071 85.273-24.6231Q86.0115-24.6391 86.8263-25.4089L98.661-37.2406Q99.4698-38.0486 99.4648-38.7905Q99.4598-39.5325 98.735-40.2603L95.6375-43.309Q94.2482-44.7014 93.2804-44.9699Q92.3126-45.2385 90.5151-45.2316L88.2591-45.1416L84.3475-49.0501L85.2219-53.3936Q85.9299-56.9572 83.2085-59.5871L74.4278-68.3228Q70.5566-72.1451 65.5907-74.2271Q60.6247-76.3092 55.3295-76.5499Q50.0343-76.7906 45.1736-75.1553Q40.313-73.5199 36.7043-69.9112Q35.6476-68.8583 35.5881-67.7532Q35.5286-66.6481 36.1389-65.8539Q36.602-65.3061 37.4004-64.9906Q38.1989-64.6751 39.2242-64.8384Q44.7906-65.8279 49.5373-65.4083Q54.2839-64.9887 58.5251-61.7821L55.4588-54.9164Q54.6638-53.1006 54.9915-51.6068Q55.3192-50.1129 56.6162-48.774L65.5594-39.782Q66.5077-38.8786 67.4469-38.6456Q68.3861-38.4125 69.8853-38.7154L75.0557-39.7125L78.9154-35.8498L78.8811-33.5518Q78.8284-31.7894 79.0501-30.7762Q79.2717-29.763 80.7091-28.3737Z"/>
  </g>
 </g>
</svg>
