<?xml version="1.0" encoding="UTF-8"?>
<!--Generator: Apple Native CoreSVG 175-->
<!DOCTYPE svg
PUBLIC "-//W3C//DTD SVG 1.1//EN"
       "http://www.w3.org/Graphics/SVG/1.1/DTD/svg11.dtd">
<svg version="1.1" xmlns="http://www.w3.org/2000/svg" xmlns:xlink="http://www.w3.org/1999/xlink" width="3300" height="2200">
 <!--glyph: "uni100DD5.medium", point size: 100.0, font version: "17.3d3e1", template writer version: "65.1"-->
 <g id="Notes">
  <rect height="2200" id="artboard" style="fill:white;opacity:1" width="3300" x="0" y="0"/>
  <line style="fill:none;stroke:black;opacity:1;stroke-width:0.5;" x1="263" x2="3036" y1="292" y2="292"/>
  <text style="stroke:none;fill:black;font-family:sans-serif;font-size:13;font-weight:bold;" transform="matrix(1 0 0 1 263 322)">Weight/Scale Variations</text>
  <text style="stroke:none;fill:black;font-family:sans-serif;font-size:13;text-anchor:middle;" transform="matrix(1 0 0 1 559.711 322)">Ultralight</text>
  <text style="stroke:none;fill:black;font-family:sans-serif;font-size:13;text-anchor:middle;" transform="matrix(1 0 0 1 856.422 322)">Thin</text>
  <text style="stroke:none;fill:black;font-family:sans-serif;font-size:13;text-anchor:middle;" transform="matrix(1 0 0 1 1153.13 322)">Light</text>
  <text style="stroke:none;fill:black;font-family:sans-serif;font-size:13;text-anchor:middle;" transform="matrix(1 0 0 1 1449.84 322)">Regular</text>
  <text style="stroke:none;fill:black;font-family:sans-serif;font-size:13;text-anchor:middle;" transform="matrix(1 0 0 1 1746.56 322)">Medium</text>
  <text style="stroke:none;fill:black;font-family:sans-serif;font-size:13;text-anchor:middle;" transform="matrix(1 0 0 1 2043.27 322)">Semibold</text>
  <text style="stroke:none;fill:black;font-family:sans-serif;font-size:13;text-anchor:middle;" transform="matrix(1 0 0 1 2339.98 322)">Bold</text>
  <text style="stroke:none;fill:black;font-family:sans-serif;font-size:13;text-anchor:middle;" transform="matrix(1 0 0 1 2636.69 322)">Heavy</text>
  <text style="stroke:none;fill:black;font-family:sans-serif;font-size:13;text-anchor:middle;" transform="matrix(1 0 0 1 2933.4 322)">Black</text>
  <line style="fill:none;stroke:black;opacity:1;stroke-width:0.5;" x1="263" x2="3036" y1="1903" y2="1903"/>
  <g transform="matrix(1 0 0 1 263 1933)">
   <path d="M9.24805 0.830078Q10.8691 0.830078 12.2949 0.214844Q13.7207-0.400391 14.8096-1.49414Q15.8984-2.58789 16.5186-4.01367Q17.1387-5.43945 17.1387-7.05078Q17.1387-8.66211 16.5186-10.0879Q15.8984-11.5137 14.8047-12.6074Q13.7109-13.7012 12.2852-14.3164Q10.8594-14.9316 9.23828-14.9316Q7.62695-14.9316 6.20117-14.3164Q4.77539-13.7012 3.69141-12.6074Q2.60742-11.5137 1.9873-10.0879Q1.36719-8.66211 1.36719-7.05078Q1.36719-5.43945 1.9873-4.01367Q2.60742-2.58789 3.69629-1.49414Q4.78516-0.400391 6.21094 0.214844Q7.63672 0.830078 9.24805 0.830078ZM9.24805-0.654297Q7.91992-0.654297 6.7627-1.14746Q5.60547-1.64062 4.73145-2.51953Q3.85742-3.39844 3.36426-4.56055Q2.87109-5.72266 2.87109-7.05078Q2.87109-8.37891 3.35938-9.54102Q3.84766-10.7031 4.72168-11.582Q5.5957-12.4609 6.75293-12.9541Q7.91016-13.4473 9.23828-13.4473Q10.5762-13.4473 11.7334-12.9541Q12.8906-12.4609 13.7695-11.582Q14.6484-10.7031 15.1465-9.54102Q15.6445-8.37891 15.6445-7.05078Q15.6445-5.72266 15.1514-4.56055Q14.6582-3.39844 13.7842-2.51953Q12.9102-1.64062 11.748-1.14746Q10.5859-0.654297 9.24805-0.654297ZM5.6543-7.05078Q5.6543-6.72852 5.85938-6.52832Q6.06445-6.32812 6.40625-6.32812L8.51562-6.32812L8.51562-4.20898Q8.51562-3.88672 8.71094-3.67676Q8.90625-3.4668 9.23828-3.4668Q9.56055-3.4668 9.77051-3.67676Q9.98047-3.88672 9.98047-4.20898L9.98047-6.32812L12.0898-6.32812Q12.4219-6.32812 12.627-6.52832Q12.832-6.72852 12.832-7.05078Q12.832-7.38281 12.627-7.58789Q12.4219-7.79297 12.0898-7.79297L9.98047-7.79297L9.98047-9.90234Q9.98047-10.2344 9.77051-10.4443Q9.56055-10.6543 9.23828-10.6543Q8.90625-10.6543 8.71094-10.4443Q8.51562-10.2344 8.51562-9.90234L8.51562-7.79297L6.40625-7.79297Q6.06445-7.79297 5.85938-7.58789Q5.6543-7.38281 5.6543-7.05078Z"/>
  </g>
  <g transform="matrix(1 0 0 1 281.867 1933)">
   <path d="M11.709 2.91016Q13.75 2.91016 15.5518 2.12891Q17.3535 1.34766 18.7305-0.0292969Q20.1074-1.40625 20.8887-3.20801Q21.6699-5.00977 21.6699-7.05078Q21.6699-9.0918 20.8887-10.8936Q20.1074-12.6953 18.7305-14.0723Q17.3535-15.4492 15.5469-16.2305Q13.7402-17.0117 11.6992-17.0117Q9.6582-17.0117 7.85645-16.2305Q6.05469-15.4492 4.68262-14.0723Q3.31055-12.6953 2.5293-10.8936Q1.74805-9.0918 1.74805-7.05078Q1.74805-5.00977 2.5293-3.20801Q3.31055-1.40625 4.6875-0.0292969Q6.06445 1.34766 7.86621 2.12891Q9.66797 2.91016 11.709 2.91016ZM11.709 1.25Q9.98047 1.25 8.47656 0.605469Q6.97266-0.0390625 5.83496-1.17676Q4.69727-2.31445 4.05762-3.81836Q3.41797-5.32227 3.41797-7.05078Q3.41797-8.7793 4.05762-10.2832Q4.69727-11.7871 5.83008-12.9297Q6.96289-14.0723 8.4668-14.7119Q9.9707-15.3516 11.6992-15.3516Q13.4277-15.3516 14.9316-14.7119Q16.4355-14.0723 17.5781-12.9297Q18.7207-11.7871 19.3652-10.2832Q20.0098-8.7793 20.0098-7.05078Q20.0098-5.32227 19.3701-3.81836Q18.7305-2.31445 17.5928-1.17676Q16.4551-0.0390625 14.9463 0.605469Q13.4375 1.25 11.709 1.25ZM7.17773-7.05078Q7.17773-6.69922 7.41211-6.47461Q7.64648-6.25 8.01758-6.25L10.8887-6.25L10.8887-3.36914Q10.8887-2.99805 11.1133-2.76855Q11.3379-2.53906 11.6895-2.53906Q12.0605-2.53906 12.29-2.76855Q12.5195-2.99805 12.5195-3.36914L12.5195-6.25L15.4004-6.25Q15.7715-6.25 16.001-6.47461Q16.2305-6.69922 16.2305-7.05078Q16.2305-7.42188 16.001-7.65137Q15.7715-7.88086 15.4004-7.88086L12.5195-7.88086L12.5195-10.752Q12.5195-11.1328 12.29-11.3623Q12.0605-11.5918 11.6895-11.5918Q11.3379-11.5918 11.1133-11.3574Q10.8887-11.123 10.8887-10.752L10.8887-7.88086L8.01758-7.88086Q7.63672-7.88086 7.40723-7.65137Q7.17773-7.42188 7.17773-7.05078Z"/>
  </g>
  <g transform="matrix(1 0 0 1 305.646 1933)">
   <path d="M14.9707 5.66406Q17.0605 5.66406 18.96 5.01465Q20.8594 4.36523 22.4512 3.19336Q24.043 2.02148 25.2197 0.429688Q26.3965-1.16211 27.0459-3.06641Q27.6953-4.9707 27.6953-7.05078Q27.6953-9.14062 27.0459-11.04Q26.3965-12.9395 25.2197-14.5312Q24.043-16.123 22.4512-17.2998Q20.8594-18.4766 18.9551-19.126Q17.0508-19.7754 14.9609-19.7754Q12.8711-19.7754 10.9717-19.126Q9.07227-18.4766 7.48535-17.2998Q5.89844-16.123 4.72168-14.5312Q3.54492-12.9395 2.90039-11.04Q2.25586-9.14062 2.25586-7.05078Q2.25586-4.9707 2.90527-3.06641Q3.55469-1.16211 4.72656 0.429688Q5.89844 2.02148 7.49023 3.19336Q9.08203 4.36523 10.9814 5.01465Q12.8809 5.66406 14.9707 5.66406ZM14.9707 3.84766Q13.1641 3.84766 11.5283 3.2959Q9.89258 2.74414 8.53516 1.74805Q7.17773 0.751953 6.17676-0.610352Q5.17578-1.97266 4.62891-3.6084Q4.08203-5.24414 4.08203-7.05078Q4.08203-8.86719 4.62891-10.5029Q5.17578-12.1387 6.17188-13.501Q7.16797-14.8633 8.52539-15.8594Q9.88281-16.8555 11.5186-17.4023Q13.1543-17.9492 14.9609-17.9492Q16.7773-17.9492 18.4131-17.4023Q20.0488-16.8555 21.4111-15.8594Q22.7734-14.8633 23.7695-13.501Q24.7656-12.1387 25.3174-10.5029Q25.8691-8.86719 25.8691-7.05078Q25.8789-5.24414 25.332-3.6084Q24.7852-1.97266 23.7842-0.610352Q22.7832 0.751953 21.4209 1.74805Q20.0586 2.74414 18.4229 3.2959Q16.7871 3.84766 14.9707 3.84766ZM9.19922-7.05078Q9.19922-6.66992 9.45801-6.4209Q9.7168-6.17188 10.1172-6.17188L14.0625-6.17188L14.0625-2.2168Q14.0625-1.81641 14.3115-1.55762Q14.5605-1.29883 14.9512-1.29883Q15.3516-1.29883 15.6104-1.55273Q15.8691-1.80664 15.8691-2.2168L15.8691-6.17188L19.8242-6.17188Q20.2246-6.17188 20.4785-6.4209Q20.7324-6.66992 20.7324-7.05078Q20.7324-7.46094 20.4785-7.71484Q20.2246-7.96875 19.8242-7.96875L15.8691-7.96875L15.8691-11.9141Q15.8691-12.3242 15.6104-12.583Q15.3516-12.8418 14.9512-12.8418Q14.5605-12.8418 14.3115-12.583Q14.0625-12.3242 14.0625-11.9141L14.0625-7.96875L10.1172-7.96875Q9.70703-7.96875 9.45312-7.71484Q9.19922-7.46094 9.19922-7.05078Z"/>
  </g>
  <text style="stroke:none;fill:black;font-family:sans-serif;font-size:13;font-weight:bold;" transform="matrix(1 0 0 1 263 1953)">Design Variations</text>
  <text style="stroke:none;fill:black;font-family:sans-serif;font-size:13;" transform="matrix(1 0 0 1 263 1971)">Symbols are supported in up to nine weights and three scales.</text>
  <text style="stroke:none;fill:black;font-family:sans-serif;font-size:13;" transform="matrix(1 0 0 1 263 1989)">For optimal layout with text and other symbols, vertically align</text>
  <text style="stroke:none;fill:black;font-family:sans-serif;font-size:13;" transform="matrix(1 0 0 1 263 2007)">symbols with the adjacent text.</text>
  <line style="fill:none;stroke:#00AEEF;stroke-width:0.5;opacity:1.0;" x1="776" x2="776" y1="1919" y2="1933"/>
  <g transform="matrix(1 0 0 1 776 1933)">
   <path d="M3.31055 0.15625Q3.70117 0.15625 3.91602-0.00976562Q4.13086-0.175781 4.26758-0.585938L5.52734-4.0332L11.2891-4.0332L12.5488-0.585938Q12.6855-0.175781 12.9004-0.00976562Q13.1152 0.15625 13.4961 0.15625Q13.8867 0.15625 14.1162-0.0585938Q14.3457-0.273438 14.3457-0.644531Q14.3457-0.869141 14.2383-1.17188L9.6582-13.3691Q9.48242-13.8184 9.17969-14.043Q8.87695-14.2676 8.4082-14.2676Q7.5-14.2676 7.17773-13.3789L2.59766-1.16211Q2.49023-0.859375 2.49023-0.634766Q2.49023-0.263672 2.70996-0.0537109Q2.92969 0.15625 3.31055 0.15625ZM6.00586-5.51758L8.37891-12.0898L8.42773-12.0898L10.8008-5.51758Z"/>
  </g>
  <line style="fill:none;stroke:#00AEEF;stroke-width:0.5;opacity:1.0;" x1="793.197" x2="793.197" y1="1919" y2="1933"/>
  <text style="stroke:none;fill:black;font-family:sans-serif;font-size:13;font-weight:bold;" transform="matrix(1 0 0 1 776 1953)">Margins</text>
  <text style="stroke:none;fill:black;font-family:sans-serif;font-size:13;" transform="matrix(1 0 0 1 776 1971)">Leading and trailing margins on the left and right side of each symbol</text>
  <text style="stroke:none;fill:black;font-family:sans-serif;font-size:13;" transform="matrix(1 0 0 1 776 1989)">can be adjusted by modifying the x-location of the margin guidelines.</text>
  <text style="stroke:none;fill:black;font-family:sans-serif;font-size:13;" transform="matrix(1 0 0 1 776 2007)">Modifications are automatically applied proportionally to all</text>
  <text style="stroke:none;fill:black;font-family:sans-serif;font-size:13;" transform="matrix(1 0 0 1 776 2025)">scales and weights.</text>
  <g transform="matrix(1 0 0 1 1289 1933)">
   <path d="M2.8418 1.86523L4.54102 3.57422Q5.18555 4.22852 5.90332 4.17969Q6.62109 4.13086 7.31445 3.35938L18.0078-8.42773L17.041-9.4043L6.42578 2.27539Q6.16211 2.57812 5.89355 2.61719Q5.625 2.65625 5.27344 2.30469L4.10156 1.14258Q3.75 0.791016 3.79395 0.522461Q3.83789 0.253906 4.14062-0.0195312L15.6152-10.8203L14.6387-11.7871L3.04688-0.898438Q2.30469-0.214844 2.25098 0.498047Q2.19727 1.21094 2.8418 1.86523ZM9.25781-16.3281Q8.94531-16.0254 8.90625-15.6348Q8.86719-15.2441 9.04297-14.9512Q9.21875-14.6777 9.55566-14.541Q9.89258-14.4043 10.3809-14.5215Q11.4746-14.7754 12.5977-14.7314Q13.7207-14.6875 14.7949-13.9844L14.209-12.5293Q13.9551-11.9043 14.0674-11.4404Q14.1797-10.9766 14.5801-10.5664L16.875-8.25195Q17.2363-7.88086 17.5781-7.82227Q17.9199-7.76367 18.3398-7.8418L19.4043-8.03711L20.0684-7.36328L20.0293-6.80664Q20-6.43555 20.1221-6.12305Q20.2441-5.81055 20.6055-5.44922L21.3672-4.70703Q21.7285-4.3457 22.1533-4.33105Q22.5781-4.31641 22.9297-4.66797L25.8398-7.58789Q26.1914-7.93945 26.1816-8.35449Q26.1719-8.76953 25.8105-9.13086L25.0391-9.89258Q24.6875-10.2539 24.3799-10.3857Q24.0723-10.5176 23.7109-10.4883L23.1348-10.4395L22.4902-11.0742L22.7344-12.1973Q22.832-12.6172 22.6953-12.9834Q22.5586-13.3496 22.1191-13.7891L19.9219-15.9766Q18.6719-17.2168 17.2607-17.8369Q15.8496-18.457 14.4189-18.4814Q12.9883-18.5059 11.665-17.959Q10.3418-17.4121 9.25781-16.3281ZM10.752-15.957Q11.6602-16.6211 12.7002-16.9043Q13.7402-17.1875 14.8047-17.085Q15.8691-16.9824 16.8701-16.5137Q17.8711-16.0449 18.7012-15.2051L21.1328-12.793Q21.3086-12.6172 21.3525-12.4512Q21.3965-12.2852 21.3379-12.0312L21.0156-10.5469L22.5195-9.0625L23.5059-9.12109Q23.6914-9.13086 23.7891-9.09668Q23.8867-9.0625 24.0332-8.91602L24.6094-8.33984L22.168-5.89844L21.5918-6.47461Q21.4453-6.62109 21.4062-6.71875Q21.3672-6.81641 21.377-7.01172L21.4453-7.98828L19.9512-9.47266L18.4277-9.21875Q18.1836-9.16992 18.042-9.2041Q17.9004-9.23828 17.7148-9.41406L15.7129-11.416Q15.5176-11.5918 15.4932-11.7529Q15.4688-11.9141 15.5859-12.1875L16.4648-14.2773Q15.293-15.3711 13.8281-15.791Q12.3633-16.2109 10.8398-15.7617Q10.7227-15.7324 10.6885-15.8057Q10.6543-15.8789 10.752-15.957Z"/>
  </g>
  <text style="stroke:none;fill:black;font-family:sans-serif;font-size:13;font-weight:bold;" transform="matrix(1 0 0 1 1289 1953)">Exporting</text>
  <text style="stroke:none;fill:black;font-family:sans-serif;font-size:13;" transform="matrix(1 0 0 1 1289 1971)">Symbols should be outlined when exporting to ensure the</text>
  <text style="stroke:none;fill:black;font-family:sans-serif;font-size:13;" transform="matrix(1 0 0 1 1289 1989)">design is preserved when submitting to Xcode.</text>
  <text id="template-version" style="stroke:none;fill:black;font-family:sans-serif;font-size:13;text-anchor:end;" transform="matrix(1 0 0 1 3036 1933)">Template v.3.0</text>
  <text style="stroke:none;fill:black;font-family:sans-serif;font-size:13;text-anchor:end;" transform="matrix(1 0 0 1 3036 1951)">Requires Xcode 13 or greater</text>
  <text id="descriptive-name" style="stroke:none;fill:black;font-family:sans-serif;font-size:13;text-anchor:end;" transform="matrix(1 0 0 1 3036 1969)">Generated from hammer.circle.fill</text>
  <text style="stroke:none;fill:black;font-family:sans-serif;font-size:13;text-anchor:end;" transform="matrix(1 0 0 1 3036 1987)">Typeset at 100 points</text>
  <text style="stroke:none;fill:black;font-family:sans-serif;font-size:13;" transform="matrix(1 0 0 1 263 726)">Small</text>
  <text style="stroke:none;fill:black;font-family:sans-serif;font-size:13;" transform="matrix(1 0 0 1 263 1156)">Medium</text>
  <text style="stroke:none;fill:black;font-family:sans-serif;font-size:13;" transform="matrix(1 0 0 1 263 1586)">Large</text>
 </g>
 <g id="Guides">
  <g id="H-reference" style="fill:#27AAE1;stroke:none;" transform="matrix(1 0 0 1 339 696)">
   <path d="M0.993347 0L3.6377 0L29.3282-67.1326L30.0301-67.1326L30.0301-70.459L28.1227-70.459ZM11.6882-24.4797L46.9818-24.4797L46.2311-26.7288L12.4382-26.7288ZM55.1193 0L57.7637 0L30.6381-70.459L29.4327-70.459L29.4327-67.1326Z"/>
  </g>
  <line id="Baseline-S" style="fill:none;stroke:#27AAE1;opacity:1;stroke-width:0.5;" x1="263" x2="3036" y1="696" y2="696"/>
  <line id="Capline-S" style="fill:none;stroke:#27AAE1;opacity:1;stroke-width:0.5;" x1="263" x2="3036" y1="625.541" y2="625.541"/>
  <g id="H-reference" style="fill:#27AAE1;stroke:none;" transform="matrix(1 0 0 1 339 1126)">
   <path d="M0.993347 0L3.6377 0L29.3282-67.1326L30.0301-67.1326L30.0301-70.459L28.1227-70.459ZM11.6882-24.4797L46.9818-24.4797L46.2311-26.7288L12.4382-26.7288ZM55.1193 0L57.7637 0L30.6381-70.459L29.4327-70.459L29.4327-67.1326Z"/>
  </g>
  <line id="Baseline-M" style="fill:none;stroke:#27AAE1;opacity:1;stroke-width:0.5;" x1="263" x2="3036" y1="1126" y2="1126"/>
  <line id="Capline-M" style="fill:none;stroke:#27AAE1;opacity:1;stroke-width:0.5;" x1="263" x2="3036" y1="1055.54" y2="1055.54"/>
  <g id="H-reference" style="fill:#27AAE1;stroke:none;" transform="matrix(1 0 0 1 339 1556)">
   <path d="M0.993347 0L3.6377 0L29.3282-67.1326L30.0301-67.1326L30.0301-70.459L28.1227-70.459ZM11.6882-24.4797L46.9818-24.4797L46.2311-26.7288L12.4382-26.7288ZM55.1193 0L57.7637 0L30.6381-70.459L29.4327-70.459L29.4327-67.1326Z"/>
  </g>
  <line id="Baseline-L" style="fill:none;stroke:#27AAE1;opacity:1;stroke-width:0.5;" x1="263" x2="3036" y1="1556" y2="1556"/>
  <line id="Capline-L" style="fill:none;stroke:#27AAE1;opacity:1;stroke-width:0.5;" x1="263" x2="3036" y1="1485.54" y2="1485.54"/>
  <line id="left-margin-Regular-M" style="fill:none;stroke:#00AEEF;stroke-width:0.5;opacity:1.0;" x1="1391.32" x2="1391.32" y1="1030.79" y2="1150.12"/>
  <line id="right-margin-Regular-M" style="fill:none;stroke:#00AEEF;stroke-width:0.5;opacity:1.0;" x1="1508.37" x2="1508.37" y1="1030.79" y2="1150.12"/>
 </g>
 <g id="Symbols">
  <g id="Black-L" transform="matrix(1 0 0 1 2854.19 1556)">
   <path d="M79.1953 32.8057Q93.2356 32.8057 105.521 27.5107Q117.806 22.2158 127.174 12.8375Q136.542 3.45916 141.848-8.82607Q147.154-21.1113 147.154-35.1309Q147.154-49.1504 141.848-61.4357Q136.542-73.7209 127.164-83.0992Q117.785-92.4775 105.5-97.7725Q93.2149-103.067 79.1746-103.067Q65.1563-103.067 52.8704-97.7725Q40.5846-92.4775 31.2276-83.0992Q21.8707-73.7209 16.5647-61.4357Q11.2588-49.1504 11.2588-35.1309Q11.2588-21.1113 16.5647-8.82607Q21.8707 3.45916 31.238 12.8375Q40.6053 22.2158 52.8912 27.5107Q65.177 32.8057 79.1953 32.8057ZM51.8787-3.68074L46.5321-8.97021Q44.1467-11.3569 44.3166-14.231Q44.4865-17.105 47.1937-19.4917L78.8899-46.5741L89.4149-36.0152L62.3418-4.30208Q59.9965-1.55857 57.1304-1.39837Q54.2642-1.23818 51.8787-3.68074ZM105.201-30.8345L103.329-32.6048Q102.205-33.7074 101.877-34.6778Q101.549-35.6481 101.767-36.8168L102.046-39.3298L100.303-40.9791L97.0678-40.3828Q93.4123-39.5888 90.1479-42.7558L84.7104-48.2323Q81.6516-51.352 83.4081-55.6314L84.7368-59.4754Q82.3639-60.8576 79.0952-60.7155Q75.8265-60.5734 72.285-59.5619Q70.6047-59.0456 69.245-59.5503Q67.8854-60.0551 67.1875-61.0827Q66.4455-62.2788 66.5429-63.8414Q66.6403-65.404 67.9802-66.7647Q72.3279-71.1707 78.6232-72.4185Q84.9185-73.6662 91.2157-72.0326Q97.5129-70.3991 101.804-66.0513L107.302-60.6705Q111.004-57.0697 110.104-53.2249L109.411-50.1466L111.117-48.4803L113.591-48.7228Q114.821-48.8226 115.759-48.571Q116.698-48.3194 117.784-47.1376L119.734-45.2662Q121.203-43.7769 121.242-42.004Q121.282-40.2312 119.833-38.8417L111.648-30.6179Q110.274-29.2077 108.512-29.2862Q106.749-29.3647 105.201-30.8345Z"/>
  </g>
  <g id="Heavy-L" transform="matrix(1 0 0 1 2558.42 1556)">
   <path d="M78.2511 31.8476Q92.088 31.8476 104.202 26.6268Q116.316 21.406 125.559 12.1482Q134.802 2.89032 140.04-9.2236Q145.279-21.3375 145.279-35.1447Q145.279-48.9518 140.04-61.0657Q134.802-73.1796 125.544-82.4375Q116.286-91.6953 104.172-96.9161Q92.0582-102.137 78.2213-102.137Q64.4202-102.137 52.3033-96.9161Q40.1863-91.6953 30.9613-82.4375Q21.7362-73.1796 16.4975-61.0657Q11.2588-48.9518 11.2588-35.1447Q11.2588-21.3375 16.4975-9.2236Q21.7362 2.89032 30.9761 12.1482Q40.2161 21.406 52.333 26.6268Q64.45 31.8476 78.2511 31.8476ZM50.3703-3.02524L45.0151-8.34182Q42.6624-10.7005 42.8321-13.4562Q43.0018-16.2119 45.6761-18.5706L78.1946-46.5265L88.5614-36.1629L60.5544-3.63281Q58.2553-0.949643 55.4891-0.791821Q52.7229-0.633999 50.3703-3.02524ZM105.043-30.4933L103.032-32.3885Q101.944-33.446 101.639-34.3752Q101.334-35.3044 101.534-36.4693L101.816-39.2448L99.8876-41.126L96.1811-40.4198Q92.6468-39.6905 89.7326-42.5391L83.8298-48.4628Q80.8552-51.4941 82.5375-55.6747L84.1562-60.1743Q81.4981-61.7603 77.9974-61.6536Q74.4968-61.5468 70.6472-60.445Q69.1737-59.9658 67.9293-60.4108Q66.6849-60.8559 66.015-61.7638Q65.2735-62.8952 65.3391-64.363Q65.4046-65.8308 66.7118-67.1678Q71.1317-71.6323 77.4831-72.8981Q83.8345-74.164 90.195-72.4914Q96.5554-70.8188 100.91-66.4255L106.697-60.7343Q110.368-57.1733 109.478-53.4122L108.679-49.9683L110.599-48.102L113.354-48.3759Q114.575-48.48 115.457-48.2239Q116.338-47.9677 117.411-46.8359L119.491-44.8305Q120.848-43.4433 120.885-41.8256Q120.922-40.2079 119.589-38.9249L110.985-30.2999Q109.681-28.9871 108.078-29.0585Q106.475-29.1299 105.043-30.4933Z"/>
  </g>
  <g id="Bold-L" transform="matrix(1 0 0 1 2262.89 1556)">
   <path d="M77.0653 30.6464Q90.6516 30.6464 102.549 25.52Q114.447 20.3937 123.533 11.2893Q132.619 2.1849 137.771-9.71291Q142.923-21.6107 142.923-35.1601Q142.923-48.7094 137.771-60.6072Q132.619-72.5051 123.515-81.6094Q114.41-90.7138 102.512-95.8402Q90.6146-100.967 77.0283-100.967Q63.4932-100.967 51.5882-95.8402Q39.6833-90.7138 30.623-81.6094Q21.5627-72.5051 16.4108-60.6072Q11.2588-48.7094 11.2588-35.1601Q11.2588-21.6107 16.4108-9.71291Q21.5627 2.1849 30.6415 11.2893Q39.7203 20.3937 51.6252 25.52Q63.5301 30.6464 77.0653 30.6464ZM48.5706-2.32076L43.2173-7.65903Q40.9129-9.97773 41.078-12.5795Q41.2431-15.1812 43.8692-17.4999L77.388-46.5279L87.5404-36.426L58.3823-2.91291Q56.1376-0.308764 53.5063-0.155037Q50.8751-0.00131032 48.5706-2.32076ZM104.745-30.0886L102.562-32.1408Q101.503-33.1622 101.225-34.0497Q100.947-34.9372 101.123-36.1122L101.396-39.1065L99.2218-41.2874L95.0194-40.467Q91.6523-39.8157 89.1501-42.2823L82.7038-48.735Q79.8491-51.6474 81.437-55.6742L83.3886-60.8783Q80.4058-62.724 76.6471-62.6741Q72.8884-62.6243 68.6914-61.4502Q67.4492-61.0181 66.3409-61.3979Q65.2326-61.7777 64.6027-62.5458Q63.8704-63.5992 63.9061-64.9494Q63.9417-66.2996 65.2007-67.5957Q69.6785-72.1026 76.0682-73.3829Q82.4579-74.6632 88.869-72.9485Q95.28-71.2337 99.7037-66.7951L105.861-60.7107Q109.437-57.2519 108.572-53.6015L107.677-49.7862L109.873-47.65L112.861-47.9446Q114.093-48.0478 114.918-47.7881Q115.743-47.5283 116.809-46.4408L119.045-44.2711Q120.261-43.0183 120.294-41.5972Q120.327-40.1761 119.134-39.0265L110.041-29.927Q108.833-28.7404 107.43-28.7995Q106.027-28.8586 104.745-30.0886Z"/>
  </g>
  <g id="Semibold-L" transform="matrix(1 0 0 1 1966.99 1556)">
   <path d="M76.2478 29.8183Q89.6614 29.8183 101.41 24.757Q113.159 19.6958 122.137 10.6972Q131.114 1.6986 136.206-10.0502Q141.299-21.7991 141.299-35.1707Q141.299-48.5423 136.206-60.2912Q131.114-72.04 122.116-81.0386Q113.117-90.0372 101.368-95.0984Q89.6194-100.16 76.2058-100.16Q62.854-100.16 51.0953-95.0984Q39.3365-90.0372 30.3898-81.0386Q21.4432-72.04 16.351-60.2912Q11.2588-48.5423 11.2588-35.1707Q11.2588-21.7991 16.351-10.0502Q21.4432 1.6986 30.4108 10.6972Q39.3785 19.6958 51.1372 24.757Q62.896 29.8183 76.2478 29.8183ZM47.3299-1.8351L41.978-7.18832Q39.7067-9.47945 39.8687-11.9751Q40.0306-14.4707 42.6235-16.7618L76.8319-46.5289L86.8365-36.6073L56.8848-2.41661Q54.6776 0.133054 52.1394 0.283958Q49.6011 0.434861 47.3299-1.8351ZM104.54-29.8095L102.237-31.9701Q101.199-32.9665 100.94-33.8253Q100.681-34.6841 100.84-35.8661L101.106-39.0112L98.7627-41.3987L94.2186-40.4996Q90.9667-39.9021 88.7485-42.1052L81.9275-48.9227Q79.1555-51.753 80.6783-55.6739L82.8595-61.3636Q79.6527-63.3884 75.7161-63.3777Q71.7796-63.367 67.3431-62.1431Q66.2603-61.7436 65.2459-62.0784Q64.2314-62.4132 63.6291-63.0849Q62.9031-64.0845 62.9181-65.3537Q62.9332-66.6229 64.159-67.8906Q68.6766-72.4268 75.0928-73.7171Q81.5089-75.0073 87.9548-73.2635Q94.4008-71.5198 98.872-67.0499L105.284-60.6945Q108.795-57.3061 107.948-53.7321L106.986-49.6606L109.372-47.3385L112.521-47.6473Q113.761-47.7498 114.547-47.4876Q115.333-47.2254 116.395-46.1684L118.738-43.8854Q119.857-42.7254 119.887-41.4398Q119.917-40.1541 118.821-39.0966L109.391-29.6699Q108.248-28.5703 106.983-28.621Q105.719-28.6716 104.54-29.8095Z"/>
  </g>
  <g id="Medium-L" transform="matrix(1 0 0 1 1670.9 1556)">
   <path d="M75.6279 29.1904Q88.9106 29.1904 100.546 24.1785Q112.182 19.1666 121.078 10.2482Q129.973 1.32986 135.02-10.306Q140.067-21.9419 140.067-35.1788Q140.067-48.4156 135.02-60.0515Q129.973-71.6874 121.055-80.6058Q112.137-89.5241 100.501-94.536Q88.8648-99.5479 75.5822-99.5479Q62.3695-99.5479 50.7215-94.536Q39.0736-89.5241 30.213-80.6058Q21.3525-71.6874 16.3056-60.0515Q11.2588-48.4156 11.2588-35.1788Q11.2588-21.9419 16.3056-10.306Q21.3525 1.32986 30.2359 10.2482Q39.1193 19.1666 50.7673 24.1785Q62.4152 29.1904 75.6279 29.1904ZM46.3891-1.46685L41.0382-6.8314Q38.7921-9.10163 38.9517-11.5168Q39.1113-13.9319 41.679-16.2022L76.4102-46.5296L86.3027-36.7448L55.7494-2.0403Q53.5707 0.468059 51.1029 0.616822Q48.6352 0.765585 46.3891-1.46685ZM104.385-29.5979L101.992-31.8406Q100.968-32.8182 100.723-33.6552Q100.478-34.4922 100.626-35.6794L100.886-38.9389L98.4147-41.4831L93.6113-40.5243Q90.4468-39.9676 88.444-41.971L81.3389-49.065Q78.6296-51.8331 80.103-55.6736L82.4583-61.7316Q79.0817-63.8922 75.0103-63.9112Q70.9388-63.9302 66.3208-62.6685Q65.3589-62.2937 64.4156-62.5944Q63.4723-62.895 62.8909-63.4937Q62.1696-64.4525 62.1691-65.6602Q62.1685-66.8679 63.3691-68.1143Q67.917-72.6727 74.3531-73.9705Q80.7893-75.2683 87.2617-73.5025Q93.7341-71.7366 98.2413-67.2431L104.847-60.6821Q108.309-57.3471 107.475-53.8311L106.462-49.5654L108.993-47.1022L112.263-47.4219Q113.509-47.5239 114.266-47.2598Q115.022-46.9956 116.081-45.9618L118.506-43.593Q119.55-42.5032 119.578-41.3204Q119.606-40.1375 118.584-39.1498L108.898-29.4749Q107.805-28.4414 106.645-28.4856Q105.485-28.5298 104.385-29.5979Z"/>
  </g>
  <g id="Regular-L" transform="matrix(1 0 0 1 1374.99 1556)">
   <path d="M74.8194 28.3714Q87.9312 28.3714 99.4198 23.4239Q110.908 18.4764 119.697 9.66263Q128.485 0.848896 133.473-10.6396Q138.46-22.1282 138.46-35.1893Q138.46-48.2504 133.473-59.7389Q128.485-71.2275 119.671-80.0412Q110.858-88.8549 99.3691-93.8024Q87.8805-98.7499 74.7687-98.7499Q61.7374-98.7499 50.234-93.8024Q38.7306-88.8549 29.9824-80.0412Q21.2342-71.2275 16.2465-59.7389Q11.2588-48.2504 11.2588-35.1893Q11.2588-22.1282 16.2465-10.6396Q21.2342 0.848896 30.0077 9.66263Q38.7813 18.4764 50.2847 23.4239Q61.7881 28.3714 74.8194 28.3714ZM45.1621-0.986522L39.8125-6.36586Q37.5992-8.60882 37.7557-10.919Q37.9121-13.2292 40.447-15.4722L75.8603-46.5306L85.6066-36.9242L54.2684-1.54946Q52.1268 0.905022 49.751 1.05099Q47.3753 1.19696 45.1621-0.986522ZM104.181-29.322L101.671-31.6717Q100.667-32.6246 100.441-33.4332Q100.215-34.2418 100.346-35.436L100.599-38.8446L97.9607-41.5931L92.8193-40.5565Q89.7687-40.053 88.0468-41.7959L80.5711-49.2506Q77.9437-51.9376 79.3527-55.6733L81.9349-62.2116Q78.337-64.5493 74.0896-64.6071Q69.8422-64.6649 64.9873-63.3538Q64.1831-63.0112 63.3326-63.2674Q62.4821-63.5235 61.9279-64.0269Q61.213-64.9325 61.192-66.0601Q61.1711-67.1876 62.3388-68.4061Q66.9261-72.9933 73.3884-74.301Q79.8507-75.6087 86.3576-73.8141Q92.8645-72.0195 97.4187-67.4951L104.277-60.6661Q107.674-57.4007 106.858-53.9602L105.779-49.4412L108.498-46.794L111.927-47.1279Q113.181-47.2292 113.899-46.9626Q114.616-46.696 115.671-45.6925L118.202-43.2116Q119.15-42.2135 119.175-41.1647Q119.2-40.1158 118.274-39.2191L108.254-29.2206Q107.227-28.2732 106.203-28.309Q105.18-28.3448 104.181-29.322Z"/>
  </g>
  <g id="Light-L" transform="matrix(1 0 0 1 1079.2 1556)">
   <path d="M73.8959 27.4479Q86.8436 27.4479 98.1577 22.5825Q109.472 17.717 118.137 9.03671Q126.802 0.356369 131.708-10.9577Q136.614-22.2718 136.614-35.1893Q136.614-48.1067 131.708-59.4208Q126.802-70.7349 118.122-79.4153Q109.442-88.0956 98.1275-92.961Q86.8134-97.8264 73.8658-97.8264Q60.9986-97.8264 49.6594-92.961Q38.3201-88.0956 29.6951-79.4153Q21.07-70.7349 16.1644-59.4208Q11.2588-48.1067 11.2588-35.1893Q11.2588-22.2718 16.1644-10.9577Q21.07 0.356369 29.7102 9.03671Q38.3503 17.717 49.6895 22.5825Q61.0287 27.4479 73.8959 27.4479ZM44.3617-1.19174L39.0942-6.50951Q36.9631-8.69091 37.0887-10.8472Q37.2144-13.0035 39.6672-15.1849L75.6551-46.9205L85.1346-37.6219L53.0371-1.75468Q50.916 0.617715 48.7044 0.753424Q46.4928 0.889134 44.3617-1.19174ZM103.32-29.1578L100.686-31.6307Q99.6002-32.6862 99.384-33.5256Q99.1679-34.365 99.2785-35.6617L99.4293-38.5368L96.5241-41.5726L91.6085-40.5975Q88.7837-40.1351 87.2054-41.6933L79.5656-49.3532Q77.1228-51.8965 78.4497-55.3245L81.0935-61.6575Q77.4545-64.2209 73.2174-64.4018Q68.9803-64.5828 64.1048-63.477Q63.3006-63.1754 62.5014-63.4418Q61.7023-63.7082 61.2097-64.1706Q60.5563-65.0351 60.5764-66.0806Q60.5965-67.126 61.6821-68.2419Q66.1053-72.665 72.3931-73.9316Q78.6809-75.1982 85.0442-73.4139Q91.4074-71.6296 95.9411-67.1462L103.149-59.9888Q106.114-57.1339 105.4-53.8166L104.466-49.5643L107.451-46.5888L110.306-46.82Q111.703-46.8804 112.472-46.624Q113.241-46.3677 114.357-45.282L116.971-42.6985Q117.795-41.8441 117.81-40.9594Q117.825-40.0748 116.981-39.2806L106.818-29.0975Q105.913-28.2732 105.044-28.2782Q104.174-28.2832 103.32-29.1578Z"/>
  </g>
  <g id="Thin-L" transform="matrix(1 0 0 1 783.716 1556)">
   <path d="M72.6746 26.2265Q85.405 26.2265 96.4884 21.4696Q107.572 16.7128 116.074 8.20888Q124.577-0.295038 129.374-11.3784Q134.171-22.4618 134.171-35.1893Q134.171-47.9168 129.374-59.0001Q124.577-70.0835 116.073-78.5874Q107.569-87.0914 96.4854-91.8482Q85.402-96.605 72.6715-96.605Q60.0215-96.605 48.8994-91.8482Q37.7773-87.0914 29.3151-78.5874Q20.8529-70.0835 16.0558-59.0001Q11.2588-47.9168 11.2588-35.1893Q11.2588-22.4618 16.0558-11.3784Q20.8529-0.295038 29.3166 8.20888Q37.7803 16.7128 48.9024 21.4696Q60.0245 26.2265 72.6746 26.2265ZM43.3032-1.46316L38.1442-6.69951Q36.1217-8.79948 36.2066-10.7522Q36.2916-12.7049 38.6358-14.8049L75.3836-47.4362L84.5103-38.5447L51.4085-2.0261Q49.3146 0.237727 47.3202 0.359866Q45.3257 0.482004 43.3032-1.46316ZM102.18-28.9407L99.383-31.5764Q98.1888-32.7676 97.9862-33.6477Q97.7837-34.5278 97.8671-35.9603L97.8822-38.1297L94.6242-41.5455L90.0071-40.6518Q87.4809-40.2437 86.0926-41.5575L78.2356-49.4889Q76.0371-51.8422 77.2555-54.863L79.9807-60.9247Q76.2874-63.7866 72.0639-64.1304Q67.8403-64.4742 62.9377-63.6398Q62.1335-63.3925 61.4022-63.6725Q60.6709-63.9525 60.2597-64.3606Q59.6877-65.1708 59.7621-66.1077Q59.8365-67.0446 60.8136-68.0247Q65.0196-72.2307 71.0767-73.4431Q77.1339-74.6554 83.3071-72.8846Q89.4803-71.1139 93.9869-66.6848L101.656-59.0932Q104.051-56.781 103.473-53.6266L102.729-49.7272L106.067-46.3174L108.162-46.4129Q109.749-46.4189 110.586-46.1762Q111.423-45.9334 112.62-44.7392L115.342-42.02Q116.004-41.3555 116.005-40.688Q116.007-40.0205 115.271-39.3621L104.918-28.9346Q104.176-28.2732 103.51-28.2375Q102.844-28.2018 102.18-28.9407Z"/>
  </g>
  <g id="Ultralight-L" transform="matrix(1 0 0 1 487.631 1556)">
   <path d="M72.049 25.6009Q84.6682 25.6009 95.6335 20.8997Q106.599 16.1984 115.018 7.78487Q123.437-0.628686 128.178-11.5939Q132.92-22.5591 132.92-35.1893Q132.92-47.8194 128.178-58.7847Q123.437-69.7499 115.023-78.1634Q106.61-86.577 95.6443-91.2782Q84.6791-95.9795 72.0598-95.9795Q59.521-95.9795 48.5101-91.2782Q37.4993-86.577 29.1205-78.1634Q20.7417-69.7499 16.0002-58.7847Q11.2588-47.8194 11.2588-35.1893Q11.2588-22.5591 16.0002-11.5939Q20.7417-0.628686 29.115 7.78487Q37.4884 16.1984 48.4992 20.8997Q59.5101 25.6009 72.049 25.6009ZM42.761-1.60218L37.6577-6.79682Q35.6907-8.85509 35.7548-10.7035Q35.8189-12.552 38.1075-14.6102L75.2446-47.7003L84.1906-39.0174L50.5744-2.16512Q48.4944 0.0430995 46.6112 0.158287Q44.728 0.273475 42.761-1.60218ZM101.596-28.8295L98.7157-31.5486Q97.4659-32.8093 97.2703-33.7103Q97.0747-34.6112 97.1442-36.1132L97.0898-37.9211L93.6511-41.5316L89.1869-40.6796Q86.8136-40.2993 85.5226-41.488L77.5544-49.5585Q75.481-51.8144 76.6438-54.6267L79.4107-60.5494Q75.6896-63.5642 71.473-63.9914Q67.2564-64.4186 62.3399-63.7232Q61.5357-63.5038 60.8392-63.7907Q60.1426-64.0776 59.7731-64.4579Q59.2429-65.2403 59.345-66.1216Q59.4472-67.0029 60.3687-67.9135Q64.4635-72.0083 70.4025-73.1928Q76.3414-74.3774 82.4174-72.6136Q88.4933-70.8498 92.9859-66.4484L100.891-58.6344Q102.995-56.6003 102.486-53.5293L101.839-49.8106L105.358-46.1784L107.064-46.2044Q108.748-46.1826 109.62-45.9468Q110.491-45.711 111.73-44.4611L114.508-41.6724Q115.086-41.1053 115.081-40.549Q115.075-39.9927 114.395-39.4038L103.945-28.8512Q103.286-28.2732 102.725-28.2166Q102.163-28.1601 101.596-28.8295Z"/>
  </g>
  <g id="Black-M" transform="matrix(1 0 0 1 2871.36 1126)">
   <path d="M62.0423 18.1784Q73.0725 18.1784 82.714 14.0236Q92.3555 9.86885 99.704 2.51762Q107.052-4.83361 111.21-14.4751Q115.367-24.1166 115.367-35.1412Q115.367-46.1659 111.21-55.8074Q107.052-65.4489 99.7012-72.8001Q92.35-80.1513 82.7085-84.3061Q73.067-88.4609 62.0368-88.4609Q51.0119-88.4609 41.3705-84.3061Q31.7292-80.1513 24.3833-72.8001Q17.0375-65.4489 12.8801-55.8074Q8.72266-46.1659 8.72266-35.1412Q8.72266-24.1166 12.8801-14.4751Q17.0375-4.83361 24.3861 2.51762Q31.7347 9.86885 41.376 14.0236Q51.0174 18.1784 62.0423 18.1784ZM41.3806-11.3785L37.2569-15.4448Q35.3917-17.3097 35.5194-19.6171Q35.6471-21.9246 37.7614-23.7894L61.6891-44.1123L69.9431-35.8058L49.6681-11.8717Q47.8143-9.70547 45.53-9.58071Q43.2458-9.45595 41.3806-11.3785ZM81.5229-32.0956L80.1747-33.3763Q79.2622-34.2833 78.9895-35.0746Q78.7168-35.8658 78.8988-36.7885L79.0976-38.4375L77.8709-39.555L75.8005-39.1956Q72.8949-38.5305 70.0842-41.2328L66.2492-45.1191Q63.8322-47.5926 65.2456-50.9512L66.0342-53.3382Q64.4354-54.2644 62.1037-54.1406Q59.772-54.0167 57.2902-53.3386Q55.8107-52.9122 54.6652-53.3559Q53.5197-53.7996 52.9633-54.6931Q52.3964-55.6698 52.5048-56.9508Q52.6131-58.2317 53.6683-59.2924Q56.9523-62.6335 61.7576-63.5791Q66.563-64.5247 71.3679-63.294Q76.1728-62.0632 79.439-58.7396L83.4994-54.7931Q86.3356-52.0248 85.6435-48.9908L85.2154-46.9563L86.3903-45.7928L87.988-45.9398Q88.9672-46.0079 89.7503-45.8182Q90.5335-45.6285 91.3944-44.6589L92.8056-43.3104Q94.0222-42.0882 94.0535-40.6036Q94.0848-39.1189 92.874-37.9649L86.8736-31.9133Q85.766-30.7537 84.2841-30.8164Q82.8022-30.8792 81.5229-32.0956Z"/>
  </g>
  <g id="Heavy-M" transform="matrix(1 0 0 1 2575.48 1126)">
   <path d="M61.2045 17.3271Q72.0509 17.3271 81.541 13.2372Q91.0312 9.14728 98.2688 1.90151Q105.506-5.34426 109.606-14.8344Q113.705-24.3245 113.705-35.1547Q113.705-45.985 109.606-55.4751Q105.506-64.9652 98.2607-72.2109Q91.0149-79.4567 81.5248-83.5466Q72.0347-87.6365 61.1882-87.6365Q50.3604-87.6365 40.8691-83.5466Q31.3778-79.4567 24.1495-72.2109Q16.9211-64.9652 12.8219-55.4751Q8.72266-45.985 8.72266-35.1547Q8.72266-24.3245 12.8219-14.8344Q16.9211-5.34426 24.1576 1.90151Q31.394 9.14728 40.8853 13.2372Q50.3767 17.3271 61.2045 17.3271ZM39.9798-10.7188L35.8401-14.8173Q33.9994-16.6604 34.1297-18.8664Q34.26-21.0724 36.3499-22.9155L61.0283-44.0298L69.1523-35.8858L48.0344-11.1985Q46.2238-9.0837 44.0221-8.96031Q41.8205-8.83693 39.9798-10.7188ZM81.4479-31.7771L79.9754-33.1687Q79.1057-34.0221 78.8546-34.7703Q78.6035-35.5185 78.7693-36.428L78.9813-38.3828L77.5976-39.7004L75.0454-39.2281Q72.2374-38.6224 69.7559-41.0304L65.4812-45.335Q63.1294-47.7353 64.4779-51.0257L65.5442-54.0725Q63.6703-55.1771 61.111-55.0765Q58.5516-54.9759 55.7706-54.1905Q54.4932-53.7966 53.4557-54.1811Q52.4181-54.5655 51.8834-55.3457Q51.3113-56.263 51.3847-57.4588Q51.4582-58.6547 52.4889-59.7016Q55.8587-63.115 60.735-64.0821Q65.6113-65.0491 70.4912-63.7793Q75.3712-62.5096 78.702-59.1376L83.0113-54.918Q85.8571-52.1507 85.1653-49.1872L84.6218-46.7707L85.9806-45.4419L87.9056-45.629Q88.8635-45.7051 89.5862-45.5101Q90.3088-45.3151 91.1511-44.4018L92.681-42.9317Q93.8004-41.7962 93.8303-40.4481Q93.8602-39.1 92.7547-38.0405L86.3578-31.6138Q85.307-30.5381 83.9671-30.5967Q82.6271-30.6554 81.4479-31.7771Z"/>
  </g>
  <g id="Bold-M" transform="matrix(1 0 0 1 2279.69 1126)">
   <path d="M60.2672 16.3747Q70.9082 16.3747 80.2289 12.3574Q89.5497 8.34011 96.6634 1.21231Q103.777-5.9155 107.811-15.2363Q111.845-24.557 111.845-35.1698Q111.845-45.7825 107.811-55.1033Q103.777-64.4241 96.6493-71.5519Q89.5215-78.6797 80.2007-82.697Q70.8799-86.7143 60.2389-86.7143Q49.6317-86.7143 40.3082-82.697Q30.9846-78.6797 23.8878-71.5519Q16.791-64.4241 12.7568-55.1033Q8.72266-45.7825 8.72266-35.1698Q8.72266-24.557 12.7568-15.2363Q16.791-5.9155 23.902 1.21231Q31.0129 8.34011 40.3364 12.3574Q49.6599 16.3747 60.2672 16.3747ZM38.4128-9.98079L34.2553-14.1153Q32.442-15.9341 32.5752-18.0266Q32.7084-20.1191 34.7709-21.9379L60.2891-43.9375L68.2676-35.9753L46.2069-10.4455Q44.4445-8.38816 42.3353-8.26631Q40.2261-8.14446 38.4128-9.98079ZM81.3639-31.4209L79.7524-32.9364Q78.9307-33.7298 78.7038-34.4299Q78.4768-35.13 78.6244-36.0247L78.8513-38.3216L77.2919-39.8632L74.2007-39.2644Q71.5019-38.7251 69.3886-40.804L64.622-45.5764Q62.3431-47.8949 63.619-51.1091L64.9961-54.8938Q62.8146-56.1981 60.0005-56.1235Q57.1864-56.0489 54.0707-55.1435Q53.0194-54.7859 52.1026-55.1041Q51.1858-55.4222 50.6754-56.0757Q50.0974-56.9265 50.1318-58.0272Q50.1662-59.1278 51.1695-60.1594Q54.6353-63.6537 59.5909-64.6447Q64.5466-65.6357 69.5106-64.3223Q74.4746-63.0088 77.8777-59.5827L82.4654-55.0576Q85.3219-52.2916 84.6304-49.4068L83.9577-46.563L85.5222-45.0494L87.8134-45.2814Q88.7476-45.3664 89.4026-45.1654Q90.0576-44.9644 90.8789-44.1142L92.5417-42.5081Q93.5522-41.4695 93.5805-40.2741Q93.6089-39.0787 92.6212-38.1251L85.7808-31.2788Q84.7937-30.2969 83.6124-30.3509Q82.4312-30.405 81.3639-31.4209Z"/>
  </g>
  <g id="Semibold-M" transform="matrix(1 0 0 1 1983.62 1126)">
   <path d="M59.621 15.7182Q70.1203 15.7182 79.3244 11.7509Q88.5284 7.78365 95.5566 0.737173Q102.585-6.30931 106.574-15.5133Q110.564-24.7174 110.564-35.1802Q110.564-45.643 106.574-54.847Q102.585-64.0511 95.5384-71.0975Q88.4919-78.144 79.2879-82.1113Q70.0838-86.0785 59.5845-86.0785Q49.1293-86.0785 39.9215-82.1113Q30.7136-78.144 23.7075-71.0975Q16.7013-64.0511 12.712-54.847Q8.72266-45.643 8.72266-35.1802Q8.72266-24.7174 12.712-15.5133Q16.7013-6.30931 23.7257 0.737173Q30.7501 7.78365 39.958 11.7509Q49.1658 15.7182 59.621 15.7182ZM37.3326-9.47202L33.1627-13.6314Q31.3683-15.4334 31.5035-17.4477Q31.6387-19.4619 33.6824-21.264L59.7795-43.8739L67.6577-36.037L44.947-9.92631Q43.2179-7.90866 41.1725-7.78787Q39.127-7.66708 37.3326-9.47202ZM81.3061-31.1753L79.5986-32.7763Q78.8101-33.5283 78.5998-34.1952Q78.3894-34.8621 78.5246-35.7466L78.7616-38.2794L77.0811-39.9754L73.6184-39.2894Q70.9949-38.7959 69.1354-40.6479L64.0297-45.7429Q61.8011-48.005 63.0269-51.1666L64.6182-55.4601Q62.2246-56.902 59.2349-56.8453Q56.2453-56.7886 52.8988-55.8005Q52.0034-55.4679 51.1698-55.7404Q50.3363-56.0128 49.8426-56.5789Q49.2606-57.3839 49.2681-58.419Q49.2755-59.454 50.26-60.475Q53.7919-64.025 58.8023-65.0326Q63.8127-66.0402 68.8345-64.6966Q73.8564-63.3531 77.3093-59.8896L82.089-55.1539Q84.9529-52.3887 84.2617-49.5583L83.4998-46.4199L85.2063-44.7788L87.7498-45.0418Q88.6677-45.133 89.276-44.9278Q89.8843-44.7226 90.6912-43.9159L92.4457-42.2161Q93.381-41.2443 93.4084-40.1542Q93.4357-39.0641 92.5292-38.1834L85.3829-31.0478Q84.4397-30.1306 83.3679-30.1815Q82.2961-30.2323 81.3061-31.1753Z"/>
  </g>
  <g id="Medium-M" transform="matrix(1 0 0 1 1687.4 1126)">
   <path d="M59.1311 15.2203Q69.523 15.2203 78.6385 11.291Q87.754 7.36172 94.7174 0.376908Q101.681-6.60791 105.636-15.7234Q109.591-24.8389 109.591-35.1881Q109.591-45.5372 105.636-54.6527Q101.681-63.7682 94.696-70.753Q87.7112-77.7378 78.5957-81.6672Q69.4802-85.5965 59.0883-85.5965Q48.7484-85.5965 39.6283-81.6672Q30.5081-77.7378 23.5707-70.753Q16.6333-63.7682 12.678-54.6527Q8.72266-45.5372 8.72266-35.1881Q8.72266-24.8389 12.678-15.7234Q16.6333-6.60791 23.5921 0.376908Q30.5509 7.36172 39.671 11.291Q48.7912 15.2203 59.1311 15.2203ZM36.5134-9.08626L32.3343-13.2644Q30.5541-15.0538 30.6909-17.0087Q30.8276-18.9636 32.857-20.7529L59.3931-43.8257L67.1952-36.0838L43.9917-9.53267Q42.2879-7.54508 40.2907-7.42509Q38.2936-7.30511 36.5134-9.08626ZM81.2622-30.9891L79.4821-32.6549Q78.7186-33.3756 78.5209-34.0173Q78.3232-34.6591 78.4488-35.5358L78.6936-38.2474L76.9213-40.0604L73.1769-39.3084Q70.6104-38.8496 68.9435-40.5296L63.5806-45.8691Q61.3901-48.0885 62.578-51.2101L64.3316-55.8894Q61.7773-57.4357 58.6545-57.3926Q55.5317-57.3495 52.0102-56.2987Q51.233-55.9851 50.4626-56.2229Q49.6921-56.4607 49.2111-56.9605Q48.6261-57.7308 48.6131-58.716Q48.6001-59.7013 49.5703-60.7142Q53.1524-64.3066 58.2043-65.3267Q63.2562-66.3468 68.3219-64.9804Q73.3877-63.614 76.8784-60.1223L81.8035-55.2269Q84.6732-52.4624 83.982-49.6731L83.1527-46.3113L84.9667-44.5736L87.7016-44.8601Q88.6071-44.9559 89.18-44.7476Q89.753-44.5393 90.5489-43.7656L92.3729-41.9947Q93.2513-41.0735 93.2778-40.0633Q93.3044-39.053 92.4594-38.2276L85.0813-30.8727Q84.1714-30.0046 83.1825-30.053Q82.1937-30.1014 81.2622-30.9891Z"/>
  </g>
  <g id="Regular-M" transform="matrix(1 0 0 1 1391.32 1126)">
   <path d="M58.492 14.571Q68.7438 14.571 77.7439 10.6912Q86.7439 6.81138 93.6228-0.093004Q100.502-6.99738 104.413-15.9974Q108.324-24.9975 108.324-35.1983Q108.324-45.3992 104.413-54.3992Q100.502-63.3993 93.5973-70.3037Q86.693-77.2081 77.6929-81.0879Q68.6929-84.9677 58.441-84.9677Q48.2515-84.9677 39.2458-81.0879Q30.2401-77.2081 23.3923-70.3037Q16.5446-63.3993 12.6336-54.3992Q8.72266-45.3992 8.72266-35.1983Q8.72266-24.9975 12.6336-15.9974Q16.5446-6.99738 23.4178-0.093004Q30.291 6.81138 39.2968 10.6912Q48.3025 14.571 58.492 14.571ZM35.445-8.58308L31.2537-12.7858Q29.4922-14.5586 29.631-16.4361Q29.7697-18.3136 31.7804-20.0864L58.8891-43.7627L66.592-36.1448L42.7456-9.01921Q41.0748-7.07085 39.1406-6.95191Q37.2065-6.83297 35.445-8.58308ZM81.2049-30.7462L79.33-32.4965Q78.5993-33.1763 78.4181-33.7852Q78.2368-34.3941 78.3501-35.2608L78.6049-38.2057L76.7129-40.1714L72.6009-39.3331Q70.1089-38.9197 68.693-40.3752L62.9949-46.0338Q60.854-48.1973 61.9924-51.267L63.9579-56.4494Q61.1938-58.1319 57.8973-58.1065Q54.6008-58.0811 50.8512-56.9484Q50.2282-56.6596 49.54-56.8522Q48.8519-57.0448 48.3875-57.4582Q47.7985-58.1832 47.7589-59.1035Q47.7192-60.0239 48.6707-61.0263Q52.3183-64.6738 57.4243-65.7103Q62.5303-66.7468 67.6533-65.3506Q72.7763-63.9545 76.3163-60.4258L81.4313-55.3222Q84.3083-52.5585 83.6173-49.8228L82.6999-46.1697L84.6542-44.306L87.6387-44.6231Q88.5281-44.725 89.0549-44.5126Q89.5817-44.3002 90.3634-43.5695L92.2779-41.7059Q93.0821-40.8508 93.1075-39.9447Q93.133-39.0385 92.3684-38.2853L84.6879-30.6443Q83.8214-29.8401 82.9407-29.8854Q82.0601-29.9307 81.2049-30.7462Z"/>
  </g>
  <g id="Light-M" transform="matrix(1 0 0 1 1095.44 1126)">
   <path d="M57.664 13.743Q67.7687 13.743 76.6123 9.93683Q85.456 6.13061 92.2245-0.654174Q98.993-7.43896 102.83-16.2826Q106.668-25.1263 106.668-35.1983Q106.668-45.2704 102.83-54.1141Q98.993-62.9577 92.2082-69.7425Q85.4234-76.5273 76.5798-80.3335Q67.7361-84.1397 57.6315-84.1397Q47.5892-84.1397 38.7306-80.3335Q29.8721-76.5273 23.1348-69.7425Q16.3974-62.9577 12.56-54.1141Q8.72266-45.2704 8.72266-35.1983Q8.72266-25.1263 12.56-16.2826Q16.3974-7.43896 23.151-0.654174Q29.9047 6.13061 38.7632 9.93683Q47.6217 13.743 57.664 13.743ZM34.7275-8.76707L30.6097-12.9146Q28.9219-14.6322 29.033-16.3717Q29.1442-18.1112 31.0812-19.8288L58.7051-44.1123L66.1688-36.7704L41.6417-9.2032Q39.9892-7.32843 38.2023-7.21869Q36.4153-7.10896 34.7275-8.76707ZM80.4322-30.5991L78.4469-32.4597Q77.6426-33.2315 77.4705-33.868Q77.2985-34.5045 77.3933-35.4632L77.5561-37.9297L75.4249-40.153L71.5154-39.3699Q69.2258-38.9933 67.9387-40.2832L62.0933-46.1258Q60.118-48.1605 61.1829-50.9542L63.2035-55.9527Q60.4026-57.8375 57.1154-57.9225Q53.8281-58.0075 50.0601-57.0588Q49.437-56.8068 48.7949-57.0086Q48.1527-57.2104 47.7435-57.587Q47.2097-58.2752 47.2069-59.1219Q47.2041-59.9687 48.082-60.8791Q51.5823-64.3795 56.5319-65.3792Q61.4815-66.3788 66.4758-64.9919Q71.47-63.6049 74.9916-60.113L80.4193-54.715Q82.9099-52.3193 82.311-49.694L81.5223-46.2801L83.7159-44.122L86.1852-44.3471Q87.2033-44.4122 87.7761-44.209Q88.3489-44.0058 89.1858-43.2015L91.1739-41.2459Q91.8677-40.5196 91.884-39.7607Q91.9003-39.0017 91.2093-38.3405L83.3999-30.5339Q82.6438-29.8401 81.9012-29.8578Q81.1585-29.8755 80.4322-30.5991Z"/>
  </g>
  <g id="Thin-M" transform="matrix(1 0 0 1 799.828 1126)">
   <path d="M56.569 12.648Q66.479 12.648 75.1158 8.93913Q83.7526 5.23025 90.3751-1.39637Q96.9976-8.02298 100.738-16.6598Q104.478-25.2966 104.478-35.1983Q104.478-45.1001 100.738-53.7369Q96.9976-62.3737 90.371-69.0003Q83.7444-75.6269 75.1076-79.3358Q66.4707-83.0447 56.5608-83.0447Q46.7131-83.0447 38.0493-79.3358Q29.3854-75.6269 22.7941-69.0003Q16.2027-62.3737 12.4627-53.7369Q8.72266-45.1001 8.72266-35.1983Q8.72266-25.2966 12.4627-16.6598Q16.2027-8.02298 22.7982-1.39637Q29.3936 5.23025 38.0575 8.93913Q46.7214 12.648 56.569 12.648ZM33.7784-9.01041L29.758-13.0849Q28.1675-14.7295 28.2422-16.2865Q28.3168-17.8435 30.1565-19.4881L58.4618-44.5747L65.6091-37.5977L40.1817-9.44655Q38.5535-7.66911 36.9612-7.57154Q35.369-7.47397 33.7784-9.01041ZM79.4101-30.4044L77.2788-32.4111Q76.3772-33.3045 76.2173-33.9775Q76.0574-34.6505 76.128-35.7309L76.1691-37.5647L73.7215-40.1286L70.0797-39.4186Q68.0577-39.0906 66.941-40.1615L60.9009-46.2474Q59.1447-48.1119 60.1121-50.5405L62.2058-55.2956Q59.3563-57.4481 56.0812-57.6791Q52.806-57.9102 49.0137-57.2048Q48.3906-57.0015 47.8093-57.2154Q47.228-57.4294 46.8918-57.7574Q46.431-58.3969 46.4769-59.1463Q46.5227-59.8957 47.3033-60.6845Q50.6089-63.9901 55.3517-64.9411Q60.0945-65.8922 64.9184-64.5173Q69.7423-63.1425 73.2396-59.6993L79.081-53.912Q81.0605-52.0029 80.5833-49.5237L79.965-46.4261L82.4748-43.8786L84.2628-43.9821Q85.4513-43.9985 86.0849-43.8075Q86.7185-43.6165 87.6284-42.7148L89.7139-40.6376Q90.2617-40.0816 90.2658-39.5173Q90.2699-38.9531 89.6763-38.4135L81.6965-30.3879Q81.0864-29.8401 80.5263-29.8213Q79.9662-29.8025 79.4101-30.4044Z"/>
  </g>
  <g id="Ultralight-M" transform="matrix(1 0 0 1 503.679 1126)">
   <path d="M56.0081 12.0871Q65.8184 12.0871 74.3492 8.42811Q82.8801 4.76909 89.4278-1.77651Q95.9756-8.32211 99.6657-16.853Q103.356-25.3839 103.356-35.1983Q103.356-45.0128 99.6657-53.5437Q95.9756-62.0746 89.43-68.6202Q82.8844-75.1658 74.3535-78.8248Q65.8226-82.4838 56.0124-82.4838Q46.2644-82.4838 37.7003-78.8248Q29.1361-75.1658 22.6196-68.6202Q16.103-62.0746 12.4128-53.5437Q8.72266-45.0128 8.72266-35.1983Q8.72266-25.3839 12.4128-16.853Q16.103-8.32211 22.6175-1.77651Q29.1319 4.76909 37.6961 8.42811Q46.2602 12.0871 56.0081 12.0871ZM33.2924-9.13505L29.3218-13.1721Q27.7811-14.7794 27.8371-16.2429Q27.893-17.7064 29.6829-19.3136L58.3371-44.8115L65.3225-38.0215L39.4338-9.57118Q37.8181-7.8436 36.3256-7.75227Q34.833-7.66093 33.2924-9.13505ZM78.8867-30.3047L76.6806-32.3862Q75.7291-33.3419 75.5754-34.0336Q75.4218-34.7253 75.4798-35.868L75.4587-37.3777L72.8491-40.1162L69.3443-39.4435Q67.4595-39.1405 66.43-40.0992L60.2902-46.3098Q58.6461-48.0869 59.5637-50.3286L61.6948-54.9591Q58.8203-57.2487 55.5514-57.5545Q52.2826-57.8603 48.4777-57.2796Q47.8547-57.1012 47.3045-57.3214Q46.7544-57.5416 46.4556-57.8446Q46.0322-58.4592 46.1029-59.1587Q46.1737-59.8583 46.9044-60.5848Q50.1104-63.7907 54.7472-64.7168Q59.384-65.6429 64.1207-64.2743Q68.8573-62.9057 72.3422-59.4874L78.3954-53.5007Q80.1133-51.8409 79.6983-49.4364L79.1673-46.5009L81.8392-43.754L83.2781-43.7951Q84.5539-43.7867 85.2187-43.6019Q85.8835-43.4171 86.8307-42.4655L88.9661-40.326Q89.4391-39.8572 89.4369-39.3927Q89.4348-38.9281 88.891-38.4509L80.8241-30.3131Q80.2888-29.8401 79.8221-29.8026Q79.3554-29.7651 78.8867-30.3047Z"/>
  </g>
  <g id="Black-S" transform="matrix(1 0 0 1 2884.57 696)">
   <path d="M48.8281 6.83594Q57.5195 6.83594 65.1123 3.56445Q72.7051 0.292969 78.4912-5.49316Q84.2773-11.2793 87.5488-18.8721Q90.8203-26.4648 90.8203-35.1562Q90.8203-43.8477 87.5488-51.4404Q84.2773-59.0332 78.4912-64.8193Q72.7051-70.6055 65.1123-73.877Q57.5195-77.1484 48.8281-77.1484Q40.1367-77.1484 32.5439-73.877Q24.9512-70.6055 19.165-64.8193Q13.3789-59.0332 10.1074-51.4404Q6.83594-43.8477 6.83594-35.1562Q6.83594-26.4648 10.1074-18.8721Q13.3789-11.2793 19.165-5.49316Q24.9512 0.292969 32.5439 3.56445Q40.1367 6.83594 48.8281 6.83594ZM32.8125-16.748L29.5898-19.9219Q28.125-21.3867 28.2227-23.2178Q28.3203-25.0488 29.9805-26.5137L48.5352-42.2363L55.0293-35.6934L39.3555-17.1387Q37.8906-15.4297 36.084-15.332Q34.2773-15.2344 32.8125-16.748ZM63.8672-32.8613L62.8418-33.8379Q62.1094-34.5703 61.8896-35.2051Q61.6699-35.8398 61.8164-36.5723L61.9629-37.7441L61.0352-38.5742L59.5703-38.3301Q57.2754-37.793 54.9805-39.9902L52.0996-42.9199Q50.1953-44.873 51.3184-47.5098L51.8555-49.1699Q50.6836-49.8535 48.9258-49.7559Q47.168-49.6582 45.3125-49.1699Q44.0918-48.8281 43.1641-49.1943Q42.2363-49.5605 41.7969-50.293Q41.3574-51.0742 41.4551-52.0996Q41.5527-53.125 42.3828-53.9551Q44.9219-56.543 48.6572-57.2754Q52.3926-58.0078 56.1279-57.0557Q59.8633-56.1035 62.4023-53.5156L65.5273-50.4883Q67.7246-48.3398 67.1875-45.9473L66.8945-44.4824L67.7734-43.6035L68.8965-43.7012Q69.6777-43.75 70.3125-43.6035Q70.9473-43.457 71.6309-42.6758L72.7051-41.6504Q73.6816-40.6738 73.7061-39.4775Q73.7305-38.2812 72.7539-37.3535L68.1641-32.7148Q67.2852-31.7871 66.0889-31.8359Q64.8926-31.8848 63.8672-32.8613Z"/>
  </g>
  <g id="Heavy-S" transform="matrix(1 0 0 1 2588.47 696)">
   <path d="M48.2173 6.21362Q56.7704 6.21362 64.2537 2.98823Q71.737-0.237157 77.4425-5.94838Q83.1479-11.6596 86.3791-19.1429Q89.6102-26.6262 89.6102-35.1678Q89.6102-43.7094 86.3791-51.1927Q83.1479-58.6759 77.4367-64.3872Q71.7255-70.0984 64.2422-73.3238Q56.7589-76.5492 48.2058-76.5492Q39.6642-76.5492 32.1809-73.3238Q24.6976-70.0984 18.9979-64.3872Q13.2982-58.6759 10.0671-51.1927Q6.83594-43.7094 6.83594-35.1678Q6.83594-26.6262 10.0671-19.1429Q13.2982-11.6596 19.0037-5.94838Q24.7092-0.237157 32.1924 2.98823Q39.6757 6.21362 48.2173 6.21362ZM31.7062-16.1603L28.4604-19.3687Q27.0071-20.822 27.1105-22.5839Q27.214-24.3458 28.8626-25.7992L47.9935-42.1211L54.407-35.6818L38.0993-16.5394Q36.669-14.865 34.9143-14.7673Q33.1595-14.6697 31.7062-16.1603ZM63.9018-32.6078L62.7842-33.665Q62.0979-34.3398 61.8954-34.9343Q61.693-35.5287 61.8279-36.2381L61.9975-37.7326L60.966-38.701L59.0632-38.3531Q56.8259-37.8621 54.7961-39.8289L51.558-43.0928Q49.6882-44.9998 50.7652-47.6135L51.5328-49.8614Q50.1304-50.6718 48.1767-50.5799Q46.223-50.488 44.114-49.8844Q43.0661-49.5657 42.2248-49.88Q41.3835-50.1944 40.9556-50.8346Q40.5046-51.5698 40.5677-52.5318Q40.6308-53.4938 41.4493-54.3239Q44.0806-56.9924 47.8966-57.7479Q51.7126-58.5034 55.5287-57.5166Q59.3447-56.5299 61.9414-53.8959L65.2392-50.6727Q67.4941-48.4781 66.9455-46.1317L66.5373-44.3096L67.5429-43.3269L69.0117-43.4707Q69.7584-43.531 70.3355-43.3788Q70.9127-43.2265 71.5732-42.5029L72.7397-41.3853Q73.6471-40.4664 73.6715-39.3681Q73.6959-38.2697 72.8-37.4111L67.8875-32.4728Q67.0431-31.6027 65.9506-31.6515Q64.858-31.7004 63.9018-32.6078Z"/>
  </g>
  <g id="Bold-S" transform="matrix(1 0 0 1 2292.43 696)">
   <path d="M47.5342 5.51758Q55.9326 5.51758 63.2935 2.34375Q70.6543-0.830078 76.2695-6.45752Q81.8848-12.085 85.0708-19.4458Q88.2568-26.8066 88.2568-35.1807Q88.2568-43.5547 85.0708-50.9155Q81.8848-58.2764 76.2573-63.9038Q70.6299-69.5312 63.269-72.7051Q55.9082-75.8789 47.5098-75.8789Q39.1357-75.8789 31.7749-72.7051Q24.4141-69.5312 18.811-63.9038Q13.208-58.2764 10.022-50.9155Q6.83594-43.5547 6.83594-35.1807Q6.83594-26.8066 10.022-19.4458Q13.208-12.085 18.8232-6.45752Q24.4385-0.830078 31.7993 2.34375Q39.1602 5.51758 47.5342 5.51758ZM30.4688-15.5029L27.1973-18.75Q25.7568-20.1904 25.8667-21.875Q25.9766-23.5596 27.6123-25L47.3877-41.9922L53.7109-35.6689L36.6943-15.8691Q35.3027-14.2334 33.606-14.1357Q31.9092-14.0381 30.4688-15.5029ZM63.9404-32.3242L62.7197-33.4717Q62.085-34.082 61.9019-34.6313Q61.7188-35.1807 61.8408-35.8643L62.0361-37.7197L60.8887-38.8428L58.4961-38.3789Q56.3232-37.9395 54.5898-39.6484L50.9521-43.2861Q49.1211-45.1416 50.1465-47.7295L51.1719-50.6348Q49.5117-51.5869 47.3389-51.5015Q45.166-51.416 42.7734-50.6836Q41.9189-50.3906 41.1743-50.647Q40.4297-50.9033 40.0146-51.4404Q39.5508-52.124 39.5752-53.0151Q39.5996-53.9062 40.4053-54.7363Q43.1396-57.4951 47.0459-58.2764Q50.9521-59.0576 54.8584-58.0322Q58.7646-57.0068 61.4258-54.3213L64.917-50.8789Q67.2363-48.6328 66.6748-46.3379L66.1377-44.1162L67.2852-43.0176L69.1406-43.2129Q69.8486-43.2861 70.3613-43.1274Q70.874-42.9688 71.5088-42.3096L72.7783-41.0889Q73.6084-40.2344 73.6328-39.2456Q73.6572-38.2568 72.8516-37.4756L67.5781-32.2021Q66.7725-31.3965 65.7959-31.4453Q64.8193-31.4941 63.9404-32.3242Z"/>
  </g>
  <g id="Semibold-S" transform="matrix(1 0 0 1 1996.19 696)">
   <path d="M47.0632 5.0377Q55.355 5.0377 62.6314 1.89941Q69.9078-1.23887 75.4608-6.80854Q81.0139-12.3782 84.1688-19.6546Q87.3237-26.9311 87.3237-35.1896Q87.3237-43.448 84.1688-50.7245Q81.0139-58.0009 75.4442-63.5706Q69.8745-69.1402 62.5981-72.2785Q55.3217-75.4168 47.0299-75.4168Q38.7714-75.4168 31.495-72.2785Q24.2186-69.1402 18.6822-63.5706Q13.1458-58.0009 9.99087-50.7245Q6.83594-43.448 6.83594-35.1896Q6.83594-26.9311 9.99087-19.6546Q13.1458-12.3782 18.6988-6.80854Q24.2519-1.23887 31.5283 1.89941Q38.8047 5.0377 47.0632 5.0377ZM29.6156-15.0497L26.3264-18.3234Q24.8948-19.755 25.0091-21.3862Q25.1234-23.0175 26.7503-24.449L46.97-41.9033L53.2311-35.6601L35.7257-15.407Q34.3607-13.7979 32.704-13.7003Q31.0472-13.6026 29.6156-15.0497ZM63.9671-32.1287L62.6753-33.3384Q62.0761-33.9043 61.9063-34.4225Q61.7365-34.9407 61.8497-35.6065L62.0628-37.7108L60.8354-38.9405L58.1051-38.3967Q55.9767-37.9928 54.4477-39.524L50.5345-43.4194Q48.7301-45.2394 49.7199-47.8095L50.923-51.168Q49.0852-52.2179 46.7612-52.1369Q44.4373-52.0559 41.8492-51.2346Q41.128-50.9594 40.45-51.1757Q39.7721-51.3921 39.3659-51.8581Q38.8932-52.5062 38.8909-53.3484Q38.8887-54.1906 39.6854-55.0207Q42.4909-57.8417 46.4594-58.6407Q50.4278-59.4397 54.3963-58.3877Q58.3647-57.3356 61.0703-54.6146L64.6948-51.0211Q67.0586-48.7395 66.4882-46.4801L65.8622-43.9829L67.1074-42.8043L69.2295-43.0352Q69.9108-43.1173 70.3791-42.9542Q70.8474-42.791 71.4644-42.1763L72.805-40.8845Q73.5817-40.0744 73.6062-39.1612Q73.6306-38.2479 72.8871-37.52L67.3648-32.0155Q66.5858-31.2543 65.6893-31.3031Q64.7927-31.352 63.9671-32.1287Z"/>
  </g>
  <g id="Medium-S" transform="matrix(1 0 0 1 1699.83 696)">
   <path d="M46.7061 4.67383Q54.917 4.67383 62.1294 1.5625Q69.3418-1.54883 74.8477-7.07471Q80.3535-12.6006 83.4849-19.813Q86.6162-27.0254 86.6162-35.1963Q86.6162-43.3672 83.4849-50.5796Q80.3535-57.792 74.8276-63.3179Q69.3018-68.8438 62.0894-71.9551Q54.877-75.0664 46.666-75.0664Q38.4951-75.0664 31.2827-71.9551Q24.0703-68.8438 18.5845-63.3179Q13.0986-57.792 9.96729-50.5796Q6.83594-43.3672 6.83594-35.1963Q6.83594-27.0254 9.96729-19.813Q13.0986-12.6006 18.6045-7.07471Q24.1104-1.54883 31.3228 1.5625Q38.5352 4.67383 46.7061 4.67383ZM28.9688-14.7061L25.666-18Q24.2412-19.4248 24.3589-21.0156Q24.4766-22.6064 26.0967-24.0312L46.6533-41.8359L52.8672-35.6533L34.9912-15.0566Q33.6465-13.4678 32.02-13.3701Q30.3936-13.2725 28.9688-14.7061ZM63.9873-31.9805L62.6416-33.2373Q62.0693-33.7695 61.9097-34.2642Q61.75-34.7588 61.8564-35.4111L62.083-37.7041L60.7949-39.0146L57.8086-38.4102Q55.7139-38.0332 54.3398-39.4297L50.2178-43.5205Q48.4336-45.3135 49.3965-47.8701L50.7344-51.5723Q48.7617-52.6963 46.3232-52.6187Q43.8848-52.541 41.1484-51.6523Q40.5283-51.3906 39.9009-51.5767Q39.2734-51.7627 38.874-52.1748Q38.3945-52.7959 38.3721-53.6011Q38.3496-54.4062 39.1396-55.2363Q41.999-58.1045 46.0146-58.917Q50.0303-59.7295 54.0459-58.6572Q58.0615-57.585 60.8008-54.8369L64.5264-51.1289Q66.9238-48.8203 66.3467-46.5879L65.6533-43.8818L66.9727-42.6426L69.2969-42.9004Q69.958-42.9893 70.3926-42.8228Q70.8271-42.6562 71.4307-42.0752L72.8252-40.7295Q73.5615-39.9531 73.5859-39.0972Q73.6104-38.2412 72.9141-37.5537L67.2031-31.874Q66.4443-31.1465 65.6084-31.1953Q64.7725-31.2441 63.9873-31.9805Z"/>
  </g>
  <g id="Regular-S" transform="matrix(1 0 0 1 1403.58 696)">
   <path d="M46.2402 4.19922Q54.3457 4.19922 61.4746 1.12305Q68.6035-1.95312 74.0479-7.42188Q79.4922-12.8906 82.5928-20.0195Q85.6934-27.1484 85.6934-35.2051Q85.6934-43.2617 82.5928-50.3906Q79.4922-57.5195 74.0234-62.9883Q68.5547-68.457 61.4258-71.5332Q54.2969-74.6094 46.1914-74.6094Q38.1348-74.6094 31.0059-71.5332Q23.877-68.457 18.457-62.9883Q13.0371-57.5195 9.93652-50.3906Q6.83594-43.2617 6.83594-35.2051Q6.83594-27.1484 9.93652-20.0195Q13.0371-12.8906 18.4814-7.42188Q23.9258-1.95312 31.0547 1.12305Q38.1836 4.19922 46.2402 4.19922ZM28.125-14.2578L24.8047-17.5781Q23.3887-18.9941 23.5107-20.5322Q23.6328-22.0703 25.2441-23.4863L46.2402-41.748L52.3926-35.6445L34.0332-14.5996Q32.7148-13.0371 31.1279-12.9395Q29.541-12.8418 28.125-14.2578ZM64.0137-31.7871L62.5977-33.1055Q62.0605-33.5938 61.9141-34.0576Q61.7676-34.5215 61.8652-35.1562L62.1094-37.6953L60.7422-39.1113L57.4219-38.4277Q55.3711-38.0859 54.1992-39.3066L49.8047-43.6523Q48.0469-45.4102 48.9746-47.9492L50.4883-52.0996Q48.3398-53.3203 45.752-53.2471Q43.1641-53.1738 40.2344-52.1973Q39.7461-51.9531 39.1846-52.0996Q38.623-52.2461 38.2324-52.5879Q37.7441-53.1738 37.6953-53.9307Q37.6465-54.6875 38.4277-55.5176Q41.3574-58.4473 45.4346-59.2773Q49.5117-60.1074 53.5889-59.0088Q57.666-57.9102 60.4492-55.127L64.3066-51.2695Q66.748-48.9258 66.1621-46.7285L65.3809-43.75L66.7969-42.4316L69.3848-42.7246Q70.0195-42.8223 70.4102-42.6514Q70.8008-42.4805 71.3867-41.9434L72.8516-40.5273Q73.5352-39.7949 73.5596-39.0137Q73.584-38.2324 72.9492-37.5977L66.9922-31.6895Q66.2598-31.0059 65.5029-31.0547Q64.7461-31.1035 64.0137-31.7871Z"/>
  </g>
  <g id="Light-S" transform="matrix(1 0 0 1 1107.6 696)">
   <path d="M45.5078 3.4668Q53.4831 3.4668 60.4736 0.455729Q67.4642-2.55534 72.8109-7.91829Q78.1576-13.2812 81.193-20.2718Q84.2285-27.2624 84.2285-35.2051Q84.2285-43.1478 81.193-50.1383Q78.1576-57.1289 72.7946-62.4919Q67.4316-67.8548 60.4411-70.8659Q53.4505-73.877 45.4753-73.877Q37.5488-73.877 30.5501-70.8659Q23.5514-67.8548 18.2292-62.4919Q12.9069-57.1289 9.87142-50.1383Q6.83594-43.1478 6.83594-35.2051Q6.83594-27.2624 9.87142-20.2718Q12.9069-13.2812 18.2454-7.91829Q23.584-2.55534 30.5827 0.455729Q37.5814 3.4668 45.5078 3.4668ZM27.4902-14.4206L24.235-17.6921Q22.8841-19.0592 22.9818-20.4753Q23.0794-21.8913 24.6257-23.2585L46.0775-42.0573L52.0182-36.1979L33.0566-14.7624Q31.7546-13.265 30.2979-13.1755Q28.8411-13.0859 27.4902-14.4206ZM63.3301-31.6569L61.8164-33.0729Q61.2142-33.6426 61.0758-34.1309Q60.9375-34.6191 61.0189-35.3353L61.1816-37.4512L59.6029-39.0951L56.4616-38.4603Q54.5898-38.151 53.5319-39.2253L49.0072-43.7337Q47.3958-45.3776 48.2585-47.6725L49.821-51.6602Q47.64-53.0599 45.0602-53.0843Q42.4805-53.1087 39.5345-52.2949Q39.0462-52.0833 38.5254-52.238Q38.0046-52.3926 37.6628-52.7018Q37.2233-53.2552 37.207-53.9469Q37.1908-54.6387 37.9069-55.3874Q40.7064-58.1868 44.6452-58.9844Q48.584-59.7819 52.5472-58.6914Q56.5104-57.6009 59.2773-54.8503L63.4115-50.7324Q65.5111-48.7142 65.0065-46.6146L64.3392-43.8477L65.9668-42.2689L68.099-42.4805Q68.8477-42.5456 69.279-42.3828Q69.7103-42.2201 70.3451-41.6178L71.875-40.1204Q72.4609-39.502 72.4772-38.8509Q72.4935-38.1999 71.9238-37.6465L65.8529-31.5918Q65.2181-31.0059 64.5833-31.0303Q63.9486-31.0547 63.3301-31.6569Z"/>
  </g>
  <g id="Thin-S" transform="matrix(1 0 0 1 811.863 696)">
   <path d="M44.5391 2.49811Q52.3422 2.49811 59.1498-0.426852Q65.9573-3.35181 71.1749-8.57485Q76.3924-13.7979 79.3418-20.6055Q82.2911-27.4131 82.2911-35.2051Q82.2911-42.9971 79.3418-49.8047Q76.3924-56.6123 71.1694-61.8353Q65.9463-67.0583 59.1387-69.9833Q52.3311-72.9083 44.5281-72.9083Q36.7739-72.9083 29.9474-69.9833Q23.1209-67.0583 17.9278-61.8353Q12.7347-56.6123 9.78531-49.8047Q6.83594-42.9971 6.83594-35.2051Q6.83594-27.4131 9.78531-20.6055Q12.7347-13.7979 17.9333-8.57485Q23.1319-3.35181 29.9584-0.426852Q36.7849 2.49811 44.5391 2.49811ZM26.6507-14.6358L23.4816-17.8427Q22.2168-19.1454 22.2822-20.3999Q22.3475-21.6545 23.8076-22.9571L45.8622-42.4663L51.5231-36.9298L31.7651-14.9776Q30.4845-13.5663 29.2-13.4876Q27.9155-13.4088 26.6507-14.6358ZM62.426-31.4847L60.7831-33.0299Q60.0948-33.7072 59.9672-34.2277Q59.8397-34.7483 59.8995-35.5721L59.9546-37.1283L58.096-39.0735L55.1915-38.5033Q53.5566-38.2371 52.6493-39.1176L47.9524-43.8414Q46.5348-45.3346 47.3113-47.3066L48.9384-51.0789Q46.7143-52.7155 44.1454-52.869Q41.5764-53.0226 38.6089-52.4241Q38.1206-52.2555 37.6536-52.4209Q37.1866-52.5863 36.9093-52.8525Q36.5345-53.3628 36.5612-53.9685Q36.588-54.5741 37.2181-55.2152Q39.8453-57.8424 43.6012-58.5969Q47.357-59.3514 51.1695-58.2716Q54.982-57.1919 57.7274-54.4843L62.2275-50.0221Q63.8751-48.4343 63.4781-46.4639L62.9615-43.9768L64.869-42.0536L66.3984-42.1576Q67.2978-42.1796 67.7829-42.0276Q68.268-41.8756 68.9674-41.1873L70.5834-39.5823Q71.0402-39.1145 71.0457-38.6356Q71.0512-38.1568 70.5677-37.7111L64.346-31.4626Q63.8404-31.0059 63.3671-30.998Q62.8938-30.9901 62.426-31.4847Z"/>
  </g>
  <g id="Ultralight-S" transform="matrix(1 0 0 1 515.649 696)">
   <path d="M44.043 2.00195Q51.7578 2.00195 58.4717-0.878906Q65.1855-3.75977 70.3369-8.91113Q75.4883-14.0625 78.3936-20.7764Q81.2988-27.4902 81.2988-35.2051Q81.2988-42.9199 78.3936-49.6338Q75.4883-56.3477 70.3369-61.499Q65.1855-66.6504 58.4717-69.5312Q51.7578-72.4121 44.043-72.4121Q36.377-72.4121 29.6387-69.5312Q22.9004-66.6504 17.7734-61.499Q12.6465-56.3477 9.74121-49.6338Q6.83594-42.9199 6.83594-35.2051Q6.83594-27.4902 9.74121-20.7764Q12.6465-14.0625 17.7734-8.91113Q22.9004-3.75977 29.6387-0.878906Q36.377 2.00195 44.043 2.00195ZM26.2207-14.7461L23.0957-17.9199Q21.875-19.1895 21.9238-20.3613Q21.9727-21.5332 23.3887-22.8027L45.752-42.6758L51.2695-37.3047L31.1035-15.0879Q29.834-13.7207 28.6377-13.6475Q27.4414-13.5742 26.2207-14.7461ZM61.9629-31.3965L60.2539-33.0078Q59.5215-33.7402 59.3994-34.2773Q59.2773-34.8145 59.3262-35.6934L59.3262-36.9629L57.3242-39.0625L54.541-38.5254Q53.0273-38.2812 52.1973-39.0625L47.4121-43.8965Q46.0938-45.3125 46.8262-47.1191L48.4863-50.7812Q46.2402-52.5391 43.6768-52.7588Q41.1133-52.9785 38.1348-52.4902Q37.6465-52.3438 37.207-52.5146Q36.7676-52.6855 36.5234-52.9297Q36.1816-53.418 36.2305-53.9795Q36.2793-54.541 36.8652-55.127Q39.4043-57.666 43.0664-58.3984Q46.7285-59.1309 50.4639-58.0566Q54.1992-56.9824 56.9336-54.2969L61.6211-49.6582Q63.0371-48.291 62.6953-46.3867L62.2559-44.043L64.3066-41.9434L65.5273-41.9922Q66.5039-41.9922 67.0166-41.8457Q67.5293-41.6992 68.2617-40.9668L69.9219-39.3066Q70.3125-38.916 70.3125-38.5254Q70.3125-38.1348 69.873-37.7441L63.5742-31.3965Q63.1348-31.0059 62.7441-30.9814Q62.3535-30.957 61.9629-31.3965Z"/>
  </g>
 </g>
</svg>
