<?xml version="1.0" encoding="UTF-8"?>
<!--Generator: Apple Native CoreSVG 175-->
<!DOCTYPE svg
PUBLIC "-//W3C//DTD SVG 1.1//EN"
       "http://www.w3.org/Graphics/SVG/1.1/DTD/svg11.dtd">
<svg version="1.1" xmlns="http://www.w3.org/2000/svg" xmlns:xlink="http://www.w3.org/1999/xlink" width="3300" height="2200">
 <!--glyph: "uni100644.medium", point size: 100.0, font version: "17.3d3e1", template writer version: "65.1"-->
 <g id="Notes">
  <rect height="2200" id="artboard" style="fill:white;opacity:1" width="3300" x="0" y="0"/>
  <line style="fill:none;stroke:black;opacity:1;stroke-width:0.5;" x1="263" x2="3036" y1="292" y2="292"/>
  <text style="stroke:none;fill:black;font-family:sans-serif;font-size:13;font-weight:bold;" transform="matrix(1 0 0 1 263 322)">Weight/Scale Variations</text>
  <text style="stroke:none;fill:black;font-family:sans-serif;font-size:13;text-anchor:middle;" transform="matrix(1 0 0 1 559.711 322)">Ultralight</text>
  <text style="stroke:none;fill:black;font-family:sans-serif;font-size:13;text-anchor:middle;" transform="matrix(1 0 0 1 856.422 322)">Thin</text>
  <text style="stroke:none;fill:black;font-family:sans-serif;font-size:13;text-anchor:middle;" transform="matrix(1 0 0 1 1153.13 322)">Light</text>
  <text style="stroke:none;fill:black;font-family:sans-serif;font-size:13;text-anchor:middle;" transform="matrix(1 0 0 1 1449.84 322)">Regular</text>
  <text style="stroke:none;fill:black;font-family:sans-serif;font-size:13;text-anchor:middle;" transform="matrix(1 0 0 1 1746.56 322)">Medium</text>
  <text style="stroke:none;fill:black;font-family:sans-serif;font-size:13;text-anchor:middle;" transform="matrix(1 0 0 1 2043.27 322)">Semibold</text>
  <text style="stroke:none;fill:black;font-family:sans-serif;font-size:13;text-anchor:middle;" transform="matrix(1 0 0 1 2339.98 322)">Bold</text>
  <text style="stroke:none;fill:black;font-family:sans-serif;font-size:13;text-anchor:middle;" transform="matrix(1 0 0 1 2636.69 322)">Heavy</text>
  <text style="stroke:none;fill:black;font-family:sans-serif;font-size:13;text-anchor:middle;" transform="matrix(1 0 0 1 2933.4 322)">Black</text>
  <line style="fill:none;stroke:black;opacity:1;stroke-width:0.5;" x1="263" x2="3036" y1="1903" y2="1903"/>
  <g transform="matrix(1 0 0 1 263 1933)">
   <path d="M9.24805 0.830078Q10.8691 0.830078 12.2949 0.214844Q13.7207-0.400391 14.8096-1.49414Q15.8984-2.58789 16.5186-4.01367Q17.1387-5.43945 17.1387-7.05078Q17.1387-8.66211 16.5186-10.0879Q15.8984-11.5137 14.8047-12.6074Q13.7109-13.7012 12.2852-14.3164Q10.8594-14.9316 9.23828-14.9316Q7.62695-14.9316 6.20117-14.3164Q4.77539-13.7012 3.69141-12.6074Q2.60742-11.5137 1.9873-10.0879Q1.36719-8.66211 1.36719-7.05078Q1.36719-5.43945 1.9873-4.01367Q2.60742-2.58789 3.69629-1.49414Q4.78516-0.400391 6.21094 0.214844Q7.63672 0.830078 9.24805 0.830078ZM9.24805-0.654297Q7.91992-0.654297 6.7627-1.14746Q5.60547-1.64062 4.73145-2.51953Q3.85742-3.39844 3.36426-4.56055Q2.87109-5.72266 2.87109-7.05078Q2.87109-8.37891 3.35938-9.54102Q3.84766-10.7031 4.72168-11.582Q5.5957-12.4609 6.75293-12.9541Q7.91016-13.4473 9.23828-13.4473Q10.5762-13.4473 11.7334-12.9541Q12.8906-12.4609 13.7695-11.582Q14.6484-10.7031 15.1465-9.54102Q15.6445-8.37891 15.6445-7.05078Q15.6445-5.72266 15.1514-4.56055Q14.6582-3.39844 13.7842-2.51953Q12.9102-1.64062 11.748-1.14746Q10.5859-0.654297 9.24805-0.654297ZM5.6543-7.05078Q5.6543-6.72852 5.85938-6.52832Q6.06445-6.32812 6.40625-6.32812L8.51562-6.32812L8.51562-4.20898Q8.51562-3.88672 8.71094-3.67676Q8.90625-3.4668 9.23828-3.4668Q9.56055-3.4668 9.77051-3.67676Q9.98047-3.88672 9.98047-4.20898L9.98047-6.32812L12.0898-6.32812Q12.4219-6.32812 12.627-6.52832Q12.832-6.72852 12.832-7.05078Q12.832-7.38281 12.627-7.58789Q12.4219-7.79297 12.0898-7.79297L9.98047-7.79297L9.98047-9.90234Q9.98047-10.2344 9.77051-10.4443Q9.56055-10.6543 9.23828-10.6543Q8.90625-10.6543 8.71094-10.4443Q8.51562-10.2344 8.51562-9.90234L8.51562-7.79297L6.40625-7.79297Q6.06445-7.79297 5.85938-7.58789Q5.6543-7.38281 5.6543-7.05078Z"/>
  </g>
  <g transform="matrix(1 0 0 1 281.867 1933)">
   <path d="M11.709 2.91016Q13.75 2.91016 15.5518 2.12891Q17.3535 1.34766 18.7305-0.0292969Q20.1074-1.40625 20.8887-3.20801Q21.6699-5.00977 21.6699-7.05078Q21.6699-9.0918 20.8887-10.8936Q20.1074-12.6953 18.7305-14.0723Q17.3535-15.4492 15.5469-16.2305Q13.7402-17.0117 11.6992-17.0117Q9.6582-17.0117 7.85645-16.2305Q6.05469-15.4492 4.68262-14.0723Q3.31055-12.6953 2.5293-10.8936Q1.74805-9.0918 1.74805-7.05078Q1.74805-5.00977 2.5293-3.20801Q3.31055-1.40625 4.6875-0.0292969Q6.06445 1.34766 7.86621 2.12891Q9.66797 2.91016 11.709 2.91016ZM11.709 1.25Q9.98047 1.25 8.47656 0.605469Q6.97266-0.0390625 5.83496-1.17676Q4.69727-2.31445 4.05762-3.81836Q3.41797-5.32227 3.41797-7.05078Q3.41797-8.7793 4.05762-10.2832Q4.69727-11.7871 5.83008-12.9297Q6.96289-14.0723 8.4668-14.7119Q9.9707-15.3516 11.6992-15.3516Q13.4277-15.3516 14.9316-14.7119Q16.4355-14.0723 17.5781-12.9297Q18.7207-11.7871 19.3652-10.2832Q20.0098-8.7793 20.0098-7.05078Q20.0098-5.32227 19.3701-3.81836Q18.7305-2.31445 17.5928-1.17676Q16.4551-0.0390625 14.9463 0.605469Q13.4375 1.25 11.709 1.25ZM7.17773-7.05078Q7.17773-6.69922 7.41211-6.47461Q7.64648-6.25 8.01758-6.25L10.8887-6.25L10.8887-3.36914Q10.8887-2.99805 11.1133-2.76855Q11.3379-2.53906 11.6895-2.53906Q12.0605-2.53906 12.29-2.76855Q12.5195-2.99805 12.5195-3.36914L12.5195-6.25L15.4004-6.25Q15.7715-6.25 16.001-6.47461Q16.2305-6.69922 16.2305-7.05078Q16.2305-7.42188 16.001-7.65137Q15.7715-7.88086 15.4004-7.88086L12.5195-7.88086L12.5195-10.752Q12.5195-11.1328 12.29-11.3623Q12.0605-11.5918 11.6895-11.5918Q11.3379-11.5918 11.1133-11.3574Q10.8887-11.123 10.8887-10.752L10.8887-7.88086L8.01758-7.88086Q7.63672-7.88086 7.40723-7.65137Q7.17773-7.42188 7.17773-7.05078Z"/>
  </g>
  <g transform="matrix(1 0 0 1 305.646 1933)">
   <path d="M14.9707 5.66406Q17.0605 5.66406 18.96 5.01465Q20.8594 4.36523 22.4512 3.19336Q24.043 2.02148 25.2197 0.429688Q26.3965-1.16211 27.0459-3.06641Q27.6953-4.9707 27.6953-7.05078Q27.6953-9.14062 27.0459-11.04Q26.3965-12.9395 25.2197-14.5312Q24.043-16.123 22.4512-17.2998Q20.8594-18.4766 18.9551-19.126Q17.0508-19.7754 14.9609-19.7754Q12.8711-19.7754 10.9717-19.126Q9.07227-18.4766 7.48535-17.2998Q5.89844-16.123 4.72168-14.5312Q3.54492-12.9395 2.90039-11.04Q2.25586-9.14062 2.25586-7.05078Q2.25586-4.9707 2.90527-3.06641Q3.55469-1.16211 4.72656 0.429688Q5.89844 2.02148 7.49023 3.19336Q9.08203 4.36523 10.9814 5.01465Q12.8809 5.66406 14.9707 5.66406ZM14.9707 3.84766Q13.1641 3.84766 11.5283 3.2959Q9.89258 2.74414 8.53516 1.74805Q7.17773 0.751953 6.17676-0.610352Q5.17578-1.97266 4.62891-3.6084Q4.08203-5.24414 4.08203-7.05078Q4.08203-8.86719 4.62891-10.5029Q5.17578-12.1387 6.17188-13.501Q7.16797-14.8633 8.52539-15.8594Q9.88281-16.8555 11.5186-17.4023Q13.1543-17.9492 14.9609-17.9492Q16.7773-17.9492 18.4131-17.4023Q20.0488-16.8555 21.4111-15.8594Q22.7734-14.8633 23.7695-13.501Q24.7656-12.1387 25.3174-10.5029Q25.8691-8.86719 25.8691-7.05078Q25.8789-5.24414 25.332-3.6084Q24.7852-1.97266 23.7842-0.610352Q22.7832 0.751953 21.4209 1.74805Q20.0586 2.74414 18.4229 3.2959Q16.7871 3.84766 14.9707 3.84766ZM9.19922-7.05078Q9.19922-6.66992 9.45801-6.4209Q9.7168-6.17188 10.1172-6.17188L14.0625-6.17188L14.0625-2.2168Q14.0625-1.81641 14.3115-1.55762Q14.5605-1.29883 14.9512-1.29883Q15.3516-1.29883 15.6104-1.55273Q15.8691-1.80664 15.8691-2.2168L15.8691-6.17188L19.8242-6.17188Q20.2246-6.17188 20.4785-6.4209Q20.7324-6.66992 20.7324-7.05078Q20.7324-7.46094 20.4785-7.71484Q20.2246-7.96875 19.8242-7.96875L15.8691-7.96875L15.8691-11.9141Q15.8691-12.3242 15.6104-12.583Q15.3516-12.8418 14.9512-12.8418Q14.5605-12.8418 14.3115-12.583Q14.0625-12.3242 14.0625-11.9141L14.0625-7.96875L10.1172-7.96875Q9.70703-7.96875 9.45312-7.71484Q9.19922-7.46094 9.19922-7.05078Z"/>
  </g>
  <text style="stroke:none;fill:black;font-family:sans-serif;font-size:13;font-weight:bold;" transform="matrix(1 0 0 1 263 1953)">Design Variations</text>
  <text style="stroke:none;fill:black;font-family:sans-serif;font-size:13;" transform="matrix(1 0 0 1 263 1971)">Symbols are supported in up to nine weights and three scales.</text>
  <text style="stroke:none;fill:black;font-family:sans-serif;font-size:13;" transform="matrix(1 0 0 1 263 1989)">For optimal layout with text and other symbols, vertically align</text>
  <text style="stroke:none;fill:black;font-family:sans-serif;font-size:13;" transform="matrix(1 0 0 1 263 2007)">symbols with the adjacent text.</text>
  <line style="fill:none;stroke:#00AEEF;stroke-width:0.5;opacity:1.0;" x1="776" x2="776" y1="1919" y2="1933"/>
  <g transform="matrix(1 0 0 1 776 1933)">
   <path d="M3.31055 0.15625Q3.70117 0.15625 3.91602-0.00976562Q4.13086-0.175781 4.26758-0.585938L5.52734-4.0332L11.2891-4.0332L12.5488-0.585938Q12.6855-0.175781 12.9004-0.00976562Q13.1152 0.15625 13.4961 0.15625Q13.8867 0.15625 14.1162-0.0585938Q14.3457-0.273438 14.3457-0.644531Q14.3457-0.869141 14.2383-1.17188L9.6582-13.3691Q9.48242-13.8184 9.17969-14.043Q8.87695-14.2676 8.4082-14.2676Q7.5-14.2676 7.17773-13.3789L2.59766-1.16211Q2.49023-0.859375 2.49023-0.634766Q2.49023-0.263672 2.70996-0.0537109Q2.92969 0.15625 3.31055 0.15625ZM6.00586-5.51758L8.37891-12.0898L8.42773-12.0898L10.8008-5.51758Z"/>
  </g>
  <line style="fill:none;stroke:#00AEEF;stroke-width:0.5;opacity:1.0;" x1="793.197" x2="793.197" y1="1919" y2="1933"/>
  <text style="stroke:none;fill:black;font-family:sans-serif;font-size:13;font-weight:bold;" transform="matrix(1 0 0 1 776 1953)">Margins</text>
  <text style="stroke:none;fill:black;font-family:sans-serif;font-size:13;" transform="matrix(1 0 0 1 776 1971)">Leading and trailing margins on the left and right side of each symbol</text>
  <text style="stroke:none;fill:black;font-family:sans-serif;font-size:13;" transform="matrix(1 0 0 1 776 1989)">can be adjusted by modifying the x-location of the margin guidelines.</text>
  <text style="stroke:none;fill:black;font-family:sans-serif;font-size:13;" transform="matrix(1 0 0 1 776 2007)">Modifications are automatically applied proportionally to all</text>
  <text style="stroke:none;fill:black;font-family:sans-serif;font-size:13;" transform="matrix(1 0 0 1 776 2025)">scales and weights.</text>
  <g transform="matrix(1 0 0 1 1289 1933)">
   <path d="M2.8418 1.86523L4.54102 3.57422Q5.18555 4.22852 5.90332 4.17969Q6.62109 4.13086 7.31445 3.35938L18.0078-8.42773L17.041-9.4043L6.42578 2.27539Q6.16211 2.57812 5.89355 2.61719Q5.625 2.65625 5.27344 2.30469L4.10156 1.14258Q3.75 0.791016 3.79395 0.522461Q3.83789 0.253906 4.14062-0.0195312L15.6152-10.8203L14.6387-11.7871L3.04688-0.898438Q2.30469-0.214844 2.25098 0.498047Q2.19727 1.21094 2.8418 1.86523ZM9.25781-16.3281Q8.94531-16.0254 8.90625-15.6348Q8.86719-15.2441 9.04297-14.9512Q9.21875-14.6777 9.55566-14.541Q9.89258-14.4043 10.3809-14.5215Q11.4746-14.7754 12.5977-14.7314Q13.7207-14.6875 14.7949-13.9844L14.209-12.5293Q13.9551-11.9043 14.0674-11.4404Q14.1797-10.9766 14.5801-10.5664L16.875-8.25195Q17.2363-7.88086 17.5781-7.82227Q17.9199-7.76367 18.3398-7.8418L19.4043-8.03711L20.0684-7.36328L20.0293-6.80664Q20-6.43555 20.1221-6.12305Q20.2441-5.81055 20.6055-5.44922L21.3672-4.70703Q21.7285-4.3457 22.1533-4.33105Q22.5781-4.31641 22.9297-4.66797L25.8398-7.58789Q26.1914-7.93945 26.1816-8.35449Q26.1719-8.76953 25.8105-9.13086L25.0391-9.89258Q24.6875-10.2539 24.3799-10.3857Q24.0723-10.5176 23.7109-10.4883L23.1348-10.4395L22.4902-11.0742L22.7344-12.1973Q22.832-12.6172 22.6953-12.9834Q22.5586-13.3496 22.1191-13.7891L19.9219-15.9766Q18.6719-17.2168 17.2607-17.8369Q15.8496-18.457 14.4189-18.4814Q12.9883-18.5059 11.665-17.959Q10.3418-17.4121 9.25781-16.3281ZM10.752-15.957Q11.6602-16.6211 12.7002-16.9043Q13.7402-17.1875 14.8047-17.085Q15.8691-16.9824 16.8701-16.5137Q17.8711-16.0449 18.7012-15.2051L21.1328-12.793Q21.3086-12.6172 21.3525-12.4512Q21.3965-12.2852 21.3379-12.0312L21.0156-10.5469L22.5195-9.0625L23.5059-9.12109Q23.6914-9.13086 23.7891-9.09668Q23.8867-9.0625 24.0332-8.91602L24.6094-8.33984L22.168-5.89844L21.5918-6.47461Q21.4453-6.62109 21.4062-6.71875Q21.3672-6.81641 21.377-7.01172L21.4453-7.98828L19.9512-9.47266L18.4277-9.21875Q18.1836-9.16992 18.042-9.2041Q17.9004-9.23828 17.7148-9.41406L15.7129-11.416Q15.5176-11.5918 15.4932-11.7529Q15.4688-11.9141 15.5859-12.1875L16.4648-14.2773Q15.293-15.3711 13.8281-15.791Q12.3633-16.2109 10.8398-15.7617Q10.7227-15.7324 10.6885-15.8057Q10.6543-15.8789 10.752-15.957Z"/>
  </g>
  <text style="stroke:none;fill:black;font-family:sans-serif;font-size:13;font-weight:bold;" transform="matrix(1 0 0 1 1289 1953)">Exporting</text>
  <text style="stroke:none;fill:black;font-family:sans-serif;font-size:13;" transform="matrix(1 0 0 1 1289 1971)">Symbols should be outlined when exporting to ensure the</text>
  <text style="stroke:none;fill:black;font-family:sans-serif;font-size:13;" transform="matrix(1 0 0 1 1289 1989)">design is preserved when submitting to Xcode.</text>
  <text id="template-version" style="stroke:none;fill:black;font-family:sans-serif;font-size:13;text-anchor:end;" transform="matrix(1 0 0 1 3036 1933)">Template v.3.0</text>
  <text style="stroke:none;fill:black;font-family:sans-serif;font-size:13;text-anchor:end;" transform="matrix(1 0 0 1 3036 1951)">Requires Xcode 13 or greater</text>
  <text id="descriptive-name" style="stroke:none;fill:black;font-family:sans-serif;font-size:13;text-anchor:end;" transform="matrix(1 0 0 1 3036 1969)">Generated from hammer</text>
  <text style="stroke:none;fill:black;font-family:sans-serif;font-size:13;text-anchor:end;" transform="matrix(1 0 0 1 3036 1987)">Typeset at 100 points</text>
  <text style="stroke:none;fill:black;font-family:sans-serif;font-size:13;" transform="matrix(1 0 0 1 263 726)">Small</text>
  <text style="stroke:none;fill:black;font-family:sans-serif;font-size:13;" transform="matrix(1 0 0 1 263 1156)">Medium</text>
  <text style="stroke:none;fill:black;font-family:sans-serif;font-size:13;" transform="matrix(1 0 0 1 263 1586)">Large</text>
 </g>
 <g id="Guides">
  <g id="H-reference" style="fill:#27AAE1;stroke:none;" transform="matrix(1 0 0 1 339 696)">
   <path d="M0.993347 0L3.6377 0L29.3282-67.1326L30.0301-67.1326L30.0301-70.459L28.1227-70.459ZM11.6882-24.4797L46.9818-24.4797L46.2311-26.7288L12.4382-26.7288ZM55.1193 0L57.7637 0L30.6381-70.459L29.4327-70.459L29.4327-67.1326Z"/>
  </g>
  <line id="Baseline-S" style="fill:none;stroke:#27AAE1;opacity:1;stroke-width:0.5;" x1="263" x2="3036" y1="696" y2="696"/>
  <line id="Capline-S" style="fill:none;stroke:#27AAE1;opacity:1;stroke-width:0.5;" x1="263" x2="3036" y1="625.541" y2="625.541"/>
  <g id="H-reference" style="fill:#27AAE1;stroke:none;" transform="matrix(1 0 0 1 339 1126)">
   <path d="M0.993347 0L3.6377 0L29.3282-67.1326L30.0301-67.1326L30.0301-70.459L28.1227-70.459ZM11.6882-24.4797L46.9818-24.4797L46.2311-26.7288L12.4382-26.7288ZM55.1193 0L57.7637 0L30.6381-70.459L29.4327-70.459L29.4327-67.1326Z"/>
  </g>
  <line id="Baseline-M" style="fill:none;stroke:#27AAE1;opacity:1;stroke-width:0.5;" x1="263" x2="3036" y1="1126" y2="1126"/>
  <line id="Capline-M" style="fill:none;stroke:#27AAE1;opacity:1;stroke-width:0.5;" x1="263" x2="3036" y1="1055.54" y2="1055.54"/>
  <g id="H-reference" style="fill:#27AAE1;stroke:none;" transform="matrix(1 0 0 1 339 1556)">
   <path d="M0.993347 0L3.6377 0L29.3282-67.1326L30.0301-67.1326L30.0301-70.459L28.1227-70.459ZM11.6882-24.4797L46.9818-24.4797L46.2311-26.7288L12.4382-26.7288ZM55.1193 0L57.7637 0L30.6381-70.459L29.4327-70.459L29.4327-67.1326Z"/>
  </g>
  <line id="Baseline-L" style="fill:none;stroke:#27AAE1;opacity:1;stroke-width:0.5;" x1="263" x2="3036" y1="1556" y2="1556"/>
  <line id="Capline-L" style="fill:none;stroke:#27AAE1;opacity:1;stroke-width:0.5;" x1="263" x2="3036" y1="1485.54" y2="1485.54"/>
  <line id="left-margin-Regular-M" style="fill:none;stroke:#00AEEF;stroke-width:0.5;opacity:1.0;" x1="1378.8" x2="1378.8" y1="1030.79" y2="1150.12"/>
  <line id="right-margin-Regular-M" style="fill:none;stroke:#00AEEF;stroke-width:0.5;opacity:1.0;" x1="1520.89" x2="1520.89" y1="1030.79" y2="1150.12"/>
 </g>
 <g id="Symbols">
  <g id="Black-L" transform="matrix(1 0 0 1 2833.05 1556)">
   <path d="M19.5187 26.1289L32.4486 39.0796Q37.7329 44.4056 44.0972 44.0553Q50.4614 43.7051 55.9715 37.6368L130.781-45.3297L119.34-56.7934L44.5015 22.8682Q43.6165 23.7621 42.792 23.8573Q41.9676 23.9526 40.9388 22.9446L35.6329 17.5803Q34.5445 16.5128 34.6612 15.7181Q34.7778 14.9235 35.7081 14.076L114.917-61.1952L103.512-72.6369L20.8614 2.56843Q14.8765 7.99809 14.5158 14.3817Q14.1551 20.7653 19.5187 26.1289ZM67.1752-101.851Q64.5646-99.2609 64.2381-96.0367Q63.9116-92.8126 65.3467-90.1496Q66.9339-87.2617 70.2357-85.6218Q73.5374-83.9819 77.8816-85.1489Q84.944-87.0106 91.1958-86.5973Q97.4477-86.1841 102.963-83.09L100.103-75.8797Q98.128-70.9965 98.9176-66.9358Q99.7072-62.8751 103.17-59.3326L116.683-45.7191Q120.933-41.4894 124.421-40.2994Q127.909-39.1095 132.392-40.1176L136.889-41.0767L138.862-39.1241L138.544-36.3825Q138.211-33.5735 139.369-30.8753Q140.527-28.1771 143.406-25.3996L148.47-20.3956Q151.956-16.9676 156.104-16.8494Q160.251-16.7312 163.522-20.0227L183.011-39.511Q186.303-42.8246 186.184-46.9991Q186.066-51.1737 182.638-54.6005L177.612-59.6837Q174.891-62.4832 172.176-63.6344Q169.46-64.7857 166.672-64.5092L163.947-64.2287L162.036-66.0813L163.057-70.8052Q163.991-75.2757 162.72-78.7572Q161.448-82.2387 157.101-86.5844L144.435-99.2494Q135.863-107.801 125.722-112.236Q115.581-116.671 105.093-116.991Q94.6049-117.312 84.8206-113.54Q75.0363-109.769 67.1752-101.851ZM85.7552-97.9803Q91.1782-100.859 97.0957-101.681Q103.013-102.503 108.929-101.421Q114.846-100.339 120.366-97.3884Q125.887-94.4378 130.573-89.8102L145.188-75.2739Q146.381-74.1021 146.645-72.9523Q146.909-71.8024 146.644-70.1665L145.063-61.1533L156.652-49.6078L162.897-49.8711Q164.296-49.9151 165.225-48.9657L166.592-47.5988L155.061-36.0917L153.718-37.4378Q152.747-38.4068 152.769-39.806L153.074-46.0316L141.53-57.5783L132.413-56.1231Q130.798-55.8782 129.689-56.1321Q128.58-56.3859 127.408-57.5578L117.545-67.421Q116.349-68.5757 115.932-69.7867Q115.516-70.9977 116.188-72.584L121.894-86.3519Q114.243-94.2314 104.705-96.898Q95.1678-99.5645 86.0136-97.3978Q85.6516-97.2942 85.5449-97.5482Q85.4383-97.8023 85.7552-97.9803Z"/>
  </g>
  <g id="Heavy-L" transform="matrix(1 0 0 1 2538.44 1556)">
   <path d="M19.2303 25.2181L31.6765 37.6945Q36.6725 42.7509 42.6055 42.4097Q48.5385 42.0685 53.7971 36.2694L127.208-45.0203L117.088-55.1764L43.7598 23.4409Q42.6575 24.6117 41.5964 24.7414Q40.5353 24.8711 39.2038 23.5697L33.325 17.6462Q31.9432 16.2947 32.1059 15.2587Q32.2686 14.2228 33.4482 13.1348L111.453-60.7811L101.341-70.9013L20.5504 3.0831Q14.872 8.26135 14.5158 14.2044Q14.1596 20.1474 19.2303 25.2181ZM65.4181-100.207Q62.9536-97.7732 62.6566-94.7376Q62.3596-91.7021 63.722-89.2211Q65.1768-86.63 68.2053-85.1704Q71.2338-83.7108 75.2464-84.7735Q82.363-86.585 88.8614-86.1913Q95.3598-85.7976 101.211-82.3334L98.1008-74.5772Q96.217-69.9251 96.9865-66.1224Q97.7559-62.3198 100.995-59.0057L114.811-45.0796Q118.6-41.3208 121.765-40.3191Q124.931-39.3174 128.987-40.2016L134.068-41.2329L136.647-38.6845L136.342-35.7407Q136.059-33.0066 137.115-30.4752Q138.171-27.9438 140.935-25.2904L145.961-20.3145Q149.147-17.1728 152.932-17.0634Q156.716-16.954 159.713-19.9819L179.063-39.3258Q182.091-42.3895 181.981-46.173Q181.872-49.9565 178.73-53.0927L173.719-58.1434Q171.099-60.8325 168.568-61.9022Q166.038-62.9718 163.334-62.7273L160.375-62.4369L157.887-64.8802L159.032-70.188Q159.893-74.2532 158.717-77.4706Q157.542-80.6881 153.57-84.6539L140.567-97.6518Q132.142-106.046 122.261-110.369Q112.38-114.692 102.201-114.982Q92.0222-115.272 82.5395-111.579Q73.0568-107.885 65.4181-100.207ZM81.7297-96.6905Q87.2679-99.9425 93.392-101.004Q99.5161-102.066 105.682-101.085Q111.847-100.104 117.606-97.1312Q123.365-94.1583 128.212-89.3558L143.047-74.5959Q144.257-73.4163 144.525-72.2724Q144.793-71.1286 144.505-69.4855L142.813-60.3687L153.945-49.303L160.183-49.5801Q161.754-49.6517 162.805-48.5709L164.778-46.5979L152.138-33.9994L150.206-35.9422Q149.095-37.0474 149.131-38.6187L149.469-44.8321L138.408-55.9035L129.141-54.3931Q127.528-54.135 126.442-54.388Q125.355-54.6411 124.176-55.8207L113.608-66.3885Q112.381-67.5549 112.021-68.7428Q111.66-69.9307 112.367-71.5976L118.06-85.2628Q110.435-92.9206 100.937-95.5799Q91.4386-98.2392 82.0786-95.9143Q81.6079-95.7925 81.472-96.1073Q81.3362-96.422 81.7297-96.6905Z"/>
  </g>
  <g id="Bold-L" transform="matrix(1 0 0 1 2244.2 1556)">
   <path d="M18.8917 24.2153L30.746 36.1077Q35.4033 40.841 40.8097 40.5113Q46.2161 40.1816 51.1746 34.713L122.983-44.6287L114.507-53.1561L42.89 24.2448Q41.4964 25.7762 40.1358 25.9445Q38.7752 26.1127 37.0972 24.4723L30.4889 17.8349Q28.7683 16.1524 28.9811 14.8131Q29.1939 13.4738 30.7033 12.0713L107.366-60.2589L98.8682-68.7349L20.1811 3.79532Q14.8643 8.67362 14.5158 14.0822Q14.1672 19.4909 18.8917 24.2153ZM63.482-98.2756Q61.1942-96.026 60.9356-93.2322Q60.677-90.4385 61.9472-88.1878Q63.2407-85.9581 65.9274-84.7176Q68.614-83.4771 72.1969-84.4017Q79.4571-86.1517 86.2553-85.7626Q93.0536-85.3734 99.2819-81.463L95.8425-73.0157Q94.0739-68.6703 94.8128-65.1792Q95.5517-61.688 98.5218-58.6507L112.677-44.3776Q115.912-41.1803 118.689-40.3906Q121.466-39.6009 125.037-40.3463L130.833-41.4773L134.179-38.1688L133.898-35.0013Q133.676-32.3297 134.601-29.9982Q135.527-27.6668 138.16-25.1522L143.155-20.1996Q145.957-17.4264 149.27-17.3323Q152.582-17.2381 155.234-19.9281L174.459-39.14Q177.149-41.8814 177.055-45.1659Q176.961-48.4504 174.188-51.2105L169.184-56.2302Q166.672-58.796 164.365-59.7583Q162.058-60.7206 159.424-60.5145L156.21-60.2237L152.977-63.427L154.254-69.3826Q155.03-73.0077 153.97-75.9284Q152.909-78.8491 149.377-82.3685L136.025-95.7066Q127.823-103.871 118.261-108.056Q108.699-112.241 98.8851-112.511Q89.0715-112.781 79.9503-109.21Q70.8292-105.639 63.482-98.2756ZM76.9589-95.1594Q82.6207-98.8873 89.0134-100.237Q95.406-101.587 101.901-100.718Q108.397-99.8494 114.463-96.8421Q120.529-93.8348 125.553-88.8395L140.582-73.8775Q141.83-72.6678 142.113-71.5093Q142.396-70.3507 142.077-68.6702L140.277-59.4749L150.856-48.9861L157.056-49.2786Q158.857-49.381 160.076-48.1239L162.802-45.3979L148.75-31.4098L146.088-34.0978Q144.793-35.3794 144.844-37.1809L145.213-43.3565L134.737-53.8586L125.352-52.2866Q123.709-52.0056 122.62-52.2698Q121.531-52.534 120.321-53.7437L108.989-65.0756Q107.702-66.2872 107.396-67.4854Q107.089-68.6836 107.85-70.4728L113.52-83.9776Q105.948-91.3365 96.5259-93.9583Q87.1037-96.5801 77.4305-94.1075Q76.8142-93.9628 76.6362-94.3655Q76.4582-94.7683 76.9589-95.1594Z"/>
  </g>
  <g id="Semibold-L" transform="matrix(1 0 0 1 1949.19 1556)">
   <path d="M18.6582 23.524L30.1044 35.0137Q34.5283 39.5243 39.5717 39.2025Q44.6151 38.8807 49.3667 33.6401L120.071-44.3587L112.728-51.7633L42.2903 24.799Q40.6959 26.579 39.1289 26.7739Q37.5618 26.9687 35.6448 25.0946L28.5338 17.965Q26.5796 16.0543 26.827 14.5059Q27.0743 12.9574 28.811 11.3381L104.549-59.8989L97.1632-67.2414L19.9265 4.28632Q14.8591 8.95783 14.5158 13.9981Q14.1725 19.0383 18.6582 23.524ZM62.1472-96.9438Q59.9814-94.8214 59.7492-92.1944Q59.517-89.5673 60.7237-87.4754Q61.906-85.4949 64.357-84.4055Q66.8079-83.3161 70.0946-84.1455Q77.4537-85.853 84.4587-85.467Q91.4637-85.0809 97.9524-80.863L94.2856-71.9393Q92.5965-67.8053 93.3143-64.5289Q94.0322-61.2524 96.8166-58.4059L111.205-43.8936Q114.059-41.0835 116.568-40.4399Q119.078-39.7964 122.314-40.4461L128.603-41.6457L132.478-37.8132L132.212-34.4916Q132.033-31.863 132.868-29.6694Q133.704-27.4759 136.247-25.057L141.22-20.1205Q143.758-17.6013 146.745-17.5176Q149.732-17.4339 152.146-19.8911L171.285-39.0119Q173.742-41.5312 173.659-44.4717Q173.575-47.4122 171.056-49.913L166.058-54.9113Q163.62-57.3921 161.467-58.2803Q159.313-59.1686 156.728-58.9889L153.338-58.6979L149.593-62.4251L150.96-68.8272Q151.678-72.1491 150.697-74.8652Q149.716-77.5813 146.486-80.793L132.894-94.3657Q124.845-102.372 115.503-106.462Q106.16-110.551 96.5989-110.808Q87.0373-111.064 78.1654-107.577Q69.2934-104.09 62.1472-96.9438ZM73.67-94.1038Q79.417-98.1598 85.9948-99.7086Q92.5726-101.257 99.2952-100.466Q106.018-99.6739 112.295-96.6429Q118.573-93.6119 123.72-88.4835L138.883-73.3823Q140.157-72.1519 140.451-70.9831Q140.744-69.8144 140.404-68.1081L138.529-58.8588L148.726-48.7677L154.9-49.0708Q156.86-49.1945 158.195-47.8158L161.44-44.5706L146.414-29.6246L143.249-32.8263Q141.827-34.2296 141.889-36.1896L142.279-42.3392L132.206-52.449L122.74-50.8344Q121.077-50.5376 119.986-50.8095Q118.895-51.0814 117.664-52.3118L105.805-64.1705Q104.476-65.4132 104.207-66.6186Q103.938-67.8239 104.736-69.6973L110.39-83.0916Q102.855-90.2444 93.4851-92.8403Q84.1152-95.4363 74.226-92.862Q73.5094-92.7014 73.3024-93.1648Q73.0954-93.6282 73.67-94.1038Z"/>
  </g>
  <g id="Medium-L" transform="matrix(1 0 0 1 1653.77 1556)">
   <path d="M18.4812 22.9998L29.618 34.1842Q33.8649 38.526 38.633 38.2102Q43.4011 37.8944 47.9959 32.8265L117.862-44.1539L111.379-50.7072L41.8356 25.2193Q40.089 27.1878 38.3654 27.4027Q36.6417 27.6177 34.5436 25.5664L27.0513 18.0637Q24.92 15.98 25.1936 14.2729Q25.4671 12.5659 27.3762 10.7821L102.413-59.626L95.8703-66.1089L19.7335 4.65862Q14.855 9.17334 14.5158 13.9342Q14.1766 18.6951 18.4812 22.9998ZM61.1352-95.9339Q59.0617-93.9081 58.8496-91.4075Q58.6375-88.9068 59.796-86.9353Q60.8939-85.1436 63.1662-84.1688Q65.4385-83.194 68.5005-83.9511Q75.9347-85.6266 83.0965-85.2428Q90.2582-84.8591 96.9443-80.408L93.1051-71.1231Q91.4762-67.1494 92.1781-64.0358Q92.88-60.9222 95.5236-58.2204L110.09-43.5267Q112.654-41.01 114.96-40.4773Q117.267-39.9446 120.249-40.5217L126.912-41.7735L131.189-37.5436L130.934-34.1051Q130.787-31.5091 131.554-29.4201Q132.322-27.3311 134.796-24.9847L139.753-20.0604Q142.091-17.7339 144.831-17.6582Q147.571-17.5824 149.804-19.863L168.879-38.9148Q171.159-41.2656 171.084-43.9452Q171.008-46.6249 168.681-48.9292L163.687-53.9112Q161.306-56.3275 159.269-57.1597Q157.233-57.9918 154.684-57.8322L151.161-57.541L147.026-61.6654L148.462-68.4062Q149.136-71.498 148.215-74.0591Q147.295-76.6201 144.294-79.5984L130.521-93.3489Q122.587-101.236 113.411-105.253Q104.236-109.27 94.8654-109.516Q85.4949-109.762 76.8119-106.339Q68.1289-102.916 61.1352-95.9339ZM71.1762-93.3034Q76.9878-97.6082 83.7059-99.3078Q90.4241-101.007 97.3191-100.274Q104.214-99.5408 110.652-96.4918Q117.09-93.4428 122.33-88.2136L137.595-73.0068Q138.888-71.7606 139.19-70.5842Q139.491-69.4078 139.135-67.6819L137.204-58.3916L147.111-48.602L153.266-48.9132Q155.346-49.053 156.769-47.5821L160.408-43.9433L144.643-28.271L141.096-31.8622Q139.578-33.3577 139.648-35.438L140.054-41.5678L130.287-51.3801L120.76-49.7333Q119.081-49.4245 117.988-49.7022Q116.896-49.98 115.65-51.2261L103.391-63.4842Q102.03-64.7506 101.79-65.9613Q101.549-67.1721 102.375-69.1093L108.017-82.4198Q100.51-89.4163 91.1794-91.9926Q81.8492-94.569 71.7963-91.9176Q71.0036-91.745 70.7746-92.2543Q70.5456-92.7637 71.1762-93.3034Z"/>
  </g>
  <g id="Regular-L" transform="matrix(1 0 0 1 1358.74 1556)">
   <path d="M18.2503 22.316L28.9835 33.1023Q32.9995 37.2238 37.4086 36.9158Q41.8177 36.6078 46.2079 31.7653L114.982-43.8869L109.62-49.3297L41.2426 25.7674Q39.2974 27.9818 37.3695 28.223Q35.4417 28.4643 33.1072 26.1819L25.1177 18.1923Q22.7553 15.883 23.063 13.9691Q23.3708 12.0552 25.5047 10.057L99.6268-59.27L94.184-64.6318L19.4817 5.14422Q14.8498 9.45443 14.5158 13.851Q14.1818 18.2475 18.2503 22.316ZM59.8151-94.6167Q57.8622-92.7168 57.6762-90.381Q57.4903-88.0452 58.586-86.2308Q59.5738-84.6855 61.6131-83.8601Q63.6523-83.0347 66.4212-83.6976Q73.9534-85.3312 81.3196-84.9505Q88.6859-84.5699 95.6294-79.8145L91.5654-70.0585Q90.015-66.2939 90.6961-63.3926Q91.3771-60.4914 93.8372-57.9783L108.634-43.0481Q110.821-40.9142 112.863-40.5261Q114.904-40.1379 117.555-40.6204L124.706-41.9401L129.506-37.192L129.268-33.601Q129.162-31.0476 129.84-29.0949Q130.519-27.1422 132.904-24.8905L137.84-19.9821Q139.916-17.9068 142.334-17.8415Q144.752-17.7761 146.75-19.8263L165.74-38.7881Q167.79-40.9192 167.725-43.2586Q167.659-45.598 165.584-47.6459L160.595-52.6068Q158.288-54.939 156.403-55.6979Q154.518-56.4569 152.018-56.3234L148.321-56.0319L143.679-60.6745L145.204-67.857Q145.82-70.6489 144.978-73.0075Q144.136-75.3662 141.435-78.0402L127.424-92.0227Q119.641-99.753 110.683-103.676Q101.726-107.599 92.6043-107.831Q83.4831-108.064 75.0466-104.724Q66.6101-101.384 59.8151-94.6167ZM67.9234-92.2594Q73.8192-96.8887 80.7205-98.785Q87.6218-100.681 94.7416-100.024Q101.861-99.3671 108.509-96.2947Q115.156-93.2223 120.517-87.8616L135.914-72.517Q137.234-71.2503 137.545-70.0639Q137.857-68.8774 137.48-67.126L135.475-57.7822L145.004-48.386L151.134-48.7076Q153.371-48.8685 154.909-47.2774L159.061-43.1252L142.333-26.5054L138.289-30.6047Q136.645-32.2204 136.725-34.4576L137.153-40.5617L127.784-49.9859L118.176-48.2971Q116.478-47.9726 115.383-48.258Q114.288-48.5434 113.022-49.81L100.242-62.589Q98.8399-63.8862 98.6363-65.104Q98.4327-66.3218 99.295-68.3424L104.922-81.5435Q97.4504-88.3362 88.172-90.887Q78.8936-93.4378 68.6271-90.6857Q67.7352-90.4974 67.4774-91.0668Q67.2197-91.6362 67.9234-92.2594Z"/>
  </g>
  <g id="Light-L" transform="matrix(1 0 0 1 1062.84 1556)">
   <path d="M18.1358 22.4305L28.5064 32.8352Q32.4079 36.804 36.5021 36.5055Q40.5963 36.207 44.8528 31.5745L113.36-43.5624L109.181-47.8219L40.9562 26.9317Q38.6676 29.5087 36.4916 29.75Q34.3155 29.9912 31.924 27.6322L23.3047 19.0129Q20.866 16.6083 21.1641 14.4558Q21.4622 12.3034 23.9588 9.98065L98.119-58.8502L93.8595-63.0285L19.3291 6.11741Q14.8306 10.2942 14.5158 14.395Q14.201 18.4957 18.1358 22.4305ZM60.0251-93.9488Q58.1674-92.1252 58.0196-90.0089Q57.8718-87.8926 58.8912-86.269Q59.7839-84.9337 61.5655-84.2324Q63.3471-83.531 65.6959-84.0411Q73.8197-85.6364 81.3578-85.1318Q88.8959-84.6273 95.8583-79.6427L91.4317-69.3143Q89.9769-65.8931 90.6007-63.1541Q91.2245-60.4151 93.5509-58.0546L108.348-43.1436Q110.267-41.2577 112.109-40.8791Q113.95-40.5006 116.544-40.9831L124.133-42.4365L129.583-37.0201L129.401-33.4483Q129.334-30.7423 129.898-28.8851Q130.461-27.0278 132.828-24.776L137.84-19.8102Q139.572-18.0787 141.523-18.0515Q143.474-18.0243 145.185-19.7689L164.404-38.9407Q166.148-40.7665 166.121-42.667Q166.094-44.5674 164.363-46.2526L159.316-51.2517Q156.971-53.5839 155.201-54.2284Q153.43-54.8728 150.759-54.7583L147.119-54.5431L141.77-59.8921L143.238-67.0364Q143.835-69.9235 143.051-72.2728Q142.266-74.622 139.698-77.1433L125.897-90.8965Q118.515-98.2452 109.758-102.073Q101-105.9 92.0222-106.238Q83.0441-106.575 74.7793-103.483Q66.5145-100.392 60.0251-93.9488ZM66.0149-91.6297Q71.8725-96.6787 79.0411-98.7181Q86.2097-100.758 93.6919-100.091Q101.174-99.4245 108.108-96.2853Q115.042-93.146 120.383-87.8042L135.418-72.8033Q136.871-71.384 137.259-70.0448Q137.647-68.7056 137.232-66.7444L135.341-57.6678L144.565-48.5578L150.485-48.8795Q152.989-49.0403 154.756-47.2392L159.442-42.5525L141.493-24.7306L136.934-29.3833Q135.099-31.1706 135.18-33.6752L135.569-39.6074L126.505-48.7645L117.26-47.0757Q115.332-46.6938 114.037-47.0652Q112.742-47.4365 111.323-48.8557L98.7153-61.4628Q97.1221-62.9894 96.8613-64.4648Q96.6005-65.9402 97.5583-68.1897L103.128-81.0664Q95.8282-87.4964 86.7787-89.8373Q77.7293-92.1782 66.8712-89.6359Q65.8077-89.4287 65.4831-90.1412Q65.1585-90.8538 66.0149-91.6297Z"/>
  </g>
  <g id="Thin-L" transform="matrix(1 0 0 1 767.2 1556)">
   <path d="M17.9844 22.5819L27.8753 32.4819Q31.6254 36.2489 35.3032 35.9629Q38.9809 35.6769 43.0605 31.3222L111.214-43.1332L108.6-45.8279L40.5775 28.4716Q37.8347 31.5282 35.3304 31.7695Q32.8261 32.0108 30.3591 29.5504L20.9068 20.0981Q18.3672 17.5676 18.6526 15.0996Q18.938 12.6316 21.9143 9.87971L96.125-58.2951L93.4303-60.9081L19.1272 7.40453Q14.8051 11.4049 14.5158 15.1144Q14.2265 18.824 17.9844 22.5819ZM60.3029-93.0654Q58.5712-91.3428 58.4738-89.5168Q58.3765-87.6907 59.295-86.3194Q60.0616-85.2619 61.5025-84.7247Q62.9433-84.1875 64.7366-84.4953Q73.6428-86.0402 81.4083-85.3717Q89.1737-84.7032 96.1611-79.4154L91.2548-68.3299Q89.9264-65.363 90.4745-62.8386Q91.0226-60.3141 93.1721-58.1555L107.969-43.27Q109.535-41.7119 111.112-41.346Q112.688-40.9802 115.206-41.4627L123.375-43.0929L129.683-36.7928L129.578-33.2465Q129.561-30.3386 129.973-28.6075Q130.385-26.8764 132.727-24.6246L137.84-19.5829Q139.118-18.306 140.45-18.3293Q141.782-18.3526 143.115-19.693L162.637-39.1426Q163.978-40.5647 164.001-41.8845Q164.024-43.2044 162.747-44.41L157.625-49.4595Q155.229-51.7917 153.61-52.2847Q151.992-52.7778 149.093-52.6883L145.528-52.5741L139.246-58.8573L140.638-65.9512Q141.21-68.9642 140.501-71.3009Q139.792-73.6377 137.401-75.9571L123.878-89.4071Q117.026-96.2512 108.533-99.9526Q100.041-103.654 91.2523-104.13Q82.4636-104.606 74.4258-101.843Q66.3881-99.0793 60.3029-93.0654ZM63.4907-90.7968Q69.2978-96.4009 76.8199-98.6297Q84.342-100.859 92.3036-100.179Q100.265-99.5004 107.578-96.2727Q114.89-93.045 120.206-87.7283L134.761-73.182Q136.391-71.5609 136.88-70.0196Q137.369-68.4782 136.904-66.2397L135.164-57.5164L143.985-48.7851L149.626-49.1068Q152.485-49.2677 154.554-47.1888L159.947-41.795L140.382-22.3833L135.141-27.7679Q133.055-29.7821 133.135-32.6404L133.474-38.3453L124.814-47.1491L116.049-45.4603Q113.818-45.0026 112.258-45.4875Q110.698-45.9725 109.077-47.5936L96.6958-59.9734Q94.8503-61.8032 94.5138-63.6194Q94.1772-65.4355 95.2614-67.9879L100.755-80.4353Q93.6827-86.3857 84.936-88.449Q76.1894-90.5124 64.5489-88.2474Q63.2585-88.0152 62.8455-88.9171Q62.4325-89.819 63.4907-90.7968Z"/>
  </g>
  <g id="Ultralight-L" transform="matrix(1 0 0 1 471.038 1556)">
   <path d="M17.9069 22.6594L27.5521 32.3009Q31.2247 35.9645 34.6891 35.685Q38.1536 35.4054 42.1426 31.1929L110.115-42.9134L108.303-44.8065L40.3835 29.2603Q37.4081 32.5626 34.7357 32.8039Q32.0633 33.0452 29.5576 30.5329L19.6787 20.654Q17.0874 18.059 17.3663 15.4293Q17.6452 12.7997 20.8671 9.82802L95.1036-58.0107L93.2105-59.822L19.0238 8.06379Q14.7921 11.9738 14.5158 15.483Q14.2395 18.9921 17.9069 22.6594ZM60.4452-92.613Q58.778-90.942 58.7065-89.2647Q58.635-87.5874 59.5018-86.3453Q60.2039-85.4301 61.4702-84.9769Q62.7365-84.5238 64.2453-84.7279Q73.5523-86.2469 81.4341-85.4945Q89.3159-84.7421 96.3162-79.2989L91.1642-67.8258Q89.9005-65.0914 90.4099-62.6769Q90.9192-60.2624 92.9782-58.2072L107.775-43.3347Q109.16-41.9445 110.601-41.5852Q112.042-41.2259 114.52-41.7084L122.988-43.4292L129.735-36.6764L129.669-33.1431Q129.678-30.1318 130.012-28.4653Q130.347-26.7988 132.675-24.5471L137.84-19.4665Q138.885-18.4224 139.901-18.4716Q140.916-18.5207 142.055-19.6541L161.732-39.246Q162.866-40.4613 162.915-41.4838Q162.964-42.5062 161.92-43.4661L156.759-48.5415Q154.337-50.8737 152.796-51.2892Q151.255-51.7048 148.239-51.6281L144.714-51.5655L137.953-58.3273L139.306-65.3953Q139.866-68.4729 139.195-70.8032Q138.525-73.1335 136.225-75.3495L122.843-88.6442Q116.263-95.2298 107.906-98.8666Q99.5496-102.503 90.8579-103.05Q82.1662-103.597 74.2448-101.002Q66.3234-98.407 60.4452-92.613ZM62.1978-90.3701Q67.9791-96.2586 75.6822-98.5844Q83.3853-100.91 91.5926-100.225Q99.7998-99.5393 107.306-96.2663Q114.813-92.9933 120.115-87.6894L134.425-73.376Q136.146-71.6515 136.686-70.0066Q137.227-68.3618 136.736-65.9812L135.074-57.4388L143.687-48.9016L149.187-49.2232Q152.226-49.3841 154.451-47.1629L160.205-41.4071L139.813-21.181L134.223-26.9405Q132.007-29.0709 132.088-32.1104L132.401-37.6989L123.948-46.3217L115.428-44.6329Q113.042-44.1363 111.347-44.6795Q109.651-45.2227 107.926-46.9472L95.6614-59.2105Q93.6866-61.1956 93.3113-63.1863Q92.9361-65.177 94.085-67.8845L99.5394-80.1121Q92.5838-85.8168 83.9922-87.738Q75.4007-89.6592 63.3594-87.5362Q61.9528-87.2912 61.4945-88.2901Q61.0362-89.289 62.1978-90.3701Z"/>
  </g>
  <g id="Black-M" transform="matrix(1 0 0 1 2853.96 1126)">
   <path d="M15.3543 13.1058L25.7381 23.4951Q30.0645 27.8324 35.3231 27.5545Q40.5817 27.2766 45.0486 22.3725L104.173-43.2765L94.3333-53.1214L35.0758 9.44683Q34.5304 9.9505 34.0614 9.99467Q33.5924 10.0388 33.0477 9.49968L29.3442 5.7391Q28.7427 5.14312 28.7923 4.70251Q28.8418 4.26191 29.3973 3.76809L91.8039-55.6453L82.0161-65.485L16.4088-6.25633Q11.5267-1.85175 11.246 3.43252Q10.9653 8.71679 15.3543 13.1058ZM53.582-88.1655Q51.4468-86.0358 51.1737-83.4055Q50.9005-80.7752 52.0646-78.5815Q53.3951-76.1176 56.153-74.7089Q58.911-73.3002 62.5046-74.2733Q68.0097-75.7536 72.6647-75.3998Q77.3197-75.0461 81.3073-72.9359L79.2564-67.7415Q77.6611-63.8062 78.2824-60.4603Q78.9037-57.1145 81.7611-54.1945L91.969-43.9188Q95.6225-40.2708 98.5743-39.1883Q101.526-38.1059 105.358-38.9935L108.4-39.6925L109.497-38.6012L109.247-36.6537Q108.95-34.3923 109.92-32.1715Q110.89-29.9506 113.216-27.6922L117.182-23.7835Q120.094-20.9282 123.556-20.8342Q127.018-20.7402 129.748-23.4755L144.999-38.7264Q147.734-41.4669 147.64-44.9778Q147.546-48.4886 144.691-51.3441L140.777-55.3154Q138.576-57.579 136.329-58.5256Q134.082-59.4722 131.826-59.2331L129.924-59.0347L128.844-60.0579L129.52-63.2108Q130.304-67.0354 129.244-69.9584Q128.184-72.8813 124.512-76.554L115.017-86.0489Q108.303-92.7574 100.25-96.2763Q92.1973-99.7953 83.826-100.084Q75.4546-100.374 67.6383-97.4182Q59.822-94.4629 53.582-88.1655ZM69.6392-84.8684Q73.7364-86.8354 78.1796-87.2853Q82.6228-87.7351 87.0413-86.8086Q91.4597-85.8821 95.5704-83.6063Q99.6811-81.3306 103.171-77.8981L114.256-66.8751Q115.184-65.9533 115.395-65.0366Q115.607-64.1199 115.415-62.8302L114.303-55.9726L123.632-46.6543L128.448-46.8464Q129.42-46.8568 130.066-46.2056L130.676-45.5951L122.531-37.4553L121.926-38.0603Q121.269-38.7172 121.274-39.6895L121.477-44.4999L112.159-53.818L105.274-52.7379Q103.99-52.5519 103.084-52.7609Q102.178-52.9698 101.257-53.8917L94.2439-60.9044Q93.3173-61.82 92.9392-62.8129Q92.5612-63.8059 93.0634-64.9967L97.4879-75.7075Q91.5612-81.9536 84.1695-83.9972Q76.7777-86.0408 69.7824-84.5266Q69.5719-84.4594 69.5054-84.6234Q69.4389-84.7875 69.6392-84.8684Z"/>
  </g>
  <g id="Heavy-M" transform="matrix(1 0 0 1 2559.23 1126)">
   <path d="M15.0829 12.2048L25.0274 22.1657Q29.0824 26.2536 33.9485 25.9836Q38.8146 25.7137 43.048 21.0533L100.829-43.004L92.1724-51.6798L34.3772 9.89925Q33.651 10.6402 32.9736 10.718Q32.2961 10.7959 31.4609 9.97695L27.2553 5.72776Q26.3741 4.86299 26.4695 4.20852Q26.5649 3.55405 27.3307 2.85506L88.5566-55.2792L79.9244-63.9362L16.1189-5.84298Q11.5241-1.67186 11.246 3.20896Q10.9679 8.08978 15.0829 12.2048ZM51.8449-86.6207Q49.8438-84.636 49.596-82.1699Q49.3482-79.7037 50.4481-77.6703Q51.658-75.4772 54.1726-74.2333Q56.6872-72.9894 59.9955-73.8747Q65.499-75.3094 70.3791-74.9862Q75.2592-74.663 79.5728-72.2122L77.3116-66.5368Q75.7965-62.7958 76.4034-59.6873Q77.0103-56.5788 79.6611-53.8679L90.1655-43.2848Q93.3924-40.0742 96.0478-39.175Q98.7032-38.2757 102.123-39.0421L105.696-39.7995L107.324-38.1874L107.082-36.0403Q106.831-33.8663 107.711-31.7998Q108.592-29.7332 110.808-27.596L114.729-23.7201Q117.38-21.1129 120.53-21.024Q123.68-20.9351 126.17-23.4409L141.262-38.5313Q143.768-41.0557 143.679-44.2248Q143.59-47.3938 140.983-49.9987L137.088-53.9346Q134.99-56.0905 132.914-56.9678Q130.837-57.8452 128.679-57.6356L126.543-57.4204L124.964-58.956L125.767-62.6831Q126.481-66.1028 125.51-68.7685Q124.538-71.4341 121.221-74.7495L111.377-84.591Q104.77-91.181 96.953-94.5996Q89.1357-98.0181 81.053-98.2674Q72.9703-98.5167 65.433-95.6148Q57.8958-92.7129 51.8449-86.6207ZM65.8801-83.6656Q70.0935-85.9584 74.714-86.6295Q79.3345-87.3007 83.9632-86.4739Q88.5919-85.6472 92.9093-83.3558Q97.2268-81.0643 100.875-77.4593L112.209-66.1859Q113.141-65.2705 113.349-64.3738Q113.558-63.477 113.348-62.1997L112.115-55.2161L121.026-46.3404L125.854-46.546Q126.97-46.5834 127.714-45.8232L128.868-44.6695L119.751-35.5736L118.618-36.7109Q117.842-37.4851 117.86-38.601L118.099-43.4154L109.225-52.2934L102.16-51.1595Q100.899-50.9657 100.034-51.166Q99.1686-51.3663 98.2532-52.2817L90.5359-59.999Q89.5973-60.9048 89.2789-61.8514Q88.9605-62.7981 89.489-64.0465L93.9058-74.6869Q87.9886-80.7496 80.6141-82.8056Q73.2396-84.8615 66.0976-83.1732Q65.7968-83.09 65.7079-83.3002Q65.6189-83.5104 65.8801-83.6656Z"/>
  </g>
  <g id="Bold-M" transform="matrix(1 0 0 1 2264.73 1126)">
   <path d="M14.7794 11.197L24.2324 20.6786Q27.9839 24.4873 32.4108 24.2264Q36.8378 23.9655 40.81 19.5777L97.0893-42.6991L89.7552-50.067L33.5957 10.4054Q32.6673 11.4116 31.7567 11.5272Q30.8461 11.6427 29.6857 10.5108L24.9185 5.71507Q23.7244 4.54964 23.8711 3.65592Q24.0178 2.76221 25.0189 1.8337L84.924-54.8696L77.5846-62.2037L15.7946-5.38059Q11.5212-1.47064 11.246 2.95887Q10.9708 7.38838 14.7794 11.197ZM49.9018-84.8927Q48.0505-83.0701 47.8311-80.7876Q47.6116-78.5051 48.6398-76.6511Q49.7149-74.7607 51.9572-73.7012Q54.1995-72.6418 57.1886-73.4287Q62.6904-74.8125 67.8223-74.5235Q72.9543-74.2345 77.6325-71.4026L75.1361-65.1893Q73.7106-61.6655 74.3014-58.8225Q74.8922-55.9795 77.3119-53.5025L88.1479-42.5756Q90.8977-39.8544 93.2216-39.1601Q95.5455-38.4657 98.5049-39.0965L102.67-39.9191L104.894-37.7245L104.66-35.3542Q104.46-33.2779 105.24-31.3839Q106.021-29.4899 108.113-27.4884L111.986-23.6491Q114.344-21.3196 117.145-21.2364Q119.946-21.1532 122.167-23.4021L137.083-38.313Q139.332-40.5957 139.248-43.3824Q139.165-46.1691 136.836-48.4935L132.963-52.39Q130.979-54.4253 129.093-55.2252Q127.207-56.0251 125.159-55.8484L122.76-55.6145L120.623-57.7233L121.568-62.0929Q122.204-65.0595 121.332-67.4374Q120.459-69.8153 117.539-72.7309L107.304-82.9601Q100.818-89.4176 93.2645-92.7239Q85.7109-96.0301 77.9511-96.2348Q70.1913-96.4395 62.9662-93.5975Q55.741-90.7554 49.9018-84.8927ZM61.6749-82.3201Q66.0183-84.9773 70.8371-85.896Q75.6559-86.8147 80.5199-86.0996Q85.3838-85.3845 89.9326-83.0755Q94.4813-80.7665 98.308-76.9683L109.919-65.4148Q110.856-64.5067 111.06-63.6323Q111.265-62.7579 111.034-61.4944L109.668-54.3699L118.111-45.9893L122.954-46.21Q124.23-46.2775 125.084-45.3954L126.845-43.634L116.64-33.4686L114.918-35.2014Q114.007-36.1069 114.041-37.3834L114.319-42.2022L105.944-50.5879L98.676-49.3937Q97.4411-49.1914 96.6214-49.3819Q95.8017-49.5725 94.8936-50.4806L86.3879-58.9861Q85.4358-59.8811 85.1842-60.7759Q84.9326-61.6707 85.4905-62.9836L89.8987-73.5452Q83.9922-79.4028 76.637-81.4725Q69.2817-83.5422 61.9756-81.6593Q61.5738-81.5581 61.4597-81.8199Q61.3457-82.0817 61.6749-82.3201Z"/>
  </g>
  <g id="Semibold-M" transform="matrix(1 0 0 1 1969.55 1126)">
   <path d="M14.5701 10.5022L23.6843 19.6535Q27.2265 23.2697 31.3508 23.015Q35.475 22.7602 39.2671 18.5604L94.5109-42.4889L88.0887-48.9552L33.0569 10.7543Q31.9891 11.9435 30.9178 12.085Q29.8465 12.2265 28.462 10.8789L23.3076 5.70632Q21.8978 4.33361 22.0798 3.27496Q22.2619 2.21631 23.4252 1.12958L82.4198-54.5872L75.9716-61.0093L15.571-5.06182Q11.5192-1.33192 11.246 2.78646Q10.9728 6.90483 14.5701 10.5022ZM48.5622-83.7014Q46.8143-81.9906 46.6144-79.8347Q46.4144-77.6788 47.3932-75.9484Q48.3753-74.2667 50.4299-73.3344Q52.4846-72.4021 55.2536-73.1213Q60.7541-74.4699 66.0597-74.2045Q71.3653-73.939 76.2948-70.8445L73.6363-64.2603Q72.2727-60.8863 72.8523-58.2263Q73.432-55.5663 75.6924-53.2506L86.7571-42.0867Q89.1779-39.7028 91.2733-39.1498Q93.3686-38.5967 96.0103-39.134L100.585-40.0015L103.218-37.4054L102.99-34.8812Q102.825-32.8723 103.537-31.0973Q104.248-29.3222 106.255-27.4143L110.095-23.6001Q112.251-21.462 114.812-21.3828Q117.372-21.3035 119.407-23.3754L134.201-38.1625Q136.273-40.2786 136.194-42.8017Q136.115-45.3248 133.977-47.4559L130.118-51.3252Q128.214-53.2773 126.459-54.0238Q124.704-54.7703 122.733-54.6164L120.152-54.3696L117.63-56.8735L118.674-61.686Q119.256-64.3403 118.452-66.5198Q117.647-68.6992 115-71.3393L104.497-81.8358Q98.0935-88.2019 90.7217-91.4307Q83.3498-94.6596 75.8126-94.8336Q68.2755-95.0076 61.2655-92.2067Q54.2556-89.4059 48.5622-83.7014ZM58.776-81.3925Q63.2089-84.3009 68.1644-85.3903Q73.12-86.4796 78.146-85.8415Q83.1721-85.2034 87.8804-82.8823Q92.5887-80.5612 96.538-76.6299L108.34-64.8833Q109.28-63.9802 109.482-63.1211Q109.685-62.2621 109.439-61.0081L107.981-53.7866L116.102-45.7473L120.954-45.9784Q122.341-46.0667 123.27-45.1005L125.45-42.9202L114.496-32.0175L112.367-34.1607Q111.364-35.1567 111.408-36.544L111.713-41.3658L103.681-49.4122L96.2745-48.1764Q95.0574-47.9681 94.269-48.152Q93.4805-48.3358 92.5774-49.2389L83.5284-58.2878Q82.5669-59.1753 82.3614-60.0344Q82.1558-60.8934 82.734-62.2508L87.1362-72.7581Q81.2371-78.4743 73.8951-80.5535Q66.5531-82.6327 59.134-80.6156Q58.6625-80.5021 58.5311-80.7995Q58.3998-81.0968 58.776-81.3925Z"/>
  </g>
  <g id="Medium-M" transform="matrix(1 0 0 1 1674 1126)">
   <path d="M14.4115 9.97535L23.2687 18.8761Q26.6522 22.3465 30.547 22.0964Q34.4417 21.8463 38.0973 17.789L92.5558-42.3295L86.8252-48.1122L32.6484 11.0188Q31.4749 12.3468 30.2817 12.508Q29.0885 12.6692 27.5341 11.158L22.0861 5.69969Q20.5127 4.16981 20.7216 2.9861Q20.9305 1.80239 22.2167 0.595694L80.5209-54.3731L74.7485-60.1036L15.4014-4.82012Q11.5177-1.22674 11.246 2.65573Q10.9743 6.53819 14.4115 9.97535ZM47.5465-82.7981Q45.877-81.1721 45.6918-79.1122Q45.5067-77.0523 46.448-75.4156Q47.3595-73.8922 49.2719-73.0563Q51.1842-72.2203 53.7864-72.8882Q59.286-74.2102 64.7232-73.9626Q70.1605-73.715 75.2806-70.4213L72.499-63.5559Q71.1823-60.2954 71.7536-57.7742Q72.3248-55.253 74.4645-53.0596L85.7024-41.716Q87.8739-39.5879 89.7959-39.142Q91.718-38.696 94.1188-39.1624L99.0036-40.0641L101.948-37.1635L101.724-34.5226Q101.586-32.5647 102.245-30.8799Q102.904-29.1951 104.847-27.358L108.661-23.563Q110.664-21.57 113.042-21.4938Q115.42-21.4175 117.315-23.3551L132.016-38.0484Q133.954-40.0381 133.878-42.3614Q133.802-44.6847 131.809-46.6692L127.962-50.5178Q126.118-52.4068 124.462-53.1129Q122.807-53.8189 120.893-53.6822L118.175-53.4257L115.361-56.2291L116.479-61.3774Q117.02-63.795 116.268-65.824Q115.515-67.853 113.076-70.2841L102.368-80.9832Q96.0276-87.2801 88.7936-90.4503Q81.5595-93.6205 74.1912-93.7711Q66.8228-93.9218 59.976-91.1522Q53.1292-88.3826 47.5465-82.7981ZM56.5778-80.6892Q61.0787-83.7881 66.1379-85.0068Q71.1971-86.2256 76.3461-85.6458Q81.4952-85.066 86.3243-82.7358Q91.1535-80.4055 95.1959-76.3732L107.143-64.4802Q108.086-63.5809 108.286-62.7336Q108.486-61.8862 108.23-60.6394L106.702-53.3442L114.578-45.5638L119.437-45.8027Q120.909-45.9068 121.895-44.8769L124.393-42.3789L112.87-30.9172L110.433-33.3717Q109.36-34.4362 109.412-35.9075L109.738-40.7316L101.966-48.5207L94.4535-47.2534Q93.25-47.0406 92.4853-47.2194Q91.7205-47.3981 90.8212-48.2974L81.3601-57.7584Q80.3916-58.6402 80.221-59.4721Q80.0503-60.3041 80.6439-61.6951L85.0416-72.1612Q79.1481-77.7703 71.8162-79.8567Q64.4842-81.9431 56.9793-79.8242Q56.455-79.7014 56.3105-80.0257Q56.1661-80.35 56.5778-80.6892Z"/>
  </g>
  <g id="Regular-M" transform="matrix(1 0 0 1 1378.8 1126)">
   <path d="M14.2045 9.28819L22.7267 17.8622Q25.9032 21.1423 29.4986 20.8983Q33.0939 20.6543 36.5714 16.7829L90.0057-42.1217L85.177-47.0127L32.1155 11.3639Q30.8042 12.8728 29.452 13.0597Q28.0999 13.2466 26.3238 11.522L20.4928 5.69104Q18.7061 3.95616 18.95 2.60933Q19.1939 1.2625 20.6405-0.100686L78.0442-54.0938L73.1532-58.9223L15.1803-4.50486Q11.5157-1.08954 11.246 2.48521Q10.9763 6.05996 14.2045 9.28819ZM46.2216-81.6199Q44.6543-80.1045 44.4885-78.1698Q44.3227-76.2351 45.2151-74.7206Q46.0347-73.4037 47.7614-72.6935Q49.4881-71.9833 51.8726-72.5841Q57.371-73.8714 62.98-73.6471Q68.589-73.4228 73.9576-69.8693L71.0157-62.6371Q69.7602-59.5248 70.3204-57.1846Q70.8807-54.8444 72.8628-52.8105L84.3269-41.2324Q86.1729-39.438 87.869-39.1318Q89.565-38.8256 91.6517-39.1994L96.941-40.1456L100.29-36.8479L100.073-34.0548Q99.9694-32.1636 100.56-30.5964Q101.151-29.0292 103.01-27.2847L106.79-23.5147Q108.594-21.7109 110.734-21.6386Q112.874-21.5662 114.585-23.3287L129.167-37.8995Q130.929-39.7245 130.857-41.7871Q130.785-43.8497 128.981-45.6429L125.149-49.4646Q123.383-51.2715 121.857-51.9247Q120.332-52.5779 118.493-52.4637L115.596-52.1944L112.402-55.3887L113.616-60.975Q114.104-63.0837 113.419-64.9164Q112.734-66.7492 110.565-68.9078L99.591-79.8713Q93.3329-86.0777 86.2787-89.1714Q79.2244-92.265 72.0762-92.3853Q64.928-92.5055 58.294-89.7767Q51.6601-87.0479 46.2216-81.6199ZM53.7107-79.7719Q58.3002-83.1191 63.4946-84.5067Q68.689-85.8942 73.9984-85.3906Q79.3078-84.8869 84.2947-82.5447Q89.2816-80.2024 93.4454-76.0385L105.581-63.9545Q106.527-63.0602 106.725-62.228Q106.923-61.3959 106.653-60.1585L105.034-52.7673L112.591-45.3244L117.459-45.5736Q119.04-45.6982 120.101-44.5853L123.013-41.6729L110.75-29.482L107.91-32.3425Q106.746-33.4965 106.808-35.0773L107.161-39.9044L99.7282-47.3579L92.0783-46.0495Q90.8926-45.8308 90.1587-46.003Q89.4249-46.1751 88.5305-47.0694L78.532-57.0678Q77.5543-57.9422 77.4292-58.7388Q77.3041-59.5354 77.9176-60.9704L82.3095-71.3828Q76.4233-76.852 69.1045-78.9478Q61.7856-81.0436 54.1689-78.792Q53.5756-78.6569 53.4141-79.0164Q53.2525-79.376 53.7107-79.7719Z"/>
  </g>
  <g id="Light-M" transform="matrix(1 0 0 1 1082.81 1126)">
   <path d="M14.1019 9.39082L22.2989 17.6227Q25.3728 20.766 28.6858 20.5304Q31.9989 20.2949 35.3565 16.6118L88.5513-41.8307L84.7835-45.6609L31.8588 12.4077Q30.2396 14.2418 28.6649 14.4287Q27.0902 14.6156 25.263 12.8223L18.8674 6.42671Q17.0123 4.60645 17.2475 3.04573Q17.4828 1.48501 19.2545-0.169108L76.6925-53.7175L72.8623-57.4849L15.0434-3.63234Q11.4985-0.336616 11.246 2.97293Q10.9935 6.28247 14.1019 9.39082ZM46.4099-81.0211Q44.928-79.5741 44.7964-77.8361Q44.6648-76.0982 45.4887-74.7548Q46.223-73.6262 47.7187-73.0273Q49.2144-72.4283 51.2224-72.892Q57.2511-74.1451 63.0142-73.8097Q68.7773-73.4743 74.1629-69.7152L70.8958-61.9698Q69.7259-59.1654 70.2349-56.9707Q70.7438-54.776 72.6061-52.8789L84.0701-41.3181Q85.6767-39.7459 87.1931-39.4483Q88.7095-39.1507 90.7446-39.5246L96.4276-40.5906L100.359-36.6938L100.193-33.9179Q100.124-31.8899 100.612-30.4082Q101.1-28.9266 102.941-27.182L106.79-23.3606Q108.286-21.865 110.007-21.8269Q111.728-21.7887 113.182-23.2773L127.969-38.0364Q129.458-39.5877 129.419-41.2567Q129.381-42.9257 127.886-44.3938L124.002-48.2497Q122.202-50.0566 120.779-50.6071Q119.356-51.1577 117.363-51.0605L114.518-50.8596L110.691-54.6872L111.854-60.2393Q112.325-62.4334 111.691-64.2577Q111.057-66.0819 109.008-68.1037L98.222-78.8616Q92.3233-84.726 85.4487-87.7341Q78.5741-90.7422 71.5543-90.9565Q64.5345-91.1708 58.0544-88.6645Q51.5744-86.1582 46.4099-81.0211ZM51.9996-79.2072Q56.5548-82.9308 61.9889-84.4468Q67.4229-85.9627 73.0573-85.4505Q78.6917-84.9384 83.9354-82.5362Q89.179-80.134 93.3255-75.987L105.136-64.2112Q106.202-63.18 106.469-62.2109Q106.735-61.2418 106.431-59.8164L104.914-52.6646L112.198-45.4785L116.878-45.7277Q118.698-45.8523 119.965-44.551L123.356-41.1595L109.997-27.8908L106.695-31.2474Q105.36-32.5552 105.422-34.3759L105.74-39.0488L98.5817-46.2629L91.257-44.9545Q89.8659-44.6844 88.9524-44.9335Q88.0389-45.1827 87.0077-46.2139L77.163-56.0581Q76.0142-57.1381 75.8378-58.1657Q75.6614-59.1933 76.3606-60.8336L80.7011-70.955Q74.9689-76.0991 67.8553-78.0068Q60.7418-79.9144 52.5947-77.8508Q51.8476-77.6987 51.6261-78.1866Q51.4045-78.6745 51.9996-79.2072Z"/>
  </g>
  <g id="Thin-M" transform="matrix(1 0 0 1 787.065 1126)">
   <path d="M13.9661 9.52656L21.7331 17.306Q24.6713 20.2682 27.611 20.044Q30.5506 19.8197 33.7496 16.3856L86.6278-41.446L84.263-43.8731L31.5193 13.7883Q29.4928 16.0524 27.6239 16.2393Q25.7549 16.4262 23.86 14.542L16.7176 7.3997Q14.772 5.46651 14.9959 3.62291Q15.2197 1.7793 17.4215-0.2596L74.9047-53.2198L72.4775-55.5838L14.8624-2.47837Q11.4757 0.659183 11.246 3.61797Q11.0163 6.57677 13.9661 9.52656ZM46.6589-80.2291Q45.29-78.8726 45.2036-77.3949Q45.1172-75.9172 45.8507-74.8001Q46.472-73.9205 47.6622-73.4687Q48.8524-73.0169 50.3623-73.2992Q57.0926-74.5071 63.0594-74.0247Q69.0263-73.5424 74.4344-69.5114L70.7373-61.0873Q69.6807-58.6902 70.1218-56.6878Q70.5628-54.6855 72.2665-52.9694L83.7306-41.4314Q85.0205-40.1531 86.2992-39.8669Q87.5779-39.5808 89.545-39.9546L95.7485-41.1792L100.449-36.49L100.351-33.737Q100.327-31.5279 100.679-30.1594Q101.032-28.7908 102.851-27.0463L106.79-23.1568Q107.879-22.0688 109.045-22.0759Q110.212-22.083 111.326-23.2092L126.385-38.2173Q127.511-39.4067 127.518-40.5552Q127.525-41.7037 126.438-42.7418L122.486-46.6429Q120.641-48.4497 119.354-48.8646Q118.066-49.2794 115.87-49.2047L113.092-49.0943L108.428-53.7595L109.522-59.2663Q109.971-61.5733 109.405-63.3864Q108.84-65.1995 106.949-67.0402L96.4114-77.5263Q90.9879-82.9382 84.351-85.8332Q77.7141-88.7282 70.864-89.0668Q64.0139-89.4054 57.7375-87.1934Q51.4611-84.9814 46.6589-80.2291ZM49.7365-78.4605Q54.2465-82.6818 59.9975-84.3675Q65.7485-86.0532 71.8127-85.5298Q77.8769-85.0064 83.4601-82.525Q89.0433-80.0435 93.167-75.919L104.548-64.5508Q105.772-63.3386 106.129-62.1883Q106.486-61.038 106.136-59.3639L104.756-52.5289L111.677-45.6823L116.108-45.9315Q118.246-46.0561 119.784-44.5058L123.808-40.4804L109.001-25.7862L105.089-29.7992Q103.527-31.3104 103.589-33.4481L103.862-37.9173L97.0654-44.8146L90.1707-43.5062Q88.5082-43.168 87.357-43.5191Q86.2059-43.8702 84.9937-45.0823L75.3524-54.7228Q73.9774-56.0746 73.7331-57.4077Q73.4888-58.7409 74.3013-60.6526L78.5737-70.3893Q73.0454-75.1033 66.2033-76.7621Q59.3612-78.4209 50.5126-76.6059Q49.5621-76.4314 49.2613-77.0891Q48.9605-77.7468 49.7365-78.4605Z"/>
  </g>
  <g id="Ultralight-M" transform="matrix(1 0 0 1 490.847 1126)">
   <path d="M13.8966 9.59608L21.4433 17.1438Q24.312 20.0133 27.0604 19.7948Q29.8088 19.5762 32.9266 16.2697L85.6426-41.2489L83.9963-42.9574L31.3454 14.4955Q29.1103 16.9798 27.0906 17.1667Q25.071 17.3536 23.1414 15.4229L15.6165 7.89805Q13.6245 5.90703 13.8426 3.91853Q14.0606 1.93004 16.4826-0.30595L73.989-52.9649L72.2804-54.6101L14.7697-1.88731Q11.464 1.16923 11.246 3.94836Q11.028 6.7275 13.8966 9.59608ZM46.7865-79.8234Q45.4754-78.5133 45.4122-77.1689Q45.349-75.8245 46.0361-74.8232Q46.5996-74.0712 47.6333-73.6948Q48.667-73.3184 49.9218-73.5078Q57.0114-74.6925 63.0826-74.1348Q69.1539-73.5772 74.5734-69.4071L70.6561-60.6353Q69.6575-58.4467 70.0638-56.5429Q70.4701-54.6392 72.0926-53.0157L83.5567-41.4894Q84.6843-40.3617 85.8414-40.0814Q86.9984-39.801 88.9306-40.1749L95.4007-41.4807L100.496-36.3856L100.433-33.6443Q100.432-31.3425 100.714-30.0319Q100.997-28.7213 102.804-26.9768L106.79-23.0524Q107.67-22.1732 108.553-22.2035Q109.435-22.2337 110.376-23.1743L125.574-38.31Q126.514-39.314 126.545-40.1959Q126.575-41.0778 125.696-41.8956L121.709-45.8199Q119.841-47.6267 118.623-47.9721Q117.406-48.3174 115.105-48.2541L112.362-48.19L107.268-53.2843L108.328-58.768Q108.765-61.1328 108.235-62.9401Q107.704-64.7474 105.894-66.4955L95.484-76.8423Q90.304-82.0225 83.7887-84.8595Q77.2735-87.6966 70.5104-88.0989Q63.7473-88.5012 57.5752-86.4399Q51.4031-84.3786 46.7865-79.8234ZM48.5774-78.078Q53.0642-82.5542 58.9775-84.3269Q64.8908-86.0995 71.1752-85.5704Q77.4596-85.0413 83.2167-82.5192Q88.9737-79.9972 93.0858-75.8841L104.246-64.7247Q105.552-63.4198 105.955-62.1767Q106.358-60.9336 105.985-59.1322L104.674-52.4594L111.41-45.7867L115.714-46.0359Q118.014-46.1605 119.691-44.4826L124.04-40.1326L108.491-24.7083L104.266-29.0574Q102.588-30.6728 102.65-32.9729L102.9-37.3377L96.2887-44.0728L89.6143-42.7644Q87.8127-42.3914 86.5399-42.7946Q85.267-43.1979 83.9621-44.5028L74.425-54.0388Q72.9341-55.5299 72.6551-57.0195Q72.376-58.5091 73.2466-60.5599L77.4841-70.0995Q72.0602-74.5933 65.3571-76.1246Q58.6541-77.6559 49.4461-75.9683Q48.3914-75.7824 48.05-76.527Q47.7086-77.2716 48.5774-78.078Z"/>
  </g>
  <g id="Black-S" transform="matrix(1 0 0 1 2870.58 696)">
   <path d="M12.1094 2.92969L20.3613 11.1816Q23.8281 14.6484 28.0518 14.4287Q32.2754 14.209 35.8398 10.3027L82.5684-41.6016L74.5605-49.6094L27.6855-0.292969Q27.2949 0.0488281 26.9775 0.0732422Q26.6602 0.0976562 26.3184-0.244141L23.5352-3.07617Q23.1445-3.4668 23.1689-3.75977Q23.1934-4.05273 23.584-4.39453L72.8516-51.3184L64.8926-59.3262L12.9395-12.5977Q9.0332-9.08203 8.81348-4.83398Q8.59375-0.585938 12.1094 2.92969ZM42.5293-77.1484Q40.8203-75.4395 40.6006-73.3398Q40.3809-71.2402 41.3086-69.4824Q42.3828-67.4805 44.6045-66.333Q46.8262-65.1855 49.707-65.9668Q54.0527-67.1387 57.6416-66.8457Q61.2305-66.5527 64.2578-64.9902L62.6953-61.0352Q61.4258-57.9102 61.9141-55.2246Q62.4023-52.5391 64.6973-50.1953L72.6074-42.2363Q75.5859-39.2578 77.9785-38.3545Q80.3711-37.4512 83.4961-38.1836L85.7422-38.7207L86.4746-37.9883L86.2793-36.5234Q86.0352-34.7168 86.8164-32.9346Q87.5977-31.1523 89.4531-29.3457L92.5781-26.2695Q94.9219-23.9746 97.7051-23.9014Q100.488-23.8281 102.686-26.0254L114.697-38.0371Q116.895-40.2344 116.821-43.0664Q116.748-45.8984 114.453-48.1934L111.377-51.3184Q109.619-53.125 107.812-53.8818Q106.006-54.6387 104.199-54.4434L102.783-54.2969L102.051-54.9805L102.539-57.2754Q103.174-60.4004 102.319-62.7686Q101.465-65.1367 98.4863-68.1152L91.1621-75.4395Q85.8887-80.7129 79.5166-83.4961Q73.1445-86.2793 66.5039-86.5234Q59.8633-86.7676 53.6621-84.4482Q47.4609-82.1289 42.5293-77.1484ZM55.6152-74.4629Q58.7891-75.9277 62.2314-76.2207Q65.6738-76.5137 69.0918-75.7568Q72.5098-75 75.6836-73.2178Q78.8574-71.4355 81.543-68.7988L90.1367-60.2539Q90.8691-59.5215 91.04-58.7891Q91.2109-58.0566 91.0645-57.0312L90.2344-51.709L97.6562-44.2871L101.416-44.4336Q102.148-44.4336 102.637-43.9453L102.979-43.6035L96.8262-37.4512L96.4844-37.793Q95.9961-38.2812 95.9961-39.0137L96.1426-42.7734L88.7207-50.1953L83.3984-49.3652Q82.373-49.2188 81.6406-49.3896Q80.9082-49.5605 80.1758-50.293L74.9023-55.5664Q74.1699-56.2988 73.8525-57.1045Q73.5352-57.9102 73.9258-58.8379L77.3926-67.2363Q72.7539-72.168 66.9678-73.7549Q61.1816-75.3418 55.7129-74.2188Q55.5664-74.1699 55.5176-74.292Q55.4688-74.4141 55.6152-74.4629Z"/>
  </g>
  <g id="Heavy-S" transform="matrix(1 0 0 1 2575.47 696)">
   <path d="M11.8904 2.14602L19.8082 10.0753Q23.056 13.3462 26.98 13.1322Q30.904 12.9182 34.284 9.19639L79.8947-41.4056L72.7627-48.5491L27.1208-0.0394305Q26.615 0.463709 26.1478 0.516934Q25.6806 0.570159 25.0968-0.00212685L21.9563-3.17989Q21.3352-3.78948 21.3999-4.23803Q21.4647-4.68658 21.9936-5.16667L70.247-51.0533L63.1409-58.1852L12.709-12.3556Q9.0332-9.02441 8.81348-5.08752Q8.59375-1.15064 11.8904 2.14602ZM41.0196-75.9038Q39.4143-74.3101 39.2119-72.3257Q39.0094-70.3413 39.8911-68.6988Q40.8731-66.9042 42.9162-65.8836Q44.9592-64.8629 47.6442-65.5865Q51.9207-66.7238 55.6824-66.4712Q59.4442-66.2185 62.7481-64.391L61.0473-60.0902Q59.8354-57.0919 60.3179-54.5908Q60.8004-52.0896 62.934-49.9072L71.0977-41.6832Q73.742-39.0504 75.9041-38.3026Q78.0662-37.5549 80.8455-38.1836L83.4949-38.7553L84.6076-37.6541L84.4123-36.0164Q84.2028-34.3019 84.9206-32.6407Q85.6385-30.9795 87.4018-29.2766L90.4807-26.235Q92.64-24.1129 95.21-24.0397Q97.78-23.9664 99.8044-26.0023L111.655-37.8527Q113.691-39.9002 113.617-42.4902Q113.544-45.0802 111.422-47.2023L108.369-50.2927Q106.703-52.0071 105.029-52.7179Q103.355-53.4286 101.652-53.2563L100.029-53.0868L98.9507-54.1277L99.5542-56.9181Q100.131-59.6859 99.346-61.8351Q98.5607-63.9843 95.8703-66.6747L88.2234-74.3216Q82.996-79.5374 76.8026-82.2457Q70.6091-84.954 64.199-85.152Q57.7889-85.3501 51.8067-83.048Q45.8245-80.746 41.0196-75.9038ZM52.6189-73.5064Q55.8964-75.2017 59.4598-75.6675Q63.0232-76.1334 66.5795-75.463Q70.1357-74.7926 73.4536-73.0046Q76.7715-71.2166 79.5953-68.43L88.4426-59.6316Q89.1635-58.9222 89.3229-58.2244Q89.4823-57.5265 89.3243-56.5357L88.3789-51.0751L95.4781-43.999L99.2725-44.157Q100.097-44.1801 100.643-43.6226L101.388-42.8775L94.5443-36.0452L93.8107-36.7788Q93.2417-37.3478 93.2533-38.1724L93.4343-41.9552L86.3582-49.0313L80.84-48.1552Q79.8607-48.0087 79.1859-48.1623Q78.5111-48.3159 77.8017-49.0253L71.906-54.921Q71.1851-55.6189 70.9253-56.3554Q70.6656-57.0919 71.0677-58.0427L74.5345-66.4181Q69.8843-71.2345 64.0867-72.856Q58.289-74.4775 52.7626-73.1815Q52.5585-73.1212 52.4982-73.2663Q52.4378-73.4114 52.6189-73.5064Z"/>
  </g>
  <g id="Bold-S" transform="matrix(1 0 0 1 2280.55 696)">
   <path d="M11.6455 1.26953L19.1895 8.83789Q22.1924 11.8896 25.7812 11.6821Q29.3701 11.4746 32.5439 7.95898L76.9043-41.1865L70.752-47.3633L26.4893 0.244141Q25.8545 0.927734 25.2197 1.01318Q24.585 1.09863 23.7305 0.268555L20.1904-3.2959Q19.3115-4.15039 19.4214-4.77295Q19.5312-5.39551 20.2148-6.03027L67.334-50.7568L61.1816-56.9092L12.4512-12.085Q9.0332-8.95996 8.81348-5.37109Q8.59375-1.78223 11.6455 1.26953ZM39.3311-74.5117Q37.8418-73.0469 37.6587-71.1914Q37.4756-69.3359 38.3057-67.8223Q39.1846-66.2598 41.0278-65.3809Q42.8711-64.502 45.3369-65.1611Q49.5361-66.2598 53.4912-66.0522Q57.4463-65.8447 61.0596-63.7207L59.2041-59.0332Q58.0566-56.1768 58.5327-53.8818Q59.0088-51.5869 60.9619-49.585L69.4092-41.0645Q71.6797-38.8184 73.584-38.2446Q75.4883-37.6709 77.8809-38.1836L80.9814-38.7939L82.5195-37.2803L82.3242-35.4492Q82.1533-33.8379 82.8003-32.312Q83.4473-30.7861 85.1074-29.1992L88.1348-26.1963Q90.0879-24.2676 92.4194-24.1943Q94.751-24.1211 96.582-25.9766L108.252-37.6465Q110.107-39.5264 110.034-41.8457Q109.961-44.165 108.032-46.0938L105.005-49.1455Q103.442-50.7568 101.917-51.416Q100.391-52.0752 98.8037-51.9287L96.9482-51.7334L95.4834-53.1738L96.2158-56.5186Q96.7285-58.8867 96.0205-60.791Q95.3125-62.6953 92.9443-65.0635L84.9365-73.0713Q79.7607-78.2227 73.7671-80.8472Q67.7734-83.4717 61.6211-83.6182Q55.4688-83.7646 49.7314-81.4819Q43.9941-79.1992 39.3311-74.5117ZM49.2676-72.4365Q52.6611-74.3896 56.3599-75.0488Q60.0586-75.708 63.7695-75.1343Q67.4805-74.5605 70.9595-72.7661Q74.4385-70.9717 77.417-68.0176L86.5479-58.9355Q87.2559-58.252 87.4023-57.5928Q87.5488-56.9336 87.3779-55.9814L86.3037-50.3662L93.042-43.6768L96.875-43.8477Q97.8027-43.8965 98.4131-43.2617L99.6094-42.0654L91.9922-34.4727L90.8203-35.6445Q90.1611-36.3037 90.1855-37.2314L90.4053-41.04L83.7158-47.7295L77.9785-46.8018Q77.0508-46.6553 76.4404-46.7896Q75.8301-46.9238 75.1465-47.6074L68.5547-54.1992Q67.8467-54.8584 67.6514-55.5176Q67.4561-56.1768 67.8711-57.1533L71.3379-65.5029Q66.6748-70.1904 60.8643-71.8506Q55.0537-73.5107 49.4629-72.0215Q49.1943-71.9482 49.1211-72.1191Q49.0479-72.29 49.2676-72.4365Z"/>
  </g>
  <g id="Semibold-S" transform="matrix(1 0 0 1 1985.08 696)">
   <path d="M11.4767 0.665234L18.7629 7.98477Q21.597 10.8854 24.9548 10.6824Q28.3126 10.4793 31.3442 7.10586L74.8426-41.0354L69.3656-46.5457L26.0538 0.439648Q25.3302 1.24766 24.5799 1.35532Q23.8296 1.46299 22.7885 0.455176L18.9729-3.37588Q17.9163-4.39922 18.0573-5.14175Q18.1982-5.88428 18.9885-6.62568L65.3256-50.5524L59.8309-56.0294L12.2734-11.8983Q9.0332-8.91553 8.81348-5.5666Q8.59375-2.21768 11.4767 0.665234ZM38.1669-73.552Q36.7576-72.176 36.5878-70.4094Q36.4181-68.6428 37.2126-67.218Q38.0204-65.8154 39.7259-65.0343Q41.4314-64.2531 43.7462-64.8679Q47.8921-65.9398 51.9805-65.7634Q56.0688-65.587 59.8954-63.2586L57.9333-58.3045Q56.8303-55.5458 57.3019-53.3931Q57.7735-51.2403 59.6022-49.3628L68.245-40.6379Q70.2578-38.6584 71.9844-38.2046Q73.7109-37.7509 75.8369-38.1836L79.2485-38.8206L81.0799-37.0226L80.8846-35.0582Q80.7403-33.518 81.3384-32.0854Q81.9365-30.6528 83.5256-29.1459L86.5174-26.1696Q88.3283-24.3742 90.4955-24.301Q92.6626-24.2277 94.3604-25.9588L105.906-37.5043Q107.637-39.2687 107.564-41.4014Q107.49-43.5341 105.695-45.3295L102.685-48.3546Q101.194-49.8948 99.7704-50.5185Q98.3467-51.1421 96.8397-51.0134L94.8243-50.8003L93.0929-52.5162L93.9142-56.2431Q94.3824-58.3357 93.7277-60.0712Q93.073-61.8066 90.9271-63.9526L82.6704-72.2093Q77.5302-77.3162 71.6743-79.883Q65.8184-82.4497 59.8438-82.5606Q53.8691-82.6716 48.3007-80.4022Q42.7322-78.1328 38.1669-73.552ZM46.957-71.6989Q50.4306-73.8298 54.2226-74.6223Q58.0146-75.4147 61.8322-74.9077Q65.6498-74.4006 69.2399-72.6017Q72.83-70.8028 75.9151-67.7332L85.2415-58.4557Q85.9406-57.7898 86.0782-57.1573Q86.2158-56.5248 86.036-55.5993L84.8729-49.8774L91.3624-43.4546L95.2221-43.6344Q96.2209-43.701 96.8757-43.0129L98.383-41.5056L90.2326-33.3885L88.7586-34.8625Q88.0372-35.5839 88.0705-36.5827L88.3169-40.4091L81.894-46.8319L76.0057-45.8687Q75.1135-45.7222 74.5476-45.8431Q73.9816-45.9641 73.3158-46.6299L66.2441-53.7016Q65.545-54.3341 65.3941-54.9399Q65.2433-55.5458 65.6672-56.5401L69.134-64.872Q64.462-69.4706 58.6426-71.1574Q52.8231-72.8442 47.1879-71.2217Q46.8749-71.1396 46.7928-71.3282Q46.7106-71.5169 46.957-71.6989Z"/>
  </g>
  <g id="Medium-S" transform="matrix(1 0 0 1 1689.3 696)">
   <path d="M11.3486 0.207031L18.4395 7.33789Q21.1455 10.124 24.3281 9.92432Q27.5107 9.72461 30.4346 6.45898L73.2793-40.9209L68.3145-45.9258L25.7236 0.587891Q24.9326 1.49023 24.0947 1.61475Q23.2568 1.73926 22.0742 0.59668L18.0498-3.43652Q16.8584-4.58789 17.0229-5.42139Q17.1875-6.25488 18.0586-7.07715L63.8027-50.3975L58.8066-55.3623L12.1387-11.7568Q9.0332-8.88184 8.81348-5.71484Q8.59375-2.54785 11.3486 0.207031ZM37.2842-72.8242Q35.9355-71.5156 35.7759-69.8164Q35.6162-68.1172 36.3838-66.7598Q37.1377-65.4785 38.7388-64.7715Q40.3398-64.0645 42.54-64.6455Q46.6455-65.6973 50.835-65.5444Q55.0244-65.3916 59.0127-62.9082L56.9697-57.752Q55.9004-55.0674 56.3687-53.0225Q56.8369-50.9775 58.5713-49.1943L67.3623-40.3145Q69.1797-38.5371 70.7715-38.1743Q72.3633-37.8115 74.2871-38.1836L77.9346-38.8408L79.9883-36.8271L79.793-34.7617Q79.6689-33.2754 80.23-31.9136Q80.791-30.5518 82.3262-29.1055L85.291-26.1494Q86.9941-24.4551 89.0366-24.3818Q91.0791-24.3086 92.6758-25.9453L104.127-37.3965Q105.764-39.0732 105.69-41.0645Q105.617-43.0557 103.923-44.75L100.927-47.7549Q99.4893-49.2412 98.1431-49.8379Q96.7969-50.4346 95.3506-50.3193L93.2139-50.0928L91.2803-52.0176L92.1689-56.0342Q92.6035-57.918 91.9893-59.5254Q91.375-61.1328 89.3975-63.1104L80.9521-71.5557Q75.8389-76.6289 70.0874-79.1519Q64.3359-81.6748 58.4961-81.7588Q52.6562-81.8428 47.2158-79.5835Q41.7754-77.3242 37.2842-72.8242ZM45.2051-71.1396Q48.7393-73.4053 52.6021-74.2988Q56.4648-75.1924 60.3633-74.7358Q64.2617-74.2793 67.936-72.4771Q71.6104-70.6748 74.7764-67.5176L84.251-58.0918Q84.9434-57.4395 85.0742-56.8271Q85.2051-56.2148 85.0186-55.3096L83.7881-49.5068L90.0889-43.2861L93.9688-43.4727Q95.0215-43.5527 95.71-42.8242L97.4531-41.0811L88.8984-32.5664L87.1953-34.2695Q86.4268-35.0381 86.4668-36.0908L86.7334-39.9307L80.5127-46.1514L74.5098-45.1611Q73.6445-45.0146 73.1123-45.1255Q72.5801-45.2363 71.9277-45.8887L64.4922-53.3242Q63.7998-53.9365 63.6826-54.502Q63.5654-55.0674 63.9961-56.0752L67.4629-64.3936Q62.7842-68.9248 56.958-70.6318Q51.1318-72.3389 45.4629-70.6152Q45.1162-70.5264 45.0273-70.7285Q44.9385-70.9307 45.2051-71.1396Z"/>
  </g>
  <g id="Regular-S" transform="matrix(1 0 0 1 1393.81 696)">
   <path d="M11.1816-0.390625L18.0176 6.49414Q20.5566 9.13086 23.5107 8.93555Q26.4648 8.74023 29.248 5.61523L71.2402-40.7715L66.9434-45.1172L25.293 0.78125Q24.4141 1.80664 23.4619 1.95312Q22.5098 2.09961 21.1426 0.78125L16.8457-3.51562Q15.4785-4.83398 15.6738-5.78613Q15.8691-6.73828 16.8457-7.66602L61.8164-50.1953L57.4707-54.4922L11.9629-11.5723Q9.0332-8.83789 8.81348-5.9082Q8.59375-2.97852 11.1816-0.390625ZM36.1328-71.875Q34.8633-70.6543 34.7168-69.043Q34.5703-67.4316 35.3027-66.1621Q35.9863-65.0391 37.4512-64.4287Q38.916-63.8184 40.9668-64.3555Q45.0195-65.3809 49.3408-65.2588Q53.6621-65.1367 57.8613-62.4512L55.7129-57.0312Q54.6875-54.4434 55.1514-52.5391Q55.6152-50.6348 57.2266-48.9746L66.2109-39.8926Q67.7734-38.3789 69.1895-38.1348Q70.6055-37.8906 72.2656-38.1836L76.2207-38.8672L78.5645-36.5723L78.3691-34.375Q78.2715-32.959 78.7842-31.6895Q79.2969-30.4199 80.7617-29.0527L83.6914-26.123Q85.2539-24.5605 87.1338-24.4873Q89.0137-24.4141 90.4785-25.9277L101.807-37.2559Q103.32-38.8184 103.247-40.625Q103.174-42.4316 101.611-43.9941L98.6328-46.9727Q97.2656-48.3887 96.0205-48.9502Q94.7754-49.5117 93.4082-49.4141L91.1133-49.1699L88.916-51.3672L89.8926-55.7617Q90.2832-57.373 89.7217-58.8135Q89.1602-60.2539 87.4023-62.0117L78.7109-70.7031Q73.6328-75.7324 68.0176-78.1982Q62.4023-80.6641 56.7383-80.7129Q51.0742-80.7617 45.8008-78.5156Q40.5273-76.2695 36.1328-71.875ZM42.9199-70.4102Q46.5332-72.8516 50.4883-73.877Q54.4434-74.9023 58.4473-74.5117Q62.4512-74.1211 66.2354-72.3145Q70.0195-70.5078 73.291-67.2363L82.959-57.6172Q83.6426-56.9824 83.7646-56.3965Q83.8867-55.8105 83.6914-54.9316L82.373-49.0234L88.4277-43.0664L92.334-43.2617Q93.457-43.3594 94.1895-42.5781L96.2402-40.5273L87.1582-31.4941L85.1562-33.4961Q84.3262-34.3262 84.375-35.4492L84.668-39.3066L78.7109-45.2637L72.5586-44.2383Q71.7285-44.0918 71.2402-44.1895Q70.752-44.2871 70.1172-44.9219L62.207-52.832Q61.5234-53.418 61.4502-53.9307Q61.377-54.4434 61.8164-55.4688L65.2832-63.7695Q60.5957-68.2129 54.7607-69.9463Q48.9258-71.6797 43.2129-69.8242Q42.8223-69.7266 42.7246-69.9463Q42.627-70.166 42.9199-70.4102Z"/>
  </g>
  <g id="Light-S" transform="matrix(1 0 0 1 1097.75 696)">
   <path d="M11.0909-0.299835L17.6392 6.2823Q20.0874 8.79796 22.7918 8.61015Q25.4962 8.42234 28.1733 5.46392L69.9537-40.5141L66.5952-43.9214L25.0659 1.70466Q23.9146 3.01768 22.7656 3.16416Q21.6166 3.31065 20.2042 1.93151L15.4078-2.86484Q13.9801-4.25873 14.1678-5.40009Q14.3555-6.54144 15.6197-7.72654L60.6206-49.8624L57.2133-53.2206L11.8418-10.8004Q9.01794-8.17184 8.81348-5.47676Q8.60901-2.78168 11.0909-0.299835ZM36.2994-71.3453Q35.1054-70.1851 34.9892-68.7478Q34.8729-67.3106 35.5448-66.1924Q36.1529-65.2359 37.4134-64.724Q38.6739-64.212 40.3915-64.6278Q44.9135-65.623 49.3711-65.4026Q53.8287-65.1822 58.0429-62.3149L55.6068-56.441Q54.6572-54.1255 55.0757-52.3499Q55.4942-50.5742 56.9995-49.0351L65.9838-39.9684Q67.3345-38.6513 68.5916-38.4148Q69.8486-38.1783 71.4633-38.4712L75.7665-39.2609L78.625-36.436L78.4752-34.2539Q78.4078-32.7169 78.8296-31.523Q79.2514-30.3291 80.7012-28.9619L83.6914-25.9867Q84.9815-24.6969 86.4905-24.6539Q87.9995-24.6109 89.2372-25.8822L100.747-37.3769Q102.018-38.6973 101.976-40.1558Q101.933-41.6143 100.643-42.8891L97.6186-45.8979Q96.2212-47.3139 95.0668-47.7847Q93.9125-48.2554 92.4093-48.1728L90.1596-47.9891L87.4023-50.7467L88.3334-55.1109Q88.709-56.7978 88.1929-58.2307Q87.6767-59.6636 86.025-61.3004L77.4999-69.81Q72.7397-74.5366 67.2834-76.9268Q61.8271-79.317 56.2766-79.449Q50.7261-79.5809 45.5888-77.5317Q40.4516-75.4824 36.2994-71.3453ZM41.4062-69.9107Q44.9893-72.685 49.1563-73.8239Q53.3234-74.9629 57.6148-74.5647Q61.9062-74.1666 65.9175-72.307Q69.9287-70.4473 73.185-67.1908L82.5653-57.8443Q83.3549-57.0885 83.5375-56.3814Q83.7201-55.6742 83.4946-54.629L82.267-48.9326L88.0796-43.2027L91.8193-43.398Q93.1544-43.4957 94.0684-42.5479L96.5429-40.0731L86.4922-30.0865L84.0815-32.5274Q83.1001-33.4936 83.149-34.8287L83.4117-38.5498L77.6967-44.295L71.832-43.2696Q70.8204-43.0776 70.1731-43.2434Q69.5259-43.4092 68.7701-44.165L60.996-51.9389Q60.1611-52.7067 60.0424-53.4237Q59.9238-54.1407 60.439-55.3477L63.8603-63.3911Q59.3091-67.5468 53.6558-69.1138Q48.0024-70.6807 41.8203-68.9916Q41.2936-68.8789 41.1429-69.2122Q40.9922-69.5455 41.4062-69.9107Z"/>
  </g>
  <g id="Thin-S" transform="matrix(1 0 0 1 801.886 696)">
   <path d="M10.9708-0.179758L17.1387 6.00212Q19.4669 8.35768 21.8409 8.17979Q24.215 8.00191 26.7519 5.26379L68.2521-40.1737L66.1347-42.3399L24.7655 2.92595Q23.254 4.61938 21.8447 4.76586Q20.4354 4.91235 18.963 3.45282L13.5061-2.00412Q11.9983-3.49791 12.1759-4.88951Q12.3535-6.28111 13.9981-7.80659L59.0391-49.4221L56.873-51.5389L11.6817-9.7796Q8.99776-7.29094 8.81348-4.90614Q8.62919-2.52134 10.9708-0.179758ZM36.5197-70.6446Q35.4256-69.5645 35.3494-68.3575Q35.2732-67.1505 35.865-66.2324Q36.3732-65.4962 37.3635-65.1145Q38.3537-64.7327 39.6307-64.9881Q44.7732-65.9432 49.4111-65.5928Q54.049-65.2424 58.2831-62.1346L55.4666-55.6603Q54.6172-53.705 54.9756-52.0996Q55.3341-50.4942 56.6991-49.1152L65.6835-40.0686Q66.754-39.0115 67.8008-38.7851Q68.8477-38.5587 70.4021-38.8516L75.1658-39.7815L78.705-36.2557L78.6154-34.0938Q78.5881-32.3967 78.8896-31.3029Q79.1911-30.2091 80.6211-28.8419L83.6914-25.8065Q84.6213-24.8771 85.6397-24.8742Q86.6581-24.8712 87.5955-25.822L99.3459-37.537Q100.297-38.5372 100.294-39.5352Q100.291-40.5333 99.3615-41.4277L96.2772-44.4765Q94.8398-45.8925 93.8055-46.2432Q92.7713-46.5938 91.0881-46.531L88.8983-46.4275L85.4004-49.926L86.2712-54.2502Q86.627-56.037 86.1709-57.46Q85.7148-58.883 84.2033-60.3596L75.8982-68.6287Q71.5584-72.9551 66.3123-75.2452Q61.0663-77.5353 55.6659-77.7773Q50.2656-78.0193 45.3085-76.2304Q40.3513-74.4414 36.5197-70.6446ZM39.4043-69.2501Q42.9473-72.4647 47.3947-73.7538Q51.8421-75.0429 56.5137-74.6349Q61.1854-74.2268 65.497-72.297Q69.8087-70.3672 73.0447-67.1306L82.0446-58.1446Q82.9745-57.2287 83.2372-56.3613Q83.4998-55.494 83.2342-54.2288L82.1267-48.8126L87.6191-43.383L91.1385-43.5783Q92.7541-43.676 93.9083-42.5078L96.9431-39.4724L85.6113-28.2248L82.6601-31.2463Q81.4786-32.3923 81.5274-34.008L81.7501-37.5488L76.3554-43.0138L70.8711-41.9884Q69.6193-41.7362 68.7618-41.9922Q67.9044-42.2481 66.9884-43.1641L59.3943-50.7576Q58.3593-51.7659 58.1806-52.7532Q58.0019-53.7405 58.6174-55.1876L61.9784-62.8906Q57.6075-66.6659 52.1943-68.0128Q46.7811-69.3596 39.9784-67.8904Q39.2718-67.7579 39.051-68.2413Q38.8302-68.7248 39.4043-69.2501Z"/>
  </g>
  <g id="Ultralight-S" transform="matrix(1 0 0 1 505.611 696)">
   <path d="M10.9093-0.118256L16.8823 5.85861Q19.149 8.13217 21.3539 7.95937Q23.5588 7.78656 26.0239 5.16129L67.3805-39.9994L65.8989-41.5298L24.6117 3.55148Q22.9156 5.43976 21.373 5.58624Q19.8303 5.73273 18.3273 4.23203L12.532-1.56326Q10.9833-3.10822 11.1557-4.62799Q11.3281-6.14777 13.1676-7.8476L58.2291-49.1966L56.6986-50.6775L11.5997-9.25674Q8.98743-6.83975 8.81348-4.61388Q8.63953-2.388 10.9093-0.118256ZM36.6325-70.2858Q35.5896-69.2467 35.5339-68.1576Q35.4782-67.0685 36.0291-66.2529Q36.4861-65.6296 37.3379-65.3145Q38.1897-64.9994 39.241-65.1726Q44.7014-66.1072 49.4316-65.6902Q54.1618-65.2733 58.4061-62.0422L55.3947-55.2605Q54.5967-53.4897 54.9244-51.9714Q55.2521-50.4532 56.5453-49.1562L65.5296-40.1199Q66.4566-39.196 67.3958-38.9748Q68.335-38.7535 69.8586-39.0465L74.8581-40.0482L78.746-36.1633L78.6873-34.0118Q78.6804-32.2327 78.9204-31.1901Q79.1603-30.1476 80.5801-28.7804L83.6914-25.7141Q84.4368-24.9695 85.2039-24.987Q85.9711-25.0046 86.7546-25.7912L98.6282-37.619Q99.4148-38.4552 99.4324-39.2174Q99.4499-39.9796 98.7053-40.6792L95.5902-43.7485Q94.1322-45.1645 93.1595-45.4536Q92.1867-45.7428 90.4114-45.6902L88.2523-45.6276L84.375-49.5056L85.215-53.8094Q85.5606-55.6473 85.1353-57.0652Q84.7099-58.4831 83.2703-59.8778L75.0778-68.0237Q70.9534-72.1451 65.815-74.3839Q60.6766-76.6228 55.3532-76.9211Q50.0298-77.2194 45.1649-75.5638Q40.3-73.9082 36.6325-70.2858ZM38.3789-68.9117Q41.9014-72.3518 46.4924-73.7179Q51.0834-75.0839 55.9498-74.6708Q60.8162-74.2577 65.2817-72.2919Q69.7472-70.3262 72.9729-67.0998L81.778-58.2985Q82.7797-57.3006 83.0833-56.3511Q83.387-55.4016 83.1009-54.0237L82.0549-48.7511L87.3833-43.4753L90.7898-43.6707Q92.5491-43.7683 93.8263-42.4873L97.1481-39.1647L85.1601-27.2713L81.9321-30.5901Q80.648-31.8283 80.6969-33.5876L80.899-37.0361L75.6683-42.3576L70.3789-41.3322Q69.0041-41.0492 68.0389-41.3513Q67.0738-41.6534 66.0759-42.6514L58.5739-50.1526Q57.4364-51.284 57.2269-52.4097Q57.0175-53.5355 57.6843-55.1056L61.0146-62.6343Q56.736-66.2148 51.4458-67.4488Q46.1555-68.6829 39.035-67.3264Q38.2362-67.1837 37.9795-67.7441Q37.7228-68.3044 38.3789-68.9117Z"/>
  </g>
 </g>
</svg>
