<?xml version="1.0" encoding="UTF-8"?>
<!--Generator: Apple Native CoreSVG 175-->
<!DOCTYPE svg
PUBLIC "-//W3C//DTD SVG 1.1//EN"
       "http://www.w3.org/Graphics/SVG/1.1/DTD/svg11.dtd">
<svg version="1.1" xmlns="http://www.w3.org/2000/svg" xmlns:xlink="http://www.w3.org/1999/xlink" width="3300" height="2200">
 <!--glyph: "uni100DD4.medium", point size: 100.0, font version: "17.3d3e1", template writer version: "65.1"-->
 <g id="Notes">
  <rect height="2200" id="artboard" style="fill:white;opacity:1" width="3300" x="0" y="0"/>
  <line style="fill:none;stroke:black;opacity:1;stroke-width:0.5;" x1="263" x2="3036" y1="292" y2="292"/>
  <text style="stroke:none;fill:black;font-family:sans-serif;font-size:13;font-weight:bold;" transform="matrix(1 0 0 1 263 322)">Weight/Scale Variations</text>
  <text style="stroke:none;fill:black;font-family:sans-serif;font-size:13;text-anchor:middle;" transform="matrix(1 0 0 1 559.711 322)">Ultralight</text>
  <text style="stroke:none;fill:black;font-family:sans-serif;font-size:13;text-anchor:middle;" transform="matrix(1 0 0 1 856.422 322)">Thin</text>
  <text style="stroke:none;fill:black;font-family:sans-serif;font-size:13;text-anchor:middle;" transform="matrix(1 0 0 1 1153.13 322)">Light</text>
  <text style="stroke:none;fill:black;font-family:sans-serif;font-size:13;text-anchor:middle;" transform="matrix(1 0 0 1 1449.84 322)">Regular</text>
  <text style="stroke:none;fill:black;font-family:sans-serif;font-size:13;text-anchor:middle;" transform="matrix(1 0 0 1 1746.56 322)">Medium</text>
  <text style="stroke:none;fill:black;font-family:sans-serif;font-size:13;text-anchor:middle;" transform="matrix(1 0 0 1 2043.27 322)">Semibold</text>
  <text style="stroke:none;fill:black;font-family:sans-serif;font-size:13;text-anchor:middle;" transform="matrix(1 0 0 1 2339.98 322)">Bold</text>
  <text style="stroke:none;fill:black;font-family:sans-serif;font-size:13;text-anchor:middle;" transform="matrix(1 0 0 1 2636.69 322)">Heavy</text>
  <text style="stroke:none;fill:black;font-family:sans-serif;font-size:13;text-anchor:middle;" transform="matrix(1 0 0 1 2933.4 322)">Black</text>
  <line style="fill:none;stroke:black;opacity:1;stroke-width:0.5;" x1="263" x2="3036" y1="1903" y2="1903"/>
  <g transform="matrix(1 0 0 1 263 1933)">
   <path d="M9.24805 0.830078Q10.8691 0.830078 12.2949 0.214844Q13.7207-0.400391 14.8096-1.49414Q15.8984-2.58789 16.5186-4.01367Q17.1387-5.43945 17.1387-7.05078Q17.1387-8.66211 16.5186-10.0879Q15.8984-11.5137 14.8047-12.6074Q13.7109-13.7012 12.2852-14.3164Q10.8594-14.9316 9.23828-14.9316Q7.62695-14.9316 6.20117-14.3164Q4.77539-13.7012 3.69141-12.6074Q2.60742-11.5137 1.9873-10.0879Q1.36719-8.66211 1.36719-7.05078Q1.36719-5.43945 1.9873-4.01367Q2.60742-2.58789 3.69629-1.49414Q4.78516-0.400391 6.21094 0.214844Q7.63672 0.830078 9.24805 0.830078ZM9.24805-0.654297Q7.91992-0.654297 6.7627-1.14746Q5.60547-1.64062 4.73145-2.51953Q3.85742-3.39844 3.36426-4.56055Q2.87109-5.72266 2.87109-7.05078Q2.87109-8.37891 3.35938-9.54102Q3.84766-10.7031 4.72168-11.582Q5.5957-12.4609 6.75293-12.9541Q7.91016-13.4473 9.23828-13.4473Q10.5762-13.4473 11.7334-12.9541Q12.8906-12.4609 13.7695-11.582Q14.6484-10.7031 15.1465-9.54102Q15.6445-8.37891 15.6445-7.05078Q15.6445-5.72266 15.1514-4.56055Q14.6582-3.39844 13.7842-2.51953Q12.9102-1.64062 11.748-1.14746Q10.5859-0.654297 9.24805-0.654297ZM5.6543-7.05078Q5.6543-6.72852 5.85938-6.52832Q6.06445-6.32812 6.40625-6.32812L8.51562-6.32812L8.51562-4.20898Q8.51562-3.88672 8.71094-3.67676Q8.90625-3.4668 9.23828-3.4668Q9.56055-3.4668 9.77051-3.67676Q9.98047-3.88672 9.98047-4.20898L9.98047-6.32812L12.0898-6.32812Q12.4219-6.32812 12.627-6.52832Q12.832-6.72852 12.832-7.05078Q12.832-7.38281 12.627-7.58789Q12.4219-7.79297 12.0898-7.79297L9.98047-7.79297L9.98047-9.90234Q9.98047-10.2344 9.77051-10.4443Q9.56055-10.6543 9.23828-10.6543Q8.90625-10.6543 8.71094-10.4443Q8.51562-10.2344 8.51562-9.90234L8.51562-7.79297L6.40625-7.79297Q6.06445-7.79297 5.85938-7.58789Q5.6543-7.38281 5.6543-7.05078Z"/>
  </g>
  <g transform="matrix(1 0 0 1 281.867 1933)">
   <path d="M11.709 2.91016Q13.75 2.91016 15.5518 2.12891Q17.3535 1.34766 18.7305-0.0292969Q20.1074-1.40625 20.8887-3.20801Q21.6699-5.00977 21.6699-7.05078Q21.6699-9.0918 20.8887-10.8936Q20.1074-12.6953 18.7305-14.0723Q17.3535-15.4492 15.5469-16.2305Q13.7402-17.0117 11.6992-17.0117Q9.6582-17.0117 7.85645-16.2305Q6.05469-15.4492 4.68262-14.0723Q3.31055-12.6953 2.5293-10.8936Q1.74805-9.0918 1.74805-7.05078Q1.74805-5.00977 2.5293-3.20801Q3.31055-1.40625 4.6875-0.0292969Q6.06445 1.34766 7.86621 2.12891Q9.66797 2.91016 11.709 2.91016ZM11.709 1.25Q9.98047 1.25 8.47656 0.605469Q6.97266-0.0390625 5.83496-1.17676Q4.69727-2.31445 4.05762-3.81836Q3.41797-5.32227 3.41797-7.05078Q3.41797-8.7793 4.05762-10.2832Q4.69727-11.7871 5.83008-12.9297Q6.96289-14.0723 8.4668-14.7119Q9.9707-15.3516 11.6992-15.3516Q13.4277-15.3516 14.9316-14.7119Q16.4355-14.0723 17.5781-12.9297Q18.7207-11.7871 19.3652-10.2832Q20.0098-8.7793 20.0098-7.05078Q20.0098-5.32227 19.3701-3.81836Q18.7305-2.31445 17.5928-1.17676Q16.4551-0.0390625 14.9463 0.605469Q13.4375 1.25 11.709 1.25ZM7.17773-7.05078Q7.17773-6.69922 7.41211-6.47461Q7.64648-6.25 8.01758-6.25L10.8887-6.25L10.8887-3.36914Q10.8887-2.99805 11.1133-2.76855Q11.3379-2.53906 11.6895-2.53906Q12.0605-2.53906 12.29-2.76855Q12.5195-2.99805 12.5195-3.36914L12.5195-6.25L15.4004-6.25Q15.7715-6.25 16.001-6.47461Q16.2305-6.69922 16.2305-7.05078Q16.2305-7.42188 16.001-7.65137Q15.7715-7.88086 15.4004-7.88086L12.5195-7.88086L12.5195-10.752Q12.5195-11.1328 12.29-11.3623Q12.0605-11.5918 11.6895-11.5918Q11.3379-11.5918 11.1133-11.3574Q10.8887-11.123 10.8887-10.752L10.8887-7.88086L8.01758-7.88086Q7.63672-7.88086 7.40723-7.65137Q7.17773-7.42188 7.17773-7.05078Z"/>
  </g>
  <g transform="matrix(1 0 0 1 305.646 1933)">
   <path d="M14.9707 5.66406Q17.0605 5.66406 18.96 5.01465Q20.8594 4.36523 22.4512 3.19336Q24.043 2.02148 25.2197 0.429688Q26.3965-1.16211 27.0459-3.06641Q27.6953-4.9707 27.6953-7.05078Q27.6953-9.14062 27.0459-11.04Q26.3965-12.9395 25.2197-14.5312Q24.043-16.123 22.4512-17.2998Q20.8594-18.4766 18.9551-19.126Q17.0508-19.7754 14.9609-19.7754Q12.8711-19.7754 10.9717-19.126Q9.07227-18.4766 7.48535-17.2998Q5.89844-16.123 4.72168-14.5312Q3.54492-12.9395 2.90039-11.04Q2.25586-9.14062 2.25586-7.05078Q2.25586-4.9707 2.90527-3.06641Q3.55469-1.16211 4.72656 0.429688Q5.89844 2.02148 7.49023 3.19336Q9.08203 4.36523 10.9814 5.01465Q12.8809 5.66406 14.9707 5.66406ZM14.9707 3.84766Q13.1641 3.84766 11.5283 3.2959Q9.89258 2.74414 8.53516 1.74805Q7.17773 0.751953 6.17676-0.610352Q5.17578-1.97266 4.62891-3.6084Q4.08203-5.24414 4.08203-7.05078Q4.08203-8.86719 4.62891-10.5029Q5.17578-12.1387 6.17188-13.501Q7.16797-14.8633 8.52539-15.8594Q9.88281-16.8555 11.5186-17.4023Q13.1543-17.9492 14.9609-17.9492Q16.7773-17.9492 18.4131-17.4023Q20.0488-16.8555 21.4111-15.8594Q22.7734-14.8633 23.7695-13.501Q24.7656-12.1387 25.3174-10.5029Q25.8691-8.86719 25.8691-7.05078Q25.8789-5.24414 25.332-3.6084Q24.7852-1.97266 23.7842-0.610352Q22.7832 0.751953 21.4209 1.74805Q20.0586 2.74414 18.4229 3.2959Q16.7871 3.84766 14.9707 3.84766ZM9.19922-7.05078Q9.19922-6.66992 9.45801-6.4209Q9.7168-6.17188 10.1172-6.17188L14.0625-6.17188L14.0625-2.2168Q14.0625-1.81641 14.3115-1.55762Q14.5605-1.29883 14.9512-1.29883Q15.3516-1.29883 15.6104-1.55273Q15.8691-1.80664 15.8691-2.2168L15.8691-6.17188L19.8242-6.17188Q20.2246-6.17188 20.4785-6.4209Q20.7324-6.66992 20.7324-7.05078Q20.7324-7.46094 20.4785-7.71484Q20.2246-7.96875 19.8242-7.96875L15.8691-7.96875L15.8691-11.9141Q15.8691-12.3242 15.6104-12.583Q15.3516-12.8418 14.9512-12.8418Q14.5605-12.8418 14.3115-12.583Q14.0625-12.3242 14.0625-11.9141L14.0625-7.96875L10.1172-7.96875Q9.70703-7.96875 9.45312-7.71484Q9.19922-7.46094 9.19922-7.05078Z"/>
  </g>
  <text style="stroke:none;fill:black;font-family:sans-serif;font-size:13;font-weight:bold;" transform="matrix(1 0 0 1 263 1953)">Design Variations</text>
  <text style="stroke:none;fill:black;font-family:sans-serif;font-size:13;" transform="matrix(1 0 0 1 263 1971)">Symbols are supported in up to nine weights and three scales.</text>
  <text style="stroke:none;fill:black;font-family:sans-serif;font-size:13;" transform="matrix(1 0 0 1 263 1989)">For optimal layout with text and other symbols, vertically align</text>
  <text style="stroke:none;fill:black;font-family:sans-serif;font-size:13;" transform="matrix(1 0 0 1 263 2007)">symbols with the adjacent text.</text>
  <line style="fill:none;stroke:#00AEEF;stroke-width:0.5;opacity:1.0;" x1="776" x2="776" y1="1919" y2="1933"/>
  <g transform="matrix(1 0 0 1 776 1933)">
   <path d="M3.31055 0.15625Q3.70117 0.15625 3.91602-0.00976562Q4.13086-0.175781 4.26758-0.585938L5.52734-4.0332L11.2891-4.0332L12.5488-0.585938Q12.6855-0.175781 12.9004-0.00976562Q13.1152 0.15625 13.4961 0.15625Q13.8867 0.15625 14.1162-0.0585938Q14.3457-0.273438 14.3457-0.644531Q14.3457-0.869141 14.2383-1.17188L9.6582-13.3691Q9.48242-13.8184 9.17969-14.043Q8.87695-14.2676 8.4082-14.2676Q7.5-14.2676 7.17773-13.3789L2.59766-1.16211Q2.49023-0.859375 2.49023-0.634766Q2.49023-0.263672 2.70996-0.0537109Q2.92969 0.15625 3.31055 0.15625ZM6.00586-5.51758L8.37891-12.0898L8.42773-12.0898L10.8008-5.51758Z"/>
  </g>
  <line style="fill:none;stroke:#00AEEF;stroke-width:0.5;opacity:1.0;" x1="793.197" x2="793.197" y1="1919" y2="1933"/>
  <text style="stroke:none;fill:black;font-family:sans-serif;font-size:13;font-weight:bold;" transform="matrix(1 0 0 1 776 1953)">Margins</text>
  <text style="stroke:none;fill:black;font-family:sans-serif;font-size:13;" transform="matrix(1 0 0 1 776 1971)">Leading and trailing margins on the left and right side of each symbol</text>
  <text style="stroke:none;fill:black;font-family:sans-serif;font-size:13;" transform="matrix(1 0 0 1 776 1989)">can be adjusted by modifying the x-location of the margin guidelines.</text>
  <text style="stroke:none;fill:black;font-family:sans-serif;font-size:13;" transform="matrix(1 0 0 1 776 2007)">Modifications are automatically applied proportionally to all</text>
  <text style="stroke:none;fill:black;font-family:sans-serif;font-size:13;" transform="matrix(1 0 0 1 776 2025)">scales and weights.</text>
  <g transform="matrix(1 0 0 1 1289 1933)">
   <path d="M2.8418 1.86523L4.54102 3.57422Q5.18555 4.22852 5.90332 4.17969Q6.62109 4.13086 7.31445 3.35938L18.0078-8.42773L17.041-9.4043L6.42578 2.27539Q6.16211 2.57812 5.89355 2.61719Q5.625 2.65625 5.27344 2.30469L4.10156 1.14258Q3.75 0.791016 3.79395 0.522461Q3.83789 0.253906 4.14062-0.0195312L15.6152-10.8203L14.6387-11.7871L3.04688-0.898438Q2.30469-0.214844 2.25098 0.498047Q2.19727 1.21094 2.8418 1.86523ZM9.25781-16.3281Q8.94531-16.0254 8.90625-15.6348Q8.86719-15.2441 9.04297-14.9512Q9.21875-14.6777 9.55566-14.541Q9.89258-14.4043 10.3809-14.5215Q11.4746-14.7754 12.5977-14.7314Q13.7207-14.6875 14.7949-13.9844L14.209-12.5293Q13.9551-11.9043 14.0674-11.4404Q14.1797-10.9766 14.5801-10.5664L16.875-8.25195Q17.2363-7.88086 17.5781-7.82227Q17.9199-7.76367 18.3398-7.8418L19.4043-8.03711L20.0684-7.36328L20.0293-6.80664Q20-6.43555 20.1221-6.12305Q20.2441-5.81055 20.6055-5.44922L21.3672-4.70703Q21.7285-4.3457 22.1533-4.33105Q22.5781-4.31641 22.9297-4.66797L25.8398-7.58789Q26.1914-7.93945 26.1816-8.35449Q26.1719-8.76953 25.8105-9.13086L25.0391-9.89258Q24.6875-10.2539 24.3799-10.3857Q24.0723-10.5176 23.7109-10.4883L23.1348-10.4395L22.4902-11.0742L22.7344-12.1973Q22.832-12.6172 22.6953-12.9834Q22.5586-13.3496 22.1191-13.7891L19.9219-15.9766Q18.6719-17.2168 17.2607-17.8369Q15.8496-18.457 14.4189-18.4814Q12.9883-18.5059 11.665-17.959Q10.3418-17.4121 9.25781-16.3281ZM10.752-15.957Q11.6602-16.6211 12.7002-16.9043Q13.7402-17.1875 14.8047-17.085Q15.8691-16.9824 16.8701-16.5137Q17.8711-16.0449 18.7012-15.2051L21.1328-12.793Q21.3086-12.6172 21.3525-12.4512Q21.3965-12.2852 21.3379-12.0312L21.0156-10.5469L22.5195-9.0625L23.5059-9.12109Q23.6914-9.13086 23.7891-9.09668Q23.8867-9.0625 24.0332-8.91602L24.6094-8.33984L22.168-5.89844L21.5918-6.47461Q21.4453-6.62109 21.4062-6.71875Q21.3672-6.81641 21.377-7.01172L21.4453-7.98828L19.9512-9.47266L18.4277-9.21875Q18.1836-9.16992 18.042-9.2041Q17.9004-9.23828 17.7148-9.41406L15.7129-11.416Q15.5176-11.5918 15.4932-11.7529Q15.4688-11.9141 15.5859-12.1875L16.4648-14.2773Q15.293-15.3711 13.8281-15.791Q12.3633-16.2109 10.8398-15.7617Q10.7227-15.7324 10.6885-15.8057Q10.6543-15.8789 10.752-15.957Z"/>
  </g>
  <text style="stroke:none;fill:black;font-family:sans-serif;font-size:13;font-weight:bold;" transform="matrix(1 0 0 1 1289 1953)">Exporting</text>
  <text style="stroke:none;fill:black;font-family:sans-serif;font-size:13;" transform="matrix(1 0 0 1 1289 1971)">Symbols should be outlined when exporting to ensure the</text>
  <text style="stroke:none;fill:black;font-family:sans-serif;font-size:13;" transform="matrix(1 0 0 1 1289 1989)">design is preserved when submitting to Xcode.</text>
  <text id="template-version" style="stroke:none;fill:black;font-family:sans-serif;font-size:13;text-anchor:end;" transform="matrix(1 0 0 1 3036 1933)">Template v.3.0</text>
  <text style="stroke:none;fill:black;font-family:sans-serif;font-size:13;text-anchor:end;" transform="matrix(1 0 0 1 3036 1951)">Requires Xcode 13 or greater</text>
  <text id="descriptive-name" style="stroke:none;fill:black;font-family:sans-serif;font-size:13;text-anchor:end;" transform="matrix(1 0 0 1 3036 1969)">Generated from hammer.circle</text>
  <text style="stroke:none;fill:black;font-family:sans-serif;font-size:13;text-anchor:end;" transform="matrix(1 0 0 1 3036 1987)">Typeset at 100 points</text>
  <text style="stroke:none;fill:black;font-family:sans-serif;font-size:13;" transform="matrix(1 0 0 1 263 726)">Small</text>
  <text style="stroke:none;fill:black;font-family:sans-serif;font-size:13;" transform="matrix(1 0 0 1 263 1156)">Medium</text>
  <text style="stroke:none;fill:black;font-family:sans-serif;font-size:13;" transform="matrix(1 0 0 1 263 1586)">Large</text>
 </g>
 <g id="Guides">
  <g id="H-reference" style="fill:#27AAE1;stroke:none;" transform="matrix(1 0 0 1 339 696)">
   <path d="M0.993347 0L3.6377 0L29.3282-67.1326L30.0301-67.1326L30.0301-70.459L28.1227-70.459ZM11.6882-24.4797L46.9818-24.4797L46.2311-26.7288L12.4382-26.7288ZM55.1193 0L57.7637 0L30.6381-70.459L29.4327-70.459L29.4327-67.1326Z"/>
  </g>
  <line id="Baseline-S" style="fill:none;stroke:#27AAE1;opacity:1;stroke-width:0.5;" x1="263" x2="3036" y1="696" y2="696"/>
  <line id="Capline-S" style="fill:none;stroke:#27AAE1;opacity:1;stroke-width:0.5;" x1="263" x2="3036" y1="625.541" y2="625.541"/>
  <g id="H-reference" style="fill:#27AAE1;stroke:none;" transform="matrix(1 0 0 1 339 1126)">
   <path d="M0.993347 0L3.6377 0L29.3282-67.1326L30.0301-67.1326L30.0301-70.459L28.1227-70.459ZM11.6882-24.4797L46.9818-24.4797L46.2311-26.7288L12.4382-26.7288ZM55.1193 0L57.7637 0L30.6381-70.459L29.4327-70.459L29.4327-67.1326Z"/>
  </g>
  <line id="Baseline-M" style="fill:none;stroke:#27AAE1;opacity:1;stroke-width:0.5;" x1="263" x2="3036" y1="1126" y2="1126"/>
  <line id="Capline-M" style="fill:none;stroke:#27AAE1;opacity:1;stroke-width:0.5;" x1="263" x2="3036" y1="1055.54" y2="1055.54"/>
  <g id="H-reference" style="fill:#27AAE1;stroke:none;" transform="matrix(1 0 0 1 339 1556)">
   <path d="M0.993347 0L3.6377 0L29.3282-67.1326L30.0301-67.1326L30.0301-70.459L28.1227-70.459ZM11.6882-24.4797L46.9818-24.4797L46.2311-26.7288L12.4382-26.7288ZM55.1193 0L57.7637 0L30.6381-70.459L29.4327-70.459L29.4327-67.1326Z"/>
  </g>
  <line id="Baseline-L" style="fill:none;stroke:#27AAE1;opacity:1;stroke-width:0.5;" x1="263" x2="3036" y1="1556" y2="1556"/>
  <line id="Capline-L" style="fill:none;stroke:#27AAE1;opacity:1;stroke-width:0.5;" x1="263" x2="3036" y1="1485.54" y2="1485.54"/>
  <line id="left-margin-Regular-M" style="fill:none;stroke:#00AEEF;stroke-width:0.5;opacity:1.0;" x1="1391.32" x2="1391.32" y1="1030.79" y2="1150.12"/>
  <line id="right-margin-Regular-M" style="fill:none;stroke:#00AEEF;stroke-width:0.5;opacity:1.0;" x1="1508.37" x2="1508.37" y1="1030.79" y2="1150.12"/>
 </g>
 <g id="Symbols">
  <g id="Black-L" transform="matrix(1 0 0 1 2854.19 1556)">
   <path d="M79.1953 32.7252Q93.2356 32.7252 105.521 27.4303Q117.806 22.1354 127.174 12.7571Q136.542 3.37874 141.848-8.90649Q147.154-21.1917 147.154-35.2113Q147.154-49.2309 141.848-61.5161Q136.542-73.8013 127.164-83.1796Q117.785-92.558 105.5-97.8529Q93.2149-103.148 79.1746-103.148Q65.1563-103.148 52.8704-97.8529Q40.5846-92.558 31.2276-83.1796Q21.8707-73.8013 16.5647-61.5161Q11.2588-49.2309 11.2588-35.2113Q11.2588-21.1917 16.5647-8.90649Q21.8707 3.37874 31.238 12.7571Q40.6053 22.1354 52.8912 27.4303Q65.177 32.7252 79.1953 32.7252ZM79.1953 12.5777Q69.2941 12.5777 60.6256 8.86047Q51.9572 5.14327 45.4197-1.40458Q38.8822-7.95243 35.1644-16.6312Q31.4465-25.3101 31.4465-35.2113Q31.4465-45.1125 35.154-53.7913Q38.8615-62.4702 45.399-69.018Q51.9365-75.5659 60.6049-79.2831Q69.2734-83.0003 79.1746-83.0003Q89.0966-83.0003 97.7657-79.2831Q106.435-75.5659 112.982-69.018Q119.529-62.4702 123.257-53.7913Q126.986-45.1125 126.986-35.2113Q126.986-25.3101 123.268-16.6312Q119.551-7.95243 113.014-1.40458Q106.476 5.14327 97.7974 8.86047Q89.1186 12.5777 79.1953 12.5777ZM54.1385-6.24017Q56.3644-4.01299 58.9932-4.14399Q61.622-4.27498 63.809-6.86151L88.9401-36.2357L79.187-46.0447L49.7505-20.903Q47.2588-18.6758 47.0992-16.0581Q46.9397-13.4403 49.1668-11.2131ZM103.555-31.4507Q104.965-30.082 106.58-30.0327Q108.195-29.9834 109.467-31.2354L117.077-38.8832Q118.41-40.1351 118.37-41.7705Q118.331-43.4058 116.98-44.7953L115.207-46.5084Q114.202-47.6318 113.321-47.873Q112.44-48.1143 111.312-48.0339L109.018-47.7914L107.431-49.3578L108.082-52.156Q108.846-55.7647 105.481-59.0697L100.378-64.112Q96.383-68.1444 90.5716-69.6483Q84.7602-71.1522 78.9112-69.9842Q73.0621-68.8162 69.0297-64.7254Q67.7689-63.4659 67.6721-62.0116Q67.5754-60.5574 68.2966-59.5208Q69.8973-57.1646 73.0607-58.0572Q76.3441-58.9688 79.3436-59.1103Q82.3432-59.2517 84.6163-57.9707L83.3082-54.4262Q81.7088-50.4063 84.5314-47.581L89.6096-42.5015Q92.5626-39.5512 96.0171-40.2868L98.9732-40.8624L100.637-39.3129L100.336-36.9997Q100.14-35.9101 100.458-35.0085Q100.776-34.1069 101.821-33.0834Z"/>
  </g>
  <g id="Heavy-L" transform="matrix(1 0 0 1 2558.42 1556)">
   <path d="M78.2511 31.7672Q92.088 31.7672 104.202 26.5464Q116.316 21.3256 125.559 12.0677Q134.802 2.8099 140.04-9.30402Q145.279-21.4179 145.279-35.2251Q145.279-49.0322 140.04-61.1461Q134.802-73.2601 125.544-82.5179Q116.286-91.7758 104.172-96.9966Q92.0582-102.217 78.2213-102.217Q64.4202-102.217 52.3033-96.9966Q40.1863-91.7758 30.9613-82.5179Q21.7362-73.2601 16.4975-61.1461Q11.2588-49.0322 11.2588-35.2251Q11.2588-21.4179 16.4975-9.30402Q21.7362 2.8099 30.9761 12.0677Q40.2161 21.3256 52.333 26.5464Q64.45 31.7672 78.2511 31.7672ZM78.2511 14.0252Q68.0447 14.0252 59.1149 10.2016Q50.1851 6.37791 43.4463-0.375708Q36.7076-7.12933 32.8809-16.074Q29.0543-25.0188 29.0543-35.2251Q29.0543-45.4314 32.8661-54.3761Q36.6778-63.3208 43.4166-70.0745Q50.1553-76.8281 59.0851-80.6517Q68.015-84.4754 78.2213-84.4754Q88.4574-84.4754 97.3902-80.6517Q106.323-76.8281 113.074-70.0745Q119.824-63.3208 123.666-54.3761Q127.507-45.4314 127.507-35.2251Q127.507-25.0188 123.684-16.074Q119.86-7.12933 113.121-0.375708Q106.383 6.37791 97.4379 10.2016Q88.4932 14.0252 78.2511 14.0252ZM52.5246-5.46549Q54.7225-3.2616 57.2655-3.39711Q59.8085-3.53262 61.9589-6.07305L88.1151-36.3744L78.4684-46.0536L48.1043-19.9425Q45.6173-17.7386 45.4625-15.2135Q45.3077-12.6884 47.5116-10.4845ZM103.46-31.0767Q104.773-29.8235 106.242-29.7744Q107.711-29.7254 108.905-30.8894L116.958-38.9578Q118.203-40.1218 118.165-41.6205Q118.128-43.1193 116.866-44.4023L114.959-46.2589Q113.967-47.3461 113.127-47.5874Q112.287-47.8287 111.176-47.7482L108.606-47.4744L106.814-49.2365L107.546-52.3917Q108.324-55.9357 104.98-59.2289L99.5653-64.5867Q95.4782-68.6886 89.582-70.2317Q83.6857-71.7748 77.7614-70.5864Q71.837-69.398 67.7085-65.2249Q66.4757-63.9981 66.4132-62.627Q66.3507-61.2559 67.0624-60.2793Q68.6346-58.1717 71.412-58.9991Q75.0086-59.9968 78.2385-60.1005Q81.4683-60.2042 84.0223-58.7284L82.4334-54.5412Q80.8938-50.6196 83.6513-47.85L89.191-42.3043Q91.8583-39.649 95.1783-40.3338L98.6022-41.0102L100.456-39.2331L100.138-36.6659Q99.9743-35.5754 100.265-34.7057Q100.555-33.836 101.574-32.8529Z"/>
  </g>
  <g id="Bold-L" transform="matrix(1 0 0 1 2262.89 1556)">
   <path d="M77.0653 30.566Q90.6516 30.566 102.549 25.4396Q114.447 20.3133 123.533 11.2089Q132.619 2.10448 137.771-9.79333Q142.923-21.6912 142.923-35.2405Q142.923-48.7898 137.771-60.6877Q132.619-72.5855 123.515-81.6899Q114.41-90.7942 102.512-95.9206Q90.6146-101.047 77.0283-101.047Q63.4932-101.047 51.5882-95.9206Q39.6833-90.7942 30.623-81.6899Q21.5627-72.5855 16.4108-60.6877Q11.2588-48.7898 11.2588-35.2405Q11.2588-21.6912 16.4108-9.79333Q21.5627 2.10448 30.6415 11.2089Q39.7203 20.3133 51.6252 25.4396Q63.5301 30.566 77.0653 30.566ZM77.0653 15.8201Q66.4831 15.8201 57.2278 11.8629Q47.9725 7.90583 40.9827 0.897553Q33.9929-6.11072 30.0287-15.3845Q26.0645-24.6583 26.0645-35.2405Q26.0645-45.8227 30.0102-55.0965Q33.9559-64.3703 40.9457-71.3786Q47.9355-78.3868 57.1908-82.3439Q66.4461-86.3011 77.0283-86.3011Q87.6474-86.3011 96.9099-82.3439Q106.172-78.3868 113.173-71.3786Q120.175-64.3703 124.157-55.0965Q128.14-45.8227 128.14-35.2405Q128.14-24.6583 124.183-15.3845Q120.226-6.11072 113.236 0.897553Q106.246 7.90583 96.9725 11.8629Q87.6986 15.8201 77.0653 15.8201ZM50.5264-4.54709Q52.6843-2.375 55.117-2.51412Q57.5496-2.65325 59.662-5.13923L87.1432-36.6302L77.63-46.1442L46.0671-18.7789Q43.5883-16.6068 43.4417-14.1997Q43.2951-11.7927 45.4672-9.62058ZM103.296-30.6238Q104.483-29.5112 105.772-29.4668Q107.06-29.4223 108.152-30.4764L116.744-39.0614Q117.879-40.1156 117.846-41.4413Q117.813-42.767 116.67-43.9166L114.589-45.9539Q113.603-47.0122 112.8-47.2535Q111.997-47.4947 110.882-47.4143L108.078-47.1197L106.008-49.1527L106.815-52.6813Q107.598-56.1473 104.324-59.3783L98.498-65.1467Q94.3021-69.3348 88.3138-70.9246Q82.3255-72.5144 76.3255-71.3075Q70.3254-70.1005 66.0982-65.8441Q64.9054-64.6655 64.8769-63.396Q64.8483-62.1266 65.5437-61.2198Q67.0667-59.3989 69.4124-60.1392Q73.3738-61.2101 76.8713-61.2529Q80.3688-61.2956 83.2484-59.5673L81.3338-54.6728Q79.8641-50.8957 82.5344-48.1969L88.6277-42.0894Q90.9611-39.7844 94.1077-40.4065L98.0375-41.1899L100.145-39.1122L99.8214-36.3243Q99.6968-35.2155 99.9562-34.3757Q100.216-33.5358 101.222-32.5807Z"/>
  </g>
  <g id="Semibold-L" transform="matrix(1 0 0 1 1966.99 1556)">
   <path d="M76.2478 29.7379Q89.6614 29.7379 101.41 24.6766Q113.159 19.6153 122.137 10.6168Q131.114 1.61818 136.206-10.1307Q141.299-21.8795 141.299-35.2511Q141.299-48.6228 136.206-60.3716Q131.114-72.1204 122.116-81.119Q113.117-90.1176 101.368-95.1789Q89.6194-100.24 76.2058-100.24Q62.854-100.24 51.0953-95.1789Q39.3365-90.1176 30.3898-81.119Q21.4432-72.1204 16.351-60.3716Q11.2588-48.6228 11.2588-35.2511Q11.2588-21.8795 16.351-10.1307Q21.4432 1.61818 30.4108 10.6168Q39.3785 19.6153 51.1372 24.6766Q62.896 29.7379 76.2478 29.7379ZM76.2478 17.0574Q65.4065 17.0574 55.9268 13.0083Q46.4471 8.95916 39.2843 1.77533Q32.1214-5.4085 28.0624-14.9092Q24.0033-24.4099 24.0033-35.2511Q24.0033-46.0924 28.0414-55.5931Q32.0795-65.0938 39.2423-72.2776Q46.4052-79.4614 55.8848-83.5105Q65.3645-87.5597 76.2058-87.5597Q87.089-87.5597 96.5787-83.5105Q106.068-79.4614 113.242-72.2776Q120.416-65.0938 124.496-55.5931Q128.576-46.0924 128.576-35.2511Q128.576-24.4099 124.527-14.9092Q120.478-5.4085 113.315 1.77533Q106.152 8.95916 96.6516 13.0083Q87.1509 17.0574 76.2478 17.0574ZM49.1489-3.91395Q51.2792-1.76378 53.6358-1.9054Q55.9924-2.04702 58.0785-4.49546L86.4732-36.8066L77.052-46.2066L44.6627-17.9767Q42.1895-15.8265 42.0485-13.5008Q41.9076-11.1751 44.0577-9.02498ZM103.183-30.3115Q104.283-29.296 105.447-29.2547Q106.612-29.2133 107.632-30.1917L116.597-39.1328Q117.656-40.1112 117.625-41.3177Q117.595-42.5242 116.534-43.5818L114.334-45.7436Q113.352-46.782 112.575-47.0233Q111.798-47.2645 110.68-47.1841L107.714-46.8753L105.453-49.0949L106.311-52.8809Q107.099-56.2931 103.872-59.4813L97.7622-65.5326Q93.4913-69.7802 87.4395-71.4023Q81.3878-73.0243 75.3356-71.8046Q69.2834-70.5848 64.9881-66.2709Q63.8228-65.1255 63.8177-63.9262Q63.8126-62.7269 64.4966-61.8682Q65.9858-60.245 68.0338-60.9251Q72.2467-62.0465 75.9287-62.0473Q79.6107-62.048 82.715-60.1456L80.5758-54.7634Q79.1542-51.086 81.7644-48.4361L88.2394-41.9412Q90.3426-39.8778 93.3696-40.4567L97.6482-41.3138L99.9306-39.0288L99.6031-36.0888Q99.5055-34.9674 99.7436-34.1481Q99.9818-33.3289 100.98-32.393Z"/>
  </g>
  <g id="Medium-L" transform="matrix(1 0 0 1 1670.9 1556)">
   <path d="M75.6279 29.11Q88.9106 29.11 100.546 24.0981Q112.182 19.0862 121.078 10.1678Q129.973 1.24944 135.02-10.3864Q140.067-22.0223 140.067-35.2592Q140.067-48.4961 135.02-60.1319Q129.973-71.7678 121.055-80.6862Q112.137-89.6045 100.501-94.6164Q88.8648-99.6283 75.5822-99.6283Q62.3695-99.6283 50.7215-94.6164Q39.0736-89.6045 30.213-80.6862Q21.3525-71.7678 16.3056-60.1319Q11.2588-48.4961 11.2588-35.2592Q11.2588-22.0223 16.3056-10.3864Q21.3525 1.24944 30.2359 10.1678Q39.1193 19.0862 50.7673 24.0981Q62.4152 29.11 75.6279 29.11ZM75.6279 17.9956Q64.5902 17.9956 54.9404 13.8767Q45.2905 9.75784 37.9965 2.4409Q30.7024-4.87605 26.5714-14.5488Q22.4405-24.2215 22.4405-35.2592Q22.4405-46.2969 26.5486-55.9696Q30.6567-65.6423 37.9507-72.9593Q45.2448-80.2762 54.8946-84.3951Q64.5445-88.514 75.5822-88.514Q86.6657-88.514 96.3276-84.3951Q105.989-80.2762 113.294-72.9593Q120.599-65.6423 124.753-55.9696Q128.907-46.2969 128.907-35.2592Q128.907-24.2215 124.788-14.5488Q120.669-4.87605 113.375 2.4409Q106.081 9.75784 96.4083 13.8767Q86.7356 17.9956 75.6279 17.9956ZM48.1044-3.43388Q50.2138-1.30034 52.5127-1.44384Q54.8116-1.58735 56.8778-4.00733L85.9651-36.9403L76.6137-46.254L43.5977-17.3684Q41.1289-15.2349 40.9922-12.9709Q40.8555-10.7069 42.9891-8.57337ZM103.098-30.0748Q104.131-29.1328 105.202-29.0938Q106.272-29.0549 107.239-29.9759L116.485-39.187Q117.486-40.108 117.458-41.224Q117.43-42.3401 116.431-43.3279L114.14-45.5842Q113.162-46.6075 112.404-46.8487Q111.646-47.09 110.527-47.0096L107.438-46.6899L105.032-49.051L105.928-53.0323Q106.72-56.4037 103.529-59.5594L97.2044-65.8253Q92.8765-70.118 86.7766-71.7645Q80.6768-73.4109 74.585-72.1815Q68.4933-70.952 64.1463-66.5946Q63.002-65.4744 63.0146-64.3282Q63.0273-63.182 63.7027-62.3599Q65.1662-60.8865 66.9886-61.521Q71.3921-62.6807 75.214-62.6496Q79.036-62.6185 82.3105-60.5841L80.001-54.8322Q78.616-51.2304 81.1806-48.6174L87.945-41.8289Q89.8736-39.9486 92.81-40.4947L97.353-41.4078L99.7679-38.9656L99.4377-35.9102Q99.3604-34.7792 99.5825-33.9756Q99.8045-33.1719 100.796-32.2507Z"/>
  </g>
  <g id="Regular-L" transform="matrix(1 0 0 1 1374.99 1556)">
   <path d="M74.8194 28.2909Q87.9312 28.2909 99.4198 23.3434Q110.908 18.3959 119.697 9.58221Q128.485 0.768476 133.473-10.7201Q138.46-22.2086 138.46-35.2697Q138.46-48.3308 133.473-59.8193Q128.485-71.3079 119.671-80.1216Q110.858-88.9353 99.3691-93.8828Q87.8805-98.8303 74.7687-98.8303Q61.7374-98.8303 50.234-93.8828Q38.7306-88.9353 29.9824-80.1216Q21.2342-71.3079 16.2465-59.8193Q11.2588-48.3308 11.2588-35.2697Q11.2588-22.2086 16.2465-10.7201Q21.2342 0.768476 30.0077 9.58221Q38.7813 18.3959 50.2847 23.3434Q61.7881 28.2909 74.8194 28.2909ZM74.8194 19.2194Q63.5255 19.2194 53.6537 15.0095Q43.7819 10.7996 36.3167 3.30903Q28.8515-4.18154 24.6267-14.0786Q20.402-23.9757 20.402-35.2697Q20.402-46.5637 24.6014-56.4608Q28.8008-66.3579 36.266-73.8484Q43.7313-81.339 53.603-85.5489Q63.4748-89.7588 74.7687-89.7588Q86.1134-89.7588 96-85.5489Q105.887-81.339 113.362-73.8484Q120.838-66.3579 125.088-56.4608Q129.338-46.5637 129.338-35.2697Q129.338-23.9757 125.128-14.0786Q120.918-4.18154 113.453 3.30903Q105.988 10.7996 96.0909 15.0095Q86.1938 19.2194 74.8194 19.2194ZM46.742-2.8077Q48.8241-0.695838 51.0478-0.841808Q53.2715-0.987779 55.3117-3.37064L85.3025-37.1148L76.0421-46.3157L42.2087-16.575Q39.7455-14.4631 39.6144-12.2797Q39.4833-10.0962 41.5951-7.98431ZM102.986-29.766Q103.934-28.9199 104.881-28.8841Q105.828-28.8483 106.725-29.6943L116.339-39.2576Q117.266-40.1037 117.24-41.1018Q117.215-42.1 116.297-42.9967L113.888-45.3762Q112.914-46.3798 112.182-46.6211Q111.449-46.8623 110.327-46.7819L107.079-46.4481L104.482-48.9939L105.43-53.2297Q106.225-56.5479 103.082-59.6612L96.4767-66.2071Q92.0745-70.5585 85.9119-72.2369Q79.7493-73.9152 73.606-72.6731Q67.4627-71.431 63.0484-67.0167Q61.9313-65.9294 61.9671-64.8525Q62.0029-63.7756 62.6672-63.0012Q64.0972-61.7232 65.6252-62.2983Q70.2774-63.508 74.2818-63.4353Q78.2863-63.3626 81.7829-61.1561L79.2513-54.9219Q77.9139-51.4186 80.4191-48.854L87.561-41.6824Q89.2619-40.0409 92.08-40.5443L96.968-41.5303L99.5557-38.8832L99.2218-35.6772Q99.1712-34.5338 99.3722-33.7505Q99.5733-32.9673 100.556-32.0651Z"/>
  </g>
  <g id="Light-L" transform="matrix(1 0 0 1 1079.2 1556)">
   <path d="M73.8959 27.3674Q86.8436 27.3674 98.1577 22.502Q109.472 17.6366 118.137 8.95629Q126.802 0.275949 131.708-11.0381Q136.614-22.3522 136.614-35.2697Q136.614-48.1872 131.708-59.5013Q126.802-70.8154 118.122-79.4957Q109.442-88.176 98.1275-93.0414Q86.8134-97.9069 73.8658-97.9069Q60.9986-97.9069 49.6594-93.0414Q38.3201-88.176 29.6951-79.4957Q21.07-70.8154 16.1644-59.5013Q11.2588-48.1872 11.2588-35.2697Q11.2588-22.3522 16.1644-11.0381Q21.07 0.275949 29.7102 8.95629Q38.3503 17.6366 49.6895 22.502Q61.0287 27.3674 73.8959 27.3674ZM73.8959 20.4712Q62.3557 20.4712 52.2479 16.1587Q42.1402 11.8462 34.4903 4.18122Q26.8403-3.48379 22.5027-13.6066Q18.1651-23.7295 18.1651-35.2697Q18.1651-46.8099 22.4876-56.9328Q26.8102-67.0556 34.4601-74.7206Q42.11-82.3856 52.2178-86.6981Q62.3255-91.0106 73.8658-91.0106Q85.4362-91.0106 95.5691-86.6981Q105.702-82.3856 113.342-74.7206Q120.982-67.0556 125.334-56.9328Q129.687-46.8099 129.687-35.2697Q129.687-23.7295 125.375-13.6066Q121.062-3.48379 113.412 4.18122Q105.762 11.8462 95.6394 16.1587Q85.5166 20.4712 73.8959 20.4712ZM45.367-2.4383Q47.3876-0.367486 49.5087-0.503196Q51.6297-0.638906 53.6905-3.00124L84.9536-37.833L75.7958-46.8903L40.8132-15.9388Q38.3705-13.868 38.2599-11.7871Q38.1493-9.70626 40.2201-7.63544ZM102.576-29.5197Q103.4-28.7557 104.224-28.7507Q105.049-28.7456 105.843-29.5096L115.765-39.4013Q116.609-40.1653 116.594-41.0197Q116.579-41.8742 115.805-42.6684L113.231-45.1915Q112.196-46.2772 111.402-46.5184Q110.608-46.7597 109.321-46.6793L106.607-46.4481L103.661-49.3633L104.486-53.4144Q105.22-56.6915 102.405-59.456L95.348-66.4123Q90.9048-70.8253 84.7627-72.5242Q78.6206-74.2231 72.5389-73.0117Q66.4571-71.8004 62.1044-67.4477Q61.0489-66.4424 61.0539-65.4271Q61.0589-64.4118 61.6822-63.6579Q62.989-62.4415 64.517-62.914Q69.2718-63.9595 73.3481-63.7534Q77.4244-63.5473 81.003-61.0946L78.3894-54.9424Q77.0725-51.6854 79.4751-49.1823L86.8837-41.7234Q88.4821-40.2256 91.136-40.688L95.9009-41.6329L98.7758-38.6574L98.5446-35.903Q98.5145-34.6364 98.7155-33.8121Q98.9166-32.9878 100.022-31.9624Z"/>
  </g>
  <g id="Thin-L" transform="matrix(1 0 0 1 783.716 1556)">
   <path d="M72.6746 26.1461Q85.405 26.1461 96.4884 21.3892Q107.572 16.6324 116.074 8.12846Q124.577-0.375458 129.374-11.4588Q134.171-22.5422 134.171-35.2697Q134.171-47.9972 129.374-59.0806Q124.577-70.1639 116.073-78.6679Q107.569-87.1718 96.4854-91.9286Q85.402-96.6855 72.6715-96.6855Q60.0215-96.6855 48.8994-91.9286Q37.7773-87.1718 29.3151-78.6679Q20.8529-70.1639 16.0558-59.0806Q11.2588-47.9972 11.2588-35.2697Q11.2588-22.5422 16.0558-11.4588Q20.8529-0.375458 29.3166 8.12846Q37.7803 16.6324 48.9024 21.3892Q60.0245 26.1461 72.6746 26.1461ZM72.6746 22.1269Q60.8086 22.1269 50.3887 17.6787Q39.9688 13.2305 32.0746 5.33475Q24.1804-2.56097 19.6935-12.9824Q15.2066-23.4038 15.2066-35.2697Q15.2066-47.1356 19.692-57.557Q24.1774-67.9784 32.0716-75.8742Q39.9658-83.7699 50.3857-88.2181Q60.8056-92.6663 72.6715-92.6663Q84.5405-92.6663 94.9991-88.2181Q105.458-83.7699 113.315-75.8742Q121.172-67.9784 125.66-57.557Q130.149-47.1356 130.149-35.2697Q130.149-23.4038 125.7-12.9824Q121.252-2.56097 113.358 5.33475Q105.464 13.2305 95.0423 17.6787Q84.6209 22.1269 72.6746 22.1269ZM43.5485-1.94975Q45.4876 0.0667849 47.473-0.0553537Q49.4584-0.177492 51.5463-2.51269L84.4922-38.783L75.4701-47.6503L38.9676-15.0974Q36.552-13.0809 36.4685-11.1357Q36.3851-9.19056 38.4016-7.17403ZM102.033-29.194Q102.694-28.5386 103.356-28.5743Q104.017-28.6099 104.676-29.2654L115.005-39.5913Q115.74-40.2467 115.739-40.9112Q115.737-41.5756 115.153-42.2341L112.363-44.9472Q111.246-46.1415 110.37-46.3827Q109.495-46.624 107.991-46.5436L105.982-46.4481L102.576-49.8518L103.237-53.6587Q103.89-56.8815 101.509-59.1846L93.8552-66.6837Q89.3577-71.1782 83.2428-72.9042Q77.1278-74.6302 71.1275-73.4596Q65.1272-72.289 60.8558-68.0177Q59.8818-67.121 59.8461-66.1871Q59.8104-65.2532 60.3794-64.5264Q61.5233-63.3915 63.0513-63.7283Q67.9418-64.5566 72.1131-64.1741Q76.2844-63.7916 79.9716-61.0131L77.2494-54.9696Q75.9597-52.0382 78.2265-49.6166L85.9881-41.7777Q87.4507-40.4698 89.8874-40.878L94.4895-41.7686L97.7444-38.3589L97.6489-36.2015Q97.6459-34.7721 97.847-33.8935Q98.048-33.0149 99.3166-31.8267Z"/>
  </g>
  <g id="Ultralight-L" transform="matrix(1 0 0 1 487.631 1556)">
   <path d="M72.049 25.5205Q84.6682 25.5205 95.6335 20.8192Q106.599 16.118 115.018 7.70445Q123.437-0.709105 128.178-11.6743Q132.92-22.6395 132.92-35.2697Q132.92-47.8999 128.178-58.8651Q123.437-69.8303 115.023-78.2439Q106.61-86.6574 95.6443-91.3586Q84.6791-96.0599 72.0598-96.0599Q59.521-96.0599 48.5101-91.3586Q37.4993-86.6574 29.1205-78.2439Q20.7417-69.8303 16.0002-58.8651Q11.2588-47.8999 11.2588-35.2697Q11.2588-22.6395 16.0002-11.6743Q20.7417-0.709105 29.115 7.70445Q37.4884 16.118 48.4992 20.8192Q59.5101 25.5205 72.049 25.5205ZM72.049 22.9749Q60.0162 22.9749 49.4364 18.4572Q38.8567 13.9395 30.8374 5.92558Q22.818-2.0883 18.2546-12.6626Q13.6913-23.2369 13.6913-35.2697Q13.6913-47.3025 18.2601-57.8768Q22.8289-68.4511 30.8482-76.465Q38.8676-84.4789 49.4473-88.9966Q60.0271-93.5143 72.0598-93.5143Q84.0817-93.5143 94.7071-88.9966Q105.333-84.4789 113.301-76.465Q121.269-68.4511 125.827-57.8768Q130.385-47.3025 130.385-35.2697Q130.385-23.2369 125.867-12.6626Q121.349-2.0883 113.33 5.92558Q105.311 13.9395 94.7365 18.4572Q84.1621 22.9749 72.049 22.9749ZM42.6171-1.69951Q44.5145 0.289216 46.4304 0.174029Q48.3462 0.0588413 50.448-2.26245L84.2559-39.2696L75.3033-48.0396L38.0223-14.6665Q35.6205-12.6777 35.551-10.8021Q35.4815-8.92642 37.4702-6.93769ZM101.755-29.0272Q102.333-28.4274 102.911-28.4839Q103.489-28.5404 104.078-29.1402L114.615-39.6886Q115.296-40.2884 115.301-40.8556Q115.306-41.4227 114.82-42.0117L111.918-44.8221Q110.759-46.072 109.842-46.3132Q108.925-46.5545 107.31-46.4741L105.663-46.4481L102.02-50.1021L102.598-53.7838Q103.208-56.9789 101.05-59.0456L93.0906-66.8227Q88.5653-71.3589 82.4642-73.0988Q76.3632-74.8387 70.4046-73.689Q64.446-72.5392 60.2164-68.3096Q59.284-67.4685 59.2274-66.5763Q59.1709-65.6842 59.7121-64.9713Q60.7726-63.8781 62.3006-64.1453Q67.2607-64.8624 71.4806-64.3896Q75.7005-63.9167 79.4434-60.9714L76.6656-54.9835Q75.3897-52.219 77.5871-49.839L85.5293-41.8055Q86.9224-40.595 89.2479-40.9753L93.7666-41.8381L97.2162-38.2059L97.1902-36.3545Q97.2011-34.8416 97.4021-33.9352Q97.6032-33.0288 98.9552-31.7572Z"/>
  </g>
  <g id="Black-M" transform="matrix(1 0 0 1 2871.36 1126)">
   <path d="M62.0423 18.1161Q73.0725 18.1161 82.714 13.9613Q92.3555 9.80654 99.704 2.45531Q107.052-4.89592 111.21-14.5374Q115.367-24.1789 115.367-35.2035Q115.367-46.2282 111.21-55.8697Q107.052-65.5112 99.7012-72.8624Q92.35-80.2136 82.7085-84.3684Q73.067-88.5232 62.0368-88.5232Q51.0119-88.5232 41.3705-84.3684Q31.7292-80.2136 24.3833-72.8624Q17.0375-65.5112 12.8801-55.8697Q8.72266-46.2282 8.72266-35.2035Q8.72266-24.1789 12.8801-14.5374Q17.0375-4.89592 24.3861 2.45531Q31.7347 9.80654 41.376 13.9613Q51.0174 18.1161 62.0423 18.1161ZM62.0423 0.734266Q54.6003 0.734266 48.0771-2.06802Q41.554-4.87031 36.637-9.78999Q31.7201-14.7097 28.918-21.2356Q26.1159-27.7615 26.1159-35.2035Q26.1159-42.6456 28.9152-49.1715Q31.7146-55.6974 36.6315-60.6171Q41.5485-65.5368 48.0716-68.3391Q54.5948-71.1414 62.0368-71.1414Q69.4844-71.1414 76.0074-68.3391Q82.5304-65.5368 87.4502-60.6171Q92.3701-55.6974 95.175-49.1715Q97.9799-42.6456 97.9799-35.2035Q97.9799-27.7615 95.1776-21.2356Q92.3753-14.7097 87.4584-9.78999Q82.5414-4.87031 76.0155-2.06802Q69.4896 0.734266 62.0423 0.734266ZM43.1441-13.386Q44.8843-11.646 46.9808-11.7423Q49.0772-11.8385 50.8058-13.8792L69.5675-35.9872L61.9337-43.6787L39.7695-24.8694Q37.8378-23.1295 37.7129-21.0357Q37.5879-18.9418 39.3279-17.2019ZM80.2545-32.59Q81.4141-31.4415 82.7735-31.4073Q84.1329-31.373 85.1728-32.4074L90.7294-38.0155Q91.826-39.0499 91.7947-40.4148Q91.7634-41.7797 90.6606-42.9338L89.3805-44.1571Q88.5819-45.0697 87.856-45.2566Q87.1301-45.4435 86.2188-45.3812L84.7514-45.2342L83.6505-46.3296L84.0678-48.1656Q84.6399-51.0114 82.0597-53.5348L78.3123-57.2257Q75.291-60.2985 70.8644-61.4328Q66.4378-62.567 61.9794-61.6838Q57.521-60.8007 54.4878-57.7104Q53.4952-56.7175 53.3867-55.5277Q53.2781-54.3379 53.8395-53.4861Q55.0874-51.4554 57.8699-52.1889Q60.1584-52.799 62.2941-52.923Q64.4298-53.047 65.9606-52.1886L65.1775-50.0059Q63.8896-46.8403 66.1185-44.6121L69.6923-41.0386Q72.2117-38.5186 74.9814-39.1266L76.8529-39.4804L78.017-38.4311L77.813-36.9183Q77.6362-36.0583 77.9061-35.3269Q78.1761-34.5954 79.0257-33.751Z"/>
  </g>
  <g id="Heavy-M" transform="matrix(1 0 0 1 2575.48 1126)">
   <path d="M61.2045 17.2648Q72.0509 17.2648 81.541 13.1749Q91.0312 9.08498 98.2688 1.83921Q105.506-5.40657 109.606-14.8967Q113.705-24.3868 113.705-35.217Q113.705-46.0473 109.606-55.5374Q105.506-65.0275 98.2607-72.2733Q91.0149-79.519 81.5248-83.6089Q72.0347-87.6988 61.1882-87.6988Q50.3604-87.6988 40.8691-83.6089Q31.3778-79.519 24.1495-72.2733Q16.9211-65.0275 12.8219-55.5374Q8.72266-46.0473 8.72266-35.217Q8.72266-24.3868 12.8219-14.8967Q16.9211-5.40657 24.1576 1.83921Q31.394 9.08498 40.8853 13.1749Q50.3767 17.2648 61.2045 17.2648ZM61.2045 2.03385Q53.4869 2.03385 46.73-0.86303Q39.9731-3.75991 34.8765-8.86466Q29.7798-13.9694 26.8817-20.7344Q23.9836-27.4994 23.9836-35.217Q23.9836-42.9346 26.8736-49.6996Q29.7636-56.4646 34.8602-61.5694Q39.9568-66.6741 46.7137-69.571Q53.4706-72.4679 61.1882-72.4679Q68.922-72.4679 75.6802-69.571Q82.4383-66.6741 87.5418-61.5694Q92.6453-56.4646 95.5516-49.6996Q98.4578-42.9346 98.4578-35.217Q98.4578-27.4994 95.5609-20.7344Q92.664-13.9694 87.5674-8.86466Q82.4708-3.75991 75.7057-0.86303Q68.9407 2.03385 61.2045 2.03385ZM41.6933-12.6628Q43.4118-10.9418 45.4338-11.0434Q47.4559-11.1449 49.1468-13.1425L68.7931-36.0565L61.254-43.6344L38.289-23.9892Q36.36-22.2682 36.2378-20.2555Q36.1157-18.2428 37.8366-16.5218ZM80.1995-32.2471Q81.2752-31.2039 82.5036-31.167Q83.732-31.1302 84.7042-32.0862L90.6658-38.0752Q91.6841-39.0312 91.6542-40.2758Q91.6243-41.5204 90.5946-42.5799L89.1982-43.9303Q88.4183-44.7999 87.738-44.9868Q87.0578-45.1737 86.1784-45.1114L84.3917-44.9243L83.1228-46.1769L83.6315-48.379Q84.2222-51.1654 81.6321-53.7094L77.6221-57.6709Q74.5145-60.8059 70.003-61.9765Q65.4915-63.1472 60.9538-62.2412Q56.4161-61.3353 53.2833-58.1589Q52.3125-57.1905 52.2402-56.0763Q52.168-54.9621 52.7239-54.167Q53.9553-52.3736 56.3605-53.053Q58.9457-53.7623 61.2999-53.8617Q63.6541-53.961 65.4519-52.9349L64.4018-50.1165Q63.1705-47.0243 65.3452-44.8447L69.3456-40.8419Q71.5952-38.5972 74.2486-39.1593L76.5887-39.6154L77.9126-38.3739L77.6818-36.5712Q77.5347-35.7217 77.7777-35.0252Q78.0207-34.3287 78.8329-33.5352Z"/>
  </g>
  <g id="Bold-M" transform="matrix(1 0 0 1 2279.69 1126)">
   <path d="M60.2672 16.3124Q70.9082 16.3124 80.2289 12.2951Q89.5497 8.27781 96.6634 1.15Q103.777-5.9778 107.811-15.2986Q111.845-24.6193 111.845-35.2321Q111.845-45.8449 107.811-55.1656Q103.777-64.4864 96.6493-71.6142Q89.5215-78.742 80.2007-82.7593Q70.8799-86.7766 60.2389-86.7766Q49.6317-86.7766 40.3082-82.7593Q30.9846-78.742 23.8878-71.6142Q16.791-64.4864 12.7568-55.1656Q8.72266-45.8449 8.72266-35.2321Q8.72266-24.6193 12.7568-15.2986Q16.791-5.9778 23.902 1.15Q31.0129 8.27781 40.3364 12.2951Q49.6599 16.3124 60.2672 16.3124ZM60.2672 3.48763Q52.2414 3.48763 45.223 0.484927Q38.2046-2.51777 32.907-7.82954Q27.6093-13.1413 24.6039-20.1738Q21.5984-27.2063 21.5984-35.2321Q21.5984-43.2579 24.5897-50.2904Q27.5811-57.3229 32.8787-62.6347Q38.1764-67.9464 45.1948-70.9491Q52.2131-73.9518 60.2389-73.9518Q68.293-73.9518 75.3141-70.9491Q82.3352-67.9464 87.6443-62.6347Q92.9533-57.3229 95.9728-50.2904Q98.9924-43.2579 98.9924-35.2321Q98.9924-27.2063 95.9897-20.1738Q92.987-13.1413 87.6894-7.82954Q82.3917-2.51777 75.3592 0.484927Q68.3267 3.48763 60.2672 3.48763ZM40.0703-11.8537Q41.7645-10.154 43.7034-10.2616Q45.6422-10.3691 47.291-12.3184L67.9269-36.134L60.4935-43.5848L36.6328-23.0045Q34.7069-21.3048 34.5878-19.3828Q34.4687-17.4608 36.1684-15.7611ZM80.138-31.8635Q81.1199-30.9381 82.2017-30.8983Q83.2835-30.8586 84.1801-31.7269L90.5948-38.142Q91.5254-39.0103 91.497-40.1203Q91.4686-41.2304 90.5208-42.184L88.9943-43.6765Q88.2353-44.4981 87.6061-44.685Q86.9769-44.8719 86.1332-44.8096L83.9894-44.5776L82.5325-46.0062L83.1433-48.6177Q83.755-51.3376 81.1538-53.9048L76.85-58.1689Q73.6458-61.3735 69.0394-62.5849Q64.4331-63.7963 59.8066-62.8648Q55.1801-61.9333 51.936-58.6606Q50.9894-57.7196 50.9578-56.69Q50.9262-55.6604 51.4759-54.9286Q52.6888-53.4007 54.672-54.0195Q57.5891-54.8399 60.1877-54.9117Q62.7863-54.9836 64.8828-53.7698L63.534-50.2401Q62.3661-47.2301 64.4802-45.105L68.9577-40.622Q70.9055-38.6852 73.4288-39.1959L76.2931-39.7665L77.7957-38.3099L77.5351-36.183Q77.4212-35.3451 77.6341-34.6877Q77.8469-34.0303 78.6173-33.2937Z"/>
  </g>
  <g id="Semibold-M" transform="matrix(1 0 0 1 1983.62 1126)">
   <path d="M59.621 15.6559Q70.1203 15.6559 79.3244 11.6886Q88.5284 7.72135 95.5566 0.674869Q102.585-6.37161 106.574-15.5756Q110.564-24.7797 110.564-35.2425Q110.564-45.7053 106.574-54.9093Q102.585-64.1134 95.5384-71.1598Q88.4919-78.2063 79.2879-82.1736Q70.0838-86.1408 59.5845-86.1408Q49.1293-86.1408 39.9215-82.1736Q30.7136-78.2063 23.7075-71.1598Q16.7013-64.1134 12.712-54.9093Q8.72266-45.7053 8.72266-35.2425Q8.72266-24.7797 12.712-15.5756Q16.7013-6.37161 23.7257 0.674869Q30.7501 7.72135 39.958 11.6886Q49.1658 15.6559 59.621 15.6559ZM59.621 4.48985Q51.3827 4.48985 44.1841 1.4142Q36.9855-1.66145 31.5492-7.11594Q26.113-12.5704 23.0335-19.7873Q19.954-27.0042 19.954-35.2425Q19.954-43.4808 23.0153-50.6977Q26.0765-57.9145 31.5127-63.369Q36.9489-68.8235 44.1476-71.8992Q51.3462-74.9748 59.5845-74.9748Q67.8593-74.9748 75.0618-71.8992Q82.2642-68.8235 87.7149-63.369Q93.1655-57.9145 96.2633-50.6977Q99.361-43.4808 99.361-35.2425Q99.361-27.0042 96.2853-19.7873Q93.2097-12.5704 87.7735-7.11594Q82.3372-1.66145 75.1203 1.4142Q67.9035 4.48985 59.621 4.48985ZM38.9514-11.296Q40.6289-9.61088 42.5104-9.72259Q44.3919-9.8343 46.0116-11.7503L67.3297-36.1874L59.9693-43.5507L35.491-22.3257Q33.5672-20.6406 33.4503-18.7812Q33.3333-16.9218 35.0184-15.2367ZM80.0956-31.5991Q81.0128-30.7549 81.9936-30.7131Q82.9743-30.6713 83.8187-31.4792L90.5458-38.188Q91.416-38.9959 91.3887-40.0131Q91.3614-41.0304 90.4699-41.9111L88.8537-43.5015Q88.1091-44.2901 87.5151-44.477Q86.9211-44.6639 86.102-44.6016L83.712-44.3386L82.1256-45.8885L82.8068-48.7822Q83.4329-51.4564 80.824-54.0394L76.3177-58.5123Q73.047-61.7647 68.3751-63.0042Q63.7033-64.2437 59.0157-63.2946Q54.328-62.3455 51.0071-59.0065Q50.0773-58.0843 50.0737-57.113Q50.0701-56.1417 50.6155-55.4537Q51.8158-54.1088 53.5079-54.6858Q56.6539-55.5828 59.421-55.6356Q62.1881-55.6885 64.4905-54.3454L62.9358-50.3254Q61.8116-47.372 63.8839-45.2844L68.6903-40.4703Q70.4301-38.7458 72.8636-39.2212L76.0893-39.8706L77.7151-38.2658L77.434-35.9154Q77.343-35.0856 77.5351-34.4551Q77.7271-33.8246 78.4687-33.1272Z"/>
  </g>
  <g id="Medium-M" transform="matrix(1 0 0 1 1687.4 1126)">
   <path d="M59.1311 15.158Q69.523 15.158 78.6385 11.2287Q87.754 7.29942 94.7174 0.314603Q101.681-6.67021 105.636-15.7857Q109.591-24.9012 109.591-35.2504Q109.591-45.5995 105.636-54.715Q101.681-63.8305 94.696-70.8153Q87.7112-77.8002 78.5957-81.7295Q69.4802-85.6588 59.0883-85.6588Q48.7484-85.6588 39.6283-81.7295Q30.5081-77.8002 23.5707-70.8153Q16.6333-63.8305 12.678-54.715Q8.72266-45.5995 8.72266-35.2504Q8.72266-24.9012 12.678-15.7857Q16.6333-6.67021 23.5921 0.314603Q30.5509 7.29942 39.671 11.2287Q48.7912 15.158 59.1311 15.158ZM59.1311 5.24978Q50.7316 5.24978 43.3963 2.11881Q36.061-1.01215 30.5197-6.57486Q24.9784-12.1376 21.8428-19.4943Q18.7072-26.8509 18.7072-35.2504Q18.7072-43.6498 21.8214-51.0065Q24.9356-58.3632 30.4769-63.9259Q36.0183-69.4886 43.3536-72.6195Q50.6889-75.7505 59.0883-75.7505Q67.5305-75.7505 74.8704-72.6195Q82.2103-69.4886 87.7684-63.9259Q93.3265-58.3632 96.4835-51.0065Q99.6405-43.6498 99.6405-35.2504Q99.6405-26.8509 96.5095-19.4943Q93.3785-12.1376 87.8372-6.57486Q82.2959-1.01215 74.9392 2.11881Q67.5825 5.24978 59.1311 5.24978ZM38.1031-10.8731Q39.7678-9.19907 41.6058-9.31392Q43.4438-9.42877 45.0415-11.3195L66.8769-36.2279L59.5718-43.5248L34.6253-21.811Q32.7031-20.137 32.5878-18.325Q32.4724-16.513 34.1464-14.839ZM80.0635-31.3985Q80.9316-30.6159 81.8358-30.5726Q82.7399-30.5294 83.5447-31.2914L90.5087-38.2229Q91.3331-38.9849 91.3065-39.9318Q91.28-40.8787 90.4314-41.7041L88.7471-43.3689Q88.0134-44.1323 87.4461-44.3192Q86.8789-44.5062 86.0784-44.4439L83.5017-44.1574L81.817-45.7992L82.5516-48.907Q83.1886-51.5464 80.574-54.1415L75.9142-58.7726Q72.5929-62.0614 67.8715-63.3222Q63.15-64.583 58.416-63.6206Q53.6819-62.6581 50.3028-59.2687Q49.3857-58.3609 49.4033-57.4338Q49.4209-56.5068 49.9632-55.8518Q51.1538-54.6457 52.6253-55.191Q55.9448-56.146 58.8396-56.1845Q61.7345-56.223 64.193-54.7818L62.4822-50.39Q61.3911-47.4795 63.4318-45.4204L68.4875-40.3554Q70.0696-38.7918 72.4351-39.2403L75.9348-39.9495L77.654-38.2324L77.3573-35.7124Q77.2837-34.8887 77.46-34.2787Q77.6363-33.6686 78.3559-33.001Z"/>
  </g>
  <g id="Regular-M" transform="matrix(1 0 0 1 1391.32 1126)">
   <path d="M58.492 14.5087Q68.7438 14.5087 77.7439 10.6289Q86.7439 6.74907 93.6228-0.155309Q100.502-7.05969 104.413-16.0597Q108.324-25.0598 108.324-35.2606Q108.324-45.4615 104.413-54.4616Q100.502-63.4616 93.5973-70.366Q86.693-77.2704 77.6929-81.1502Q68.6929-85.03 58.441-85.03Q48.2515-85.03 39.2458-81.1502Q30.2401-77.2704 23.3923-70.366Q16.5446-63.4616 12.6336-54.4616Q8.72266-45.4615 8.72266-35.2606Q8.72266-25.0598 12.6336-16.0597Q16.5446-7.05969 23.4178-0.155309Q30.291 6.74907 39.2968 10.6289Q48.3025 14.5087 58.492 14.5087ZM58.492 6.24099Q49.8824 6.24099 42.3688 3.03788Q34.8553-0.165238 29.1769-5.86909Q23.4985-11.573 20.2897-19.112Q17.0809-26.6511 17.0809-35.2606Q17.0809-43.8702 20.2642-51.4093Q23.4476-58.9483 29.1259-64.6522Q34.8043-70.3561 42.3179-73.5592Q49.8315-76.7623 58.441-76.7623Q67.1016-76.7623 74.6208-73.5592Q82.1401-70.3561 87.8383-64.6522Q93.5364-58.9483 96.7707-51.4093Q100.005-43.8702 100.005-35.2606Q100.005-26.6511 96.8019-19.112Q93.5988-11.573 87.9204-5.86909Q82.242-0.165238 74.7029 3.03788Q67.1639 6.24099 58.492 6.24099ZM36.9965-10.3215Q38.6447-8.66193 40.426-8.78087Q42.2072-8.89981 43.7762-10.7576L66.2862-36.2808L59.0533-43.491L33.4961-21.1396Q31.576-19.4801 31.4627-17.73Q31.3495-15.9798 33.009-14.3203ZM80.0215-31.137Q80.8257-30.4347 81.6299-30.3894Q82.4341-30.3442 83.1873-31.0464L90.4603-38.2684Q91.2248-38.9707 91.1994-39.8258Q91.1739-40.681 90.381-41.4342L88.608-43.1958Q87.8887-43.9266 87.3562-44.1135Q86.8237-44.3004 86.0476-44.2381L83.2273-43.921L81.4145-45.6828L82.2187-49.0698Q82.8701-51.6639 80.2479-54.2747L75.3877-59.1122Q72.0006-62.4484 67.2145-63.737Q62.4284-65.0256 57.6338-64.0457Q52.8392-63.0658 49.3842-59.6108Q48.4836-58.7216 48.5289-57.8522Q48.5742-56.9829 49.1123-56.3712Q50.2903-55.346 51.4741-55.85Q55.0199-56.8807 58.0813-56.9005Q61.1428-56.9202 63.805-55.351L61.8905-50.4743Q60.8427-47.6199 62.842-45.5978L68.2231-40.2054Q69.5993-38.8518 71.8762-39.2653L75.7333-40.0525L77.5743-38.1888L77.2572-35.4477Q77.2063-34.632 77.362-34.0486Q77.5178-33.4652 78.2089-32.8363Z"/>
  </g>
  <g id="Light-M" transform="matrix(1 0 0 1 1095.44 1126)">
   <path d="M57.664 13.6807Q67.7687 13.6807 76.6123 9.87453Q85.456 6.06831 92.2245-0.716478Q98.993-7.50127 102.83-16.3449Q106.668-25.1886 106.668-35.2606Q106.668-45.3327 102.83-54.1764Q98.993-63.02 92.2082-69.8048Q85.4234-76.5896 76.5798-80.3958Q67.7361-84.202 57.6315-84.202Q47.5892-84.202 38.7306-80.3958Q29.8721-76.5896 23.1348-69.8048Q16.3974-63.02 12.56-54.1764Q8.72266-45.3327 8.72266-35.2606Q8.72266-25.1886 12.56-16.3449Q16.3974-7.50127 23.151-0.716478Q29.9047 6.06831 38.7632 9.87453Q47.6217 13.6807 57.664 13.6807ZM57.664 7.36333Q48.8337 7.36333 41.1085 4.06822Q33.3833 0.773111 27.5394-5.08714Q21.6954-10.9474 18.3854-18.6888Q15.0755-26.4303 15.0755-35.2606Q15.0755-44.091 18.3692-51.8325Q21.6629-59.5739 27.5068-65.4342Q33.3508-71.2944 41.076-74.5895Q48.8011-77.8846 57.6315-77.8846Q66.4944-77.8846 74.2345-74.5895Q81.9745-71.2944 87.8199-65.4342Q93.6652-59.5739 96.9915-51.8325Q100.318-44.091 100.318-35.2606Q100.318-26.4303 97.0227-18.6888Q93.7275-10.9474 87.8836-5.08714Q82.0396 0.773111 74.2982 4.06822Q66.5567 7.36333 57.664 7.36333ZM35.7638-9.99029Q37.3568-8.36755 39.046-8.47729Q40.7353-8.58702 42.3227-10.4264L65.9734-36.9247L58.8325-44.0062L32.245-20.5692Q30.3433-18.9465 30.2484-17.2884Q30.1535-15.6303 31.7763-14.0075ZM79.6536-30.9162Q80.3474-30.2875 81.0412-30.2698Q81.735-30.2522 82.3962-30.8808L89.9451-38.3972Q90.6361-39.0259 90.6198-39.7522Q90.6035-40.4786 89.9395-41.1398L88.0193-43.0303Q87.2447-43.8346 86.657-44.0215Q86.0694-44.2084 85.146-44.1461L82.8042-43.921L80.6786-46.014L81.3724-49.2354Q81.9685-51.7927 79.6407-54.0907L74.3758-59.2962Q70.9518-62.6876 66.1841-63.9945Q61.4164-65.3015 56.677-64.3493Q51.9376-63.397 48.5378-59.9972Q47.6925-59.1816 47.7102-58.3674Q47.7279-57.5532 48.2291-56.9599Q49.2967-55.99 50.4805-56.402Q54.1183-57.2855 57.2442-57.1856Q60.3701-57.0858 63.1058-55.2958L61.1177-50.4927Q60.0883-47.859 61.9956-45.8922L67.6159-40.2422Q68.9002-39.0174 71.0298-39.394L74.7765-40.1445L76.8752-37.9864L76.6501-35.6501Q76.6175-34.724 76.7733-34.1038Q76.929-33.4836 77.7306-32.7443Z"/>
  </g>
  <g id="Thin-M" transform="matrix(1 0 0 1 799.828 1126)">
   <path d="M56.569 12.5857Q66.479 12.5857 75.1158 8.87683Q83.7526 5.16794 90.3751-1.45867Q96.9976-8.08529 100.738-16.7221Q104.478-25.3589 104.478-35.2606Q104.478-45.1624 100.738-53.7992Q96.9976-62.436 90.371-69.0626Q83.7444-75.6892 75.1076-79.3981Q66.4707-83.107 56.5608-83.107Q46.7131-83.107 38.0493-79.3981Q29.3854-75.6892 22.7941-69.0626Q16.2027-62.436 12.4627-53.7992Q8.72266-45.1624 8.72266-35.2606Q8.72266-25.3589 12.4627-16.7221Q16.2027-8.08529 22.7982-1.45867Q29.3936 5.16794 38.0575 8.87683Q46.7214 12.5857 56.569 12.5857ZM56.569 8.84771Q47.4466 8.84771 39.4416 5.43093Q31.4366 2.01415 25.3736-4.05293Q19.3107-10.12 15.8668-18.1291Q12.423-26.1383 12.423-35.2606Q12.423-44.383 15.8627-52.3921Q19.3024-60.4013 25.3654-66.4684Q31.4284-72.5354 39.4334-75.9522Q47.4384-79.369 56.5608-79.369Q65.6914-79.369 73.7234-75.9522Q81.7555-72.5354 87.7955-66.4684Q93.8356-60.4013 97.2835-52.3921Q100.731-44.383 100.731-35.2606Q100.731-26.1383 97.3147-18.1291Q93.8979-10.12 87.8349-4.05293Q81.7719 2.01415 73.7628 5.43093Q65.7537 8.84771 56.569 8.84771ZM34.1334-9.55227Q35.6534-7.9782 37.221-8.07577Q38.7886-8.17334 40.4003-9.9884L65.5598-37.7764L58.5405-44.6875L30.5902-19.8149Q28.7129-18.2408 28.6423-16.7044Q28.5718-15.1679 30.1459-13.5938ZM79.1669-30.6242Q79.7147-30.0929 80.2625-30.1117Q80.8103-30.1305 81.3498-30.6618L89.2637-38.5675Q89.8574-39.0989 89.8533-39.6549Q89.8492-40.2109 89.3554-40.7505L87.2406-42.8112Q86.393-43.7129 85.7323-43.8998Q85.0717-44.0867 83.9537-44.0244L82.2445-43.921L79.7052-46.452L80.253-49.4544Q80.7761-51.963 78.8377-53.8474L73.0374-59.5395Q69.5648-63.0039 64.8214-64.3352Q60.078-65.6665 55.4117-64.7508Q50.7453-63.835 47.4184-60.5082Q46.6461-59.7899 46.6273-59.0488Q46.6085-58.3076 47.0611-57.7386Q47.9827-56.8417 49.1665-57.132Q52.9259-57.8209 56.137-57.5628Q59.348-57.3048 62.1812-55.2228L60.0957-50.5171Q59.0906-48.1754 60.8763-46.2816L66.8129-40.2909Q67.9755-39.2364 69.9104-39.5644L73.5112-40.2662L75.9505-37.7187L75.8471-35.9178Q75.8388-34.8457 75.9946-34.1768Q76.1503-33.5079 77.0979-32.6227Z"/>
  </g>
  <g id="Ultralight-M" transform="matrix(1 0 0 1 503.679 1126)">
   <path d="M56.0081 12.0248Q65.8184 12.0248 74.3492 8.36581Q82.8801 4.70678 89.4278-1.83882Q95.9756-8.38442 99.6657-16.9153Q103.356-25.4462 103.356-35.2606Q103.356-45.0751 99.6657-53.606Q95.9756-62.1369 89.43-68.6825Q82.8844-75.2281 74.3535-78.8871Q65.8226-82.5461 56.0124-82.5461Q46.2644-82.5461 37.7003-78.8871Q29.1361-75.2281 22.6196-68.6825Q16.103-62.1369 12.4128-53.606Q8.72266-45.0751 8.72266-35.2606Q8.72266-25.4462 12.4128-16.9153Q16.103-8.38442 22.6175-1.83882Q29.1319 4.70678 37.6961 8.36581Q46.2602 12.0248 56.0081 12.0248ZM56.0081 9.60801Q46.7362 9.60801 38.5878 6.12891Q30.4395 2.64981 24.2644-3.52322Q18.0892-9.69625 14.5768-17.8425Q11.0645-25.9887 11.0645-35.2606Q11.0645-44.5326 14.579-52.6788Q18.0934-60.825 24.2686-66.9981Q30.4437-73.1711 38.5921-76.6502Q46.7404-80.1293 56.0124-80.1293Q65.2801-80.1293 73.4617-76.6502Q81.6433-73.1711 87.7831-66.9981Q93.9228-60.825 97.4331-52.6788Q100.943-44.5326 100.943-35.2606Q100.943-25.9887 97.4642-17.8425Q93.9851-9.69625 87.81-3.52322Q81.6348 2.64981 73.4886 6.12891Q65.3424 9.60801 56.0081 9.60801ZM33.2983-9.32792Q34.7809-7.77878 36.2862-7.87012Q37.7915-7.96146 39.4156-9.76405L65.3479-38.2127L58.3909-45.0365L29.7427-19.4285Q27.8778-17.8794 27.8197-16.4052Q27.7617-14.9311 29.3108-13.382ZM78.9176-30.4746Q79.3906-29.9931 79.8636-30.0307Q80.3366-30.0682 80.8139-30.5497L88.9147-38.6548Q89.4585-39.1362 89.4607-39.605Q89.4628-40.0738 89.0563-40.551L86.8417-42.6991Q85.9568-43.6506 85.2587-43.8375Q84.5606-44.0244 83.3429-43.9621L81.9578-43.921L79.2067-46.6764L79.6797-49.5666Q80.1654-52.0503 78.4264-53.7228L72.3519-59.6642Q68.8544-63.1659 64.1234-64.5097Q59.3925-65.8535 54.7635-64.9564Q50.1345-64.0594 46.8451-60.7699Q46.1102-60.1015 46.0727-59.3978Q46.0351-58.694 46.4628-58.1375Q47.3096-57.2779 48.4934-57.5059Q52.3152-58.0951 55.5699-57.756Q58.8246-57.4169 61.7075-55.1854L59.5722-50.5295Q58.5796-48.3374 60.3029-46.481L66.4016-40.3158Q67.5019-39.3486 69.3371-39.6516L72.863-40.3285L75.4769-37.5816L75.4357-36.0549Q75.44-34.908 75.5957-34.2142Q75.7515-33.5204 76.7738-32.5604Z"/>
  </g>
  <g id="Black-S" transform="matrix(1 0 0 1 2884.57 696)">
   <path d="M48.8281 6.78711Q57.5195 6.78711 65.1123 3.51562Q72.7051 0.244141 78.4912-5.54199Q84.2773-11.3281 87.5488-18.9209Q90.8203-26.5137 90.8203-35.2051Q90.8203-43.8965 87.5488-51.4893Q84.2773-59.082 78.4912-64.8682Q72.7051-70.6543 65.1123-73.9258Q57.5195-77.1973 48.8281-77.1973Q40.1367-77.1973 32.5439-73.9258Q24.9512-70.6543 19.165-64.8682Q13.3789-59.082 10.1074-51.4893Q6.83594-43.8965 6.83594-35.2051Q6.83594-26.5137 10.1074-18.9209Q13.3789-11.3281 19.165-5.54199Q24.9512 0.244141 32.5439 3.51562Q40.1367 6.78711 48.8281 6.78711ZM48.8281-7.37305Q43.0664-7.37305 38.0127-9.5459Q32.959-11.7188 29.1504-15.5273Q25.3418-19.3359 23.1689-24.3896Q20.9961-29.4434 20.9961-35.2051Q20.9961-40.9668 23.1689-46.0205Q25.3418-51.0742 29.1504-54.8828Q32.959-58.6914 38.0127-60.8643Q43.0664-63.0371 48.8281-63.0371Q54.5898-63.0371 59.6436-60.8643Q64.6973-58.6914 68.5059-54.8828Q72.3145-51.0742 74.4873-46.0205Q76.6602-40.9668 76.6602-35.2051Q76.6602-29.4434 74.4873-24.3896Q72.3145-19.3359 68.5059-15.5273Q64.6973-11.7188 59.6436-9.5459Q54.5898-7.37305 48.8281-7.37305ZM34.1797-18.3105Q35.5469-16.9434 37.207-17.0166Q38.8672-17.0898 40.2344-18.7012L54.7363-35.8398L48.7305-41.8945L31.543-27.3438Q30.0293-25.9766 29.9316-24.3164Q29.834-22.6562 31.2012-21.2891ZM62.8906-33.252Q63.8184-32.3242 64.917-32.2998Q66.0156-32.2754 66.8457-33.1055L71.0938-37.4023Q71.9727-38.2324 71.9482-39.3311Q71.9238-40.4297 71.0449-41.3574L70.0684-42.2852Q69.4336-43.0176 68.8477-43.1641Q68.2617-43.3105 67.5293-43.2617L66.5039-43.1641L65.6738-43.9941L65.9668-45.3125Q66.4062-47.5586 64.4043-49.5117L61.5234-52.3438Q59.1797-54.7363 55.7373-55.6152Q52.2949-56.4941 48.8281-55.8105Q45.3613-55.127 43.0176-52.7344Q42.2363-51.9531 42.1387-51.001Q42.041-50.0488 42.4805-49.3652Q43.457-47.7051 45.752-48.291Q47.4609-48.7305 49.0723-48.8281Q50.6836-48.9258 51.8066-48.291L51.2695-46.7773Q50.2441-44.2871 52.002-42.5293L54.6875-39.8438Q56.7383-37.793 58.9355-38.2812L60.2539-38.5254L61.1328-37.7441L60.9863-36.6699Q60.8398-35.9863 61.0596-35.4004Q61.2793-34.8145 61.9629-34.1309Z"/>
  </g>
  <g id="Heavy-S" transform="matrix(1 0 0 1 2588.47 696)">
   <path d="M48.2173 6.16479Q56.7704 6.16479 64.2537 2.9394Q71.737-0.285985 77.4425-5.99721Q83.1479-11.7084 86.3791-19.1917Q89.6102-26.675 89.6102-35.2166Q89.6102-43.7582 86.3791-51.2415Q83.1479-58.7248 77.4367-64.436Q71.7255-70.1472 64.2422-73.3726Q56.7589-76.598 48.2058-76.598Q39.6642-76.598 32.1809-73.3726Q24.6976-70.1472 18.9979-64.436Q13.2982-58.7248 10.0671-51.2415Q6.83594-43.7582 6.83594-35.2166Q6.83594-26.675 10.0671-19.1917Q13.2982-11.7084 19.0037-5.99721Q24.7092-0.285985 32.1924 2.9394Q39.6757 6.16479 48.2173 6.16479ZM48.2173-6.40499Q42.2482-6.40499 37.0216-8.64699Q31.795-10.889 27.8539-14.8359Q23.9128-18.7828 21.6708-24.0151Q19.4288-29.2474 19.4288-35.2166Q19.4288-41.1858 21.665-46.4181Q23.9012-51.6504 27.8424-55.5973Q31.7835-59.5442 37.0101-61.7862Q42.2366-64.0282 48.2058-64.0282Q54.1865-64.0282 59.4131-61.7862Q64.6396-59.5442 68.5865-55.5973Q72.5334-51.6504 74.7812-46.4181Q77.0289-41.1858 77.0289-35.2166Q77.0289-29.2474 74.7869-24.0151Q72.5449-18.7828 68.6038-14.8359Q64.6627-10.889 59.4304-8.64699Q54.198-6.40499 48.2173-6.40499ZM33.0964-17.7343Q34.4521-16.3787 36.0603-16.4577Q37.6686-16.5367 39.0013-18.1134L54.114-35.8168L48.1773-41.7908L30.4366-26.6638Q28.9229-25.3081 28.8253-23.7056Q28.7276-22.1031 30.0833-20.7474ZM62.8906-32.9869Q63.7607-32.1398 64.7614-32.1097Q65.7621-32.0795 66.5461-32.8519L71.1053-37.4369Q71.9266-38.2094 71.9021-39.2216Q71.8777-40.2338 71.0449-41.0924L69.9877-42.1123Q69.376-42.7986 68.8361-42.9451Q68.2963-43.0916 67.61-43.0428L66.2504-42.899L65.3166-43.8213L65.7017-45.4738Q66.1642-47.6738 64.1162-49.6846L61.0625-52.701Q58.6496-55.1397 55.1323-56.0474Q51.615-56.9551 48.0733-56.2485Q44.5316-55.5418 42.0956-53.0686Q41.3259-52.2989 41.2628-51.4043Q41.1997-50.5098 41.6392-49.8723Q42.6157-48.4081 44.588-48.9594Q46.539-49.5026 48.3289-49.5945Q50.1189-49.6864 51.4609-48.9364L50.7048-46.8695Q49.7255-44.4139 51.4488-42.6906L54.4685-39.6709Q56.3004-37.8391 58.4169-38.2928L60.1502-38.6291L61.1328-37.7211L60.9518-36.3472Q60.8283-35.6867 61.025-35.1353Q61.2217-34.584 61.8592-33.958Z"/>
  </g>
  <g id="Bold-S" transform="matrix(1 0 0 1 2292.43 696)">
   <path d="M47.5342 5.46875Q55.9326 5.46875 63.2935 2.29492Q70.6543-0.878906 76.2695-6.50635Q81.8848-12.1338 85.0708-19.4946Q88.2568-26.8555 88.2568-35.2295Q88.2568-43.6035 85.0708-50.9644Q81.8848-58.3252 76.2573-63.9526Q70.6299-69.5801 63.269-72.7539Q55.9082-75.9277 47.5098-75.9277Q39.1357-75.9277 31.7749-72.7539Q24.4141-69.5801 18.811-63.9526Q13.208-58.3252 10.022-50.9644Q6.83594-43.6035 6.83594-35.2295Q6.83594-26.8555 10.022-19.4946Q13.208-12.1338 18.8232-6.50635Q24.4385-0.878906 31.7993 2.29492Q39.1602 5.46875 47.5342 5.46875ZM47.5342-5.32227Q41.333-5.32227 35.9131-7.6416Q30.4932-9.96094 26.4038-14.0625Q22.3145-18.1641 19.9951-23.5962Q17.6758-29.0283 17.6758-35.2295Q17.6758-41.4307 19.9829-46.8628Q22.29-52.2949 26.3794-56.3965Q30.4688-60.498 35.8887-62.8174Q41.3086-65.1367 47.5098-65.1367Q53.7354-65.1367 59.1553-62.8174Q64.5752-60.498 68.6768-56.3965Q72.7783-52.2949 75.1099-46.8628Q77.4414-41.4307 77.4414-35.2295Q77.4414-29.0283 75.1221-23.5962Q72.8027-18.1641 68.7134-14.0625Q64.624-9.96094 59.1919-7.6416Q53.7598-5.32227 47.5342-5.32227ZM31.8848-17.0898Q33.2275-15.7471 34.7778-15.8325Q36.3281-15.918 37.6221-17.4561L53.418-35.791L47.5586-41.6748L29.1992-25.9033Q27.6855-24.5605 27.5879-23.0225Q27.4902-21.4844 28.833-20.1416ZM62.8906-32.6904Q63.6963-31.9336 64.5874-31.897Q65.4785-31.8604 66.2109-32.5684L71.1182-37.4756Q71.875-38.1836 71.8506-39.0991Q71.8262-40.0146 71.0449-40.7959L69.8975-41.9189Q69.3115-42.5537 68.8232-42.7002Q68.335-42.8467 67.7002-42.7979L65.9668-42.6025L64.917-43.6279L65.4053-45.6543Q65.8936-47.8027 63.7939-49.8779L60.5469-53.1006Q58.0566-55.5908 54.4556-56.5308Q50.8545-57.4707 47.229-56.7383Q43.6035-56.0059 41.0645-53.4424Q40.3076-52.6855 40.2832-51.8555Q40.2588-51.0254 40.6982-50.4395Q41.6748-49.1943 43.2861-49.707Q45.5078-50.3662 47.4976-50.4517Q49.4873-50.5371 51.0742-49.6582L50.0732-46.9727Q49.1455-44.5557 50.8301-42.8711L54.2236-39.4775Q55.8105-37.8906 57.8369-38.3057L60.0342-38.7451L61.1328-37.6953L60.9131-35.9863Q60.8154-35.3516 60.9863-34.8389Q61.1572-34.3262 61.7432-33.7646Z"/>
  </g>
  <g id="Semibold-S" transform="matrix(1 0 0 1 1996.19 696)">
   <path d="M47.0632 4.98887Q55.355 4.98887 62.6314 1.85059Q69.9078-1.2877 75.4608-6.85737Q81.0139-12.4271 84.1688-19.7035Q87.3237-26.9799 87.3237-35.2384Q87.3237-43.4969 84.1688-50.7733Q81.0139-58.0497 75.4442-63.6194Q69.8745-69.1891 62.5981-72.3273Q55.3217-75.4656 47.0299-75.4656Q38.7714-75.4656 31.495-72.3273Q24.2186-69.1891 18.6822-63.6194Q13.1458-58.0497 9.99087-50.7733Q6.83594-43.4969 6.83594-35.2384Q6.83594-26.9799 9.99087-19.7035Q13.1458-12.4271 18.6988-6.85737Q24.2519-1.2877 31.5283 1.85059Q38.8047 4.98887 47.0632 4.98887ZM47.0632-4.57578Q40.7021-4.57578 35.1488-6.94844Q29.5956-9.32109 25.4041-13.5293Q21.2125-17.7375 18.8398-23.3074Q16.4672-28.8772 16.4672-35.2384Q16.4672-41.5995 18.8232-47.1694Q21.1792-52.7393 25.3708-56.9475Q29.5623-61.1557 35.1155-63.5283Q40.6688-65.901 47.0299-65.901Q53.4243-65.901 58.9775-63.5283Q64.5308-61.1557 68.739-56.9475Q72.9472-52.7393 75.3365-47.1694Q77.7258-41.5995 77.7258-35.2384Q77.7258-28.8772 75.3531-23.3074Q72.9805-17.7375 68.7889-13.5293Q64.5974-9.32109 59.0275-6.94844Q53.4576-4.57578 47.0632-4.57578ZM31.0494-16.6455Q32.3833-15.3116 33.8936-15.4015Q35.4039-15.4914 36.6712-17.0028L52.9381-35.7732L47.132-41.5948L28.3461-25.379Q26.8324-24.0451 26.7348-22.5515Q26.6371-21.0578 27.971-19.7239ZM62.8906-32.486Q63.6519-31.7914 64.4674-31.7503Q65.283-31.7093 65.9799-32.3729L71.1271-37.5022Q71.8395-38.1658 71.815-39.0147Q71.7906-39.8636 71.0449-40.5915L69.8353-41.7856Q69.2671-42.3849 68.8144-42.5313Q68.3616-42.6778 67.7624-42.629L65.7713-42.3981L64.6415-43.4946L65.2009-45.7787Q65.7069-47.8916 63.5718-50.0112L60.1914-53.3761Q57.6479-55.9019 53.989-56.864Q50.3302-57.8262 46.6469-57.076Q42.9637-56.3258 40.3535-53.7001Q39.6056-52.9521 39.6078-52.1665Q39.6101-51.3809 40.0495-50.8305Q41.0261-49.7364 42.3886-50.2225Q44.7969-50.9616 46.9244-51.0426Q49.0519-51.1236 50.8076-50.1559L49.6378-47.0438Q48.7456-44.6534 50.4035-42.9955L54.0548-39.3442Q55.4729-37.9262 57.437-38.3146L59.9542-38.8251L61.1328-37.6775L60.8864-35.7375Q60.8065-35.1205 60.9597-34.6345Q61.1128-34.1484 61.6632-33.6313Z"/>
  </g>
  <g id="Medium-S" transform="matrix(1 0 0 1 1699.83 696)">
   <path d="M46.7061 4.625Q54.917 4.625 62.1294 1.51367Q69.3418-1.59766 74.8477-7.12354Q80.3535-12.6494 83.4849-19.8618Q86.6162-27.0742 86.6162-35.2451Q86.6162-43.416 83.4849-50.6284Q80.3535-57.8408 74.8276-63.3667Q69.3018-68.8926 62.0894-72.0039Q54.877-75.1152 46.666-75.1152Q38.4951-75.1152 31.2827-72.0039Q24.0703-68.8926 18.5845-63.3667Q13.0986-57.8408 9.96729-50.6284Q6.83594-43.416 6.83594-35.2451Q6.83594-27.0742 9.96729-19.8618Q13.0986-12.6494 18.6045-7.12354Q24.1104-1.59766 31.3228 1.51367Q38.5352 4.625 46.7061 4.625ZM46.7061-4.00977Q40.2236-4.00977 34.5693-6.42285Q28.915-8.83594 24.646-13.125Q20.377-17.4141 17.9639-23.0884Q15.5508-28.7627 15.5508-35.2451Q15.5508-41.7275 17.9438-47.4019Q20.3369-53.0762 24.606-57.3652Q28.875-61.6543 34.5293-64.0674Q40.1836-66.4805 46.666-66.4805Q53.1885-66.4805 58.8428-64.0674Q64.4971-61.6543 68.7861-57.3652Q73.0752-53.0762 75.5083-47.4019Q77.9414-41.7275 77.9414-35.2451Q77.9414-28.7627 75.5283-23.0884Q73.1152-17.4141 68.8462-13.125Q64.5771-8.83594 58.9028-6.42285Q53.2285-4.00977 46.7061-4.00977ZM30.416-16.3086Q31.7432-14.9814 33.2231-15.0747Q34.7031-15.168 35.9502-16.6592L52.5742-35.7598L46.8086-41.5342L27.6992-24.9814Q26.1855-23.6543 26.0879-22.1943Q25.9902-20.7344 27.3174-19.4072ZM62.8906-32.3311Q63.6182-31.6836 64.3765-31.6392Q65.1348-31.5947 65.8047-32.2246L71.1338-37.5225Q71.8125-38.1523 71.7881-38.9507Q71.7637-39.749 71.0449-40.4365L69.7881-41.6846Q69.2334-42.2568 68.8076-42.4033Q68.3818-42.5498 67.8096-42.501L65.623-42.2432L64.4326-43.3936L65.0459-45.873Q65.5654-47.959 63.4033-50.1123L59.9219-53.585Q57.3379-56.1377 53.6353-57.1167Q49.9326-58.0957 46.2056-57.332Q42.4785-56.5684 39.8145-53.8955Q39.0732-53.1543 39.0957-52.4023Q39.1182-51.6504 39.5576-51.127Q40.5342-50.1475 41.708-50.6133Q44.2578-51.4131 46.4897-51.4907Q48.7217-51.5684 50.6055-50.5332L49.3076-47.0977Q48.4424-44.7275 50.0801-43.0898L53.9268-39.2432Q55.2168-37.9531 57.1338-38.3213L59.8936-38.8857L61.1328-37.6641L60.8662-35.5488Q60.7998-34.9453 60.9395-34.4795Q61.0791-34.0137 61.6025-33.5303Z"/>
  </g>
  <g id="Regular-S" transform="matrix(1 0 0 1 1403.58 696)">
   <path d="M46.2402 4.15039Q54.3457 4.15039 61.4746 1.07422Q68.6035-2.00195 74.0479-7.4707Q79.4922-12.9395 82.5928-20.0684Q85.6934-27.1973 85.6934-35.2539Q85.6934-43.3105 82.5928-50.4395Q79.4922-57.5684 74.0234-63.0371Q68.5547-68.5059 61.4258-71.582Q54.2969-74.6582 46.1914-74.6582Q38.1348-74.6582 31.0059-71.582Q23.877-68.5059 18.457-63.0371Q13.0371-57.5684 9.93652-50.4395Q6.83594-43.3105 6.83594-35.2539Q6.83594-27.1973 9.93652-20.0684Q13.0371-12.9395 18.4814-7.4707Q23.9258-2.00195 31.0547 1.07422Q38.1836 4.15039 46.2402 4.15039ZM46.2402-3.27148Q39.5996-3.27148 33.8135-5.7373Q28.0273-8.20312 23.6572-12.5977Q19.2871-16.9922 16.8213-22.8027Q14.3555-28.6133 14.3555-35.2539Q14.3555-41.8945 16.7969-47.7051Q19.2383-53.5156 23.6084-57.9102Q27.9785-62.3047 33.7646-64.7705Q39.5508-67.2363 46.1914-67.2363Q52.8809-67.2363 58.667-64.7705Q64.4531-62.3047 68.8477-57.9102Q73.2422-53.5156 75.7324-47.7051Q78.2227-41.8945 78.2227-35.2539Q78.2227-28.6133 75.7568-22.8027Q73.291-16.9922 68.9209-12.5977Q64.5508-8.20312 58.7402-5.7373Q52.9297-3.27148 46.2402-3.27148ZM29.5898-15.8691Q30.9082-14.5508 32.3486-14.6484Q33.7891-14.7461 35.0098-16.2109L52.0996-35.7422L46.3867-41.4551L26.8555-24.4629Q25.3418-23.1445 25.2441-21.7285Q25.1465-20.3125 26.4648-18.9941ZM62.8906-32.1289Q63.5742-31.543 64.2578-31.4941Q64.9414-31.4453 65.5762-32.0312L71.1426-37.5488Q71.7773-38.1348 71.7529-38.8672Q71.7285-39.5996 71.0449-40.2344L69.7266-41.5527Q69.1895-42.0898 68.7988-42.2363Q68.4082-42.3828 67.8711-42.334L65.4297-42.041L64.1602-43.2617L64.8438-45.9961Q65.3809-48.0469 63.1836-50.2441L59.5703-53.8574Q56.9336-56.4453 53.1738-57.4463Q49.4141-58.4473 45.6299-57.666Q41.8457-56.8848 39.1113-54.1504Q38.3789-53.418 38.4277-52.71Q38.4766-52.002 38.916-51.5137Q39.8926-50.6836 40.8203-51.123Q43.5547-52.002 45.9229-52.0752Q48.291-52.1484 50.3418-51.0254L48.877-47.168Q48.0469-44.8242 49.6582-43.2129L53.7598-39.1113Q54.8828-37.9883 56.7383-38.3301L59.8145-38.9648L61.1328-37.6465L60.8398-35.3027Q60.791-34.7168 60.9131-34.2773Q61.0352-33.8379 61.5234-33.3984Z"/>
  </g>
  <g id="Light-S" transform="matrix(1 0 0 1 1107.6 696)">
   <path d="M45.5078 3.41797Q53.4831 3.41797 60.4736 0.406901Q67.4642-2.60417 72.8109-7.96712Q78.1576-13.3301 81.193-20.3206Q84.2285-27.3112 84.2285-35.2539Q84.2285-43.1966 81.193-50.1872Q78.1576-57.1777 72.7946-62.5407Q67.4316-67.9036 60.4411-70.9147Q53.4505-73.9258 45.4753-73.9258Q37.5488-73.9258 30.5501-70.9147Q23.5514-67.9036 18.2292-62.5407Q12.9069-57.1777 9.87142-50.1872Q6.83594-43.1966 6.83594-35.2539Q6.83594-27.3112 9.87142-20.3206Q12.9069-13.3301 18.2454-7.96712Q23.584-2.60417 30.5827 0.406901Q37.5814 3.41797 45.5078 3.41797ZM45.5078-2.27865Q38.6719-2.27865 32.6986-4.82585Q26.7253-7.37305 22.2087-11.9059Q17.6921-16.4388 15.1367-22.4284Q12.5814-28.418 12.5814-35.2539Q12.5814-42.0898 15.1204-48.0794Q17.6595-54.069 22.1761-58.6019Q26.6927-63.1348 32.666-65.682Q38.6393-68.2292 45.4753-68.2292Q52.3438-68.2292 58.3252-65.682Q64.3066-63.1348 68.8314-58.6019Q73.3561-54.069 75.9277-48.0794Q78.4993-42.0898 78.4993-35.2539Q78.4993-28.418 75.9521-22.4284Q73.4049-16.4388 68.8883-11.9059Q64.3717-7.37305 58.3822-4.82585Q52.3926-2.27865 45.5078-2.27865ZM28.4993-15.5762Q29.7689-14.2904 31.1279-14.3799Q32.487-14.4694 33.724-15.918L51.8229-36.3118L46.1914-41.9108L25.7487-23.9583Q24.2513-22.6725 24.1699-21.3379Q24.0885-20.0033 25.3743-18.7174ZM62.5651-31.9336Q63.151-31.4128 63.737-31.3883Q64.3229-31.3639 64.8763-31.8848L70.6868-37.6628Q71.2565-38.1836 71.2402-38.8021Q71.224-39.4206 70.6543-39.974L69.2057-41.4062Q68.6198-42.0085 68.1803-42.1549Q67.7409-42.3014 67.0736-42.2526L65.0553-42.041L63.5091-43.5547L64.0951-46.1426Q64.5833-48.1608 62.6465-50.0814L58.6751-54.0202Q56.0059-56.6569 52.2624-57.6742Q48.5189-58.6914 44.7835-57.9346Q41.0482-57.1777 38.3626-54.4922Q37.679-53.8249 37.7035-53.1657Q37.7279-52.5065 38.1348-52.0345Q39.0137-51.2533 39.9414-51.6113Q42.7572-52.36 45.1823-52.3275Q47.6074-52.2949 49.7233-50.9766L48.1934-47.1842Q47.3796-45.0358 48.9095-43.4733L53.2227-39.1439Q54.2643-38.1348 55.9896-38.444L58.9681-39.0462L60.5143-37.4674L60.3027-35.4818Q60.2702-34.7982 60.3923-34.3262Q60.5143-33.8542 61.1003-33.3171Z"/>
  </g>
  <g id="Thin-S" transform="matrix(1 0 0 1 811.863 696)">
   <path d="M44.5391 2.44928Q52.3422 2.44928 59.1498-0.47568Q65.9573-3.40064 71.1749-8.62368Q76.3924-13.8467 79.3418-20.6543Q82.2911-27.4619 82.2911-35.2539Q82.2911-43.0459 79.3418-49.8535Q76.3924-56.6611 71.1694-61.8841Q65.9463-67.1072 59.1387-70.0321Q52.3311-72.9571 44.5281-72.9571Q36.7739-72.9571 29.9474-70.0321Q23.1209-67.1072 17.9278-61.8841Q12.7347-56.6611 9.78531-49.8535Q6.83594-43.0459 6.83594-35.2539Q6.83594-27.4619 9.78531-20.6543Q12.7347-13.8467 17.9333-8.62368Q23.1319-3.40064 29.9584-0.47568Q36.7849 2.44928 44.5391 2.44928ZM44.5391-0.965537Q37.4449-0.965537 31.224-3.62037Q25.0032-6.2752 20.2928-10.9911Q15.5825-15.7069 12.9087-21.9333Q10.235-28.1597 10.235-35.2539Q10.235-42.3482 12.9032-48.5745Q15.5714-54.8009 20.2818-59.5168Q24.9921-64.2326 31.213-66.8874Q37.4338-69.5423 44.5281-69.5423Q51.6334-69.5423 57.8731-66.8874Q64.1129-64.2326 68.8099-59.5168Q73.5068-54.8009 76.1861-48.5745Q78.8653-42.3482 78.8653-35.2539Q78.8653-28.1597 76.2105-21.9333Q73.5556-15.7069 68.8453-10.9911Q64.135-6.2752 57.9086-3.62037Q51.6822-0.965537 44.5391-0.965537ZM27.0571-15.1887Q28.262-13.9459 29.5135-14.0247Q30.7649-14.1035 32.0234-15.5305L51.457-37.0653L45.9331-42.5135L24.2849-23.291Q22.809-22.0483 22.7492-20.8213Q22.6893-19.5943 23.9321-18.3515ZM62.1346-31.6753Q62.5914-31.2405 63.0481-31.2484Q63.5049-31.2563 63.9507-31.691L70.0841-37.8134Q70.5677-38.2482 70.5622-38.716Q70.5566-39.1838 70.1377-39.6295L68.5169-41.2125Q67.8664-41.9008 67.3623-42.0473Q66.8583-42.1938 66.0188-42.145L64.5602-42.041L62.6481-43.9422L63.1048-46.3363Q63.5285-48.3115 61.9361-49.8661L57.4912-54.2354Q54.7789-56.9367 51.0569-57.9755Q47.3349-59.0143 43.6642-58.2898Q39.9934-57.5652 37.3724-54.9442Q36.7534-54.363 36.7455-53.7684Q36.7377-53.1738 37.1015-52.7233Q37.8512-52.0067 38.779-52.2571Q41.7024-52.8336 44.2028-52.6611Q46.7033-52.4887 48.9053-50.912L47.2893-47.2058Q46.497-45.3157 47.9193-43.8177L52.5123-39.1869Q53.4463-38.3285 54.9994-38.5947L57.8487-39.1539L59.6963-37.2307L59.5924-35.7186Q59.5813-34.9058 59.7034-34.3908Q59.8255-33.8757 60.5406-33.2094Z"/>
  </g>
  <g id="Ultralight-S" transform="matrix(1 0 0 1 515.649 696)">
   <path d="M44.043 1.95312Q51.7578 1.95312 58.4717-0.927734Q65.1855-3.80859 70.3369-8.95996Q75.4883-14.1113 78.3936-20.8252Q81.2988-27.5391 81.2988-35.2539Q81.2988-42.9688 78.3936-49.6826Q75.4883-56.3965 70.3369-61.5479Q65.1855-66.6992 58.4717-69.5801Q51.7578-72.4609 44.043-72.4609Q36.377-72.4609 29.6387-69.5801Q22.9004-66.6992 17.7734-61.5479Q12.6465-56.3965 9.74121-49.6826Q6.83594-42.9688 6.83594-35.2539Q6.83594-27.5391 9.74121-20.8252Q12.6465-14.1113 17.7734-8.95996Q22.9004-3.80859 29.6387-0.927734Q36.377 1.95312 44.043 1.95312ZM44.043-0.292969Q36.8164-0.292969 30.4688-3.00293Q24.1211-5.71289 19.3115-10.5225Q14.502-15.332 11.7676-21.6797Q9.0332-28.0273 9.0332-35.2539Q9.0332-42.4805 11.7676-48.8281Q14.502-55.1758 19.3115-59.9854Q24.1211-64.7949 30.4688-67.5049Q36.8164-70.2148 44.043-70.2148Q51.2695-70.2148 57.6416-67.5049Q64.0137-64.7949 68.7988-59.9854Q73.584-55.1758 76.3184-48.8281Q79.0527-42.4805 79.0527-35.2539Q79.0527-28.0273 76.3428-21.6797Q73.6328-15.332 68.8232-10.5225Q64.0137-5.71289 57.666-3.00293Q51.3184-0.292969 44.043-0.292969ZM26.3184-14.9902Q27.4902-13.7695 28.6865-13.8428Q29.8828-13.916 31.1523-15.332L51.2695-37.4512L45.8008-42.8223L23.5352-22.9492Q22.0703-21.7285 22.0215-20.5566Q21.9727-19.3848 23.1934-18.1641ZM61.9141-31.543Q62.3047-31.1523 62.6953-31.1768Q63.0859-31.2012 63.4766-31.5918L69.7754-37.8906Q70.2148-38.2812 70.2148-38.6719Q70.2148-39.0625 69.873-39.4531L68.1641-41.1133Q67.4805-41.8457 66.9434-41.9922Q66.4062-42.1387 65.4785-42.0898L64.3066-42.041L62.207-44.1406L62.5977-46.4355Q62.9883-48.3887 61.5723-49.7559L56.8848-54.3457Q54.1504-57.0801 50.4395-58.1299Q46.7285-59.1797 43.0908-58.4717Q39.4531-57.7637 36.8652-55.1758Q36.2793-54.6387 36.2549-54.0771Q36.2305-53.5156 36.5723-53.0762Q37.2559-52.3926 38.1836-52.5879Q41.1621-53.0762 43.7012-52.832Q46.2402-52.5879 48.4863-50.8789L46.8262-47.2168Q46.0449-45.459 47.4121-43.9941L52.1484-39.209Q53.0273-38.4277 54.4922-38.6719L57.2754-39.209L59.2773-37.1094L59.2285-35.8398Q59.2285-34.9609 59.3506-34.4238Q59.4727-33.8867 60.2539-33.1543Z"/>
  </g>
 </g>
</svg>
